G04 #@! TF.GenerationSoftware,KiCad,Pcbnew,(5.1.5)-3*
G04 #@! TF.CreationDate,2020-09-13T19:19:07-07:00*
G04 #@! TF.ProjectId,rk86kngmd,726b3836-6b6e-4676-9d64-2e6b69636164,rev?*
G04 #@! TF.SameCoordinates,Original*
G04 #@! TF.FileFunction,Legend,Bot*
G04 #@! TF.FilePolarity,Positive*
%FSLAX46Y46*%
G04 Gerber Fmt 4.6, Leading zero omitted, Abs format (unit mm)*
G04 Created by KiCad (PCBNEW (5.1.5)-3) date 2020-09-13 19:19:07*
%MOMM*%
%LPD*%
G04 APERTURE LIST*
%ADD10C,0.300000*%
%ADD11C,0.400000*%
%ADD12C,0.120000*%
%ADD13C,0.150000*%
G04 APERTURE END LIST*
D10*
X92290038Y-78974352D02*
X92480514Y-78879114D01*
X92861466Y-78879114D01*
X93051942Y-78974352D01*
X93242419Y-79164828D01*
X93337657Y-79355304D01*
X93337657Y-79736257D01*
X93242419Y-79926733D01*
X93051942Y-80117209D01*
X92861466Y-80212447D01*
X92480514Y-80212447D01*
X92290038Y-80117209D01*
X92670990Y-78212447D02*
X93147180Y-78307685D01*
X93623371Y-78593400D01*
X93909085Y-79069590D01*
X94004323Y-79545780D01*
X93909085Y-80021971D01*
X93623371Y-80498161D01*
X93147180Y-80783876D01*
X92670990Y-80879114D01*
X92194800Y-80783876D01*
X91718609Y-80498161D01*
X91432895Y-80021971D01*
X91337657Y-79545780D01*
X91432895Y-79069590D01*
X91718609Y-78593400D01*
X92194800Y-78307685D01*
X92670990Y-78212447D01*
X90575752Y-78688638D02*
X90480514Y-78593400D01*
X90290038Y-78498161D01*
X89813847Y-78498161D01*
X89623371Y-78593400D01*
X89528133Y-78688638D01*
X89432895Y-78879114D01*
X89432895Y-79069590D01*
X89528133Y-79355304D01*
X90670990Y-80498161D01*
X89432895Y-80498161D01*
X88194800Y-78498161D02*
X88004323Y-78498161D01*
X87813847Y-78593400D01*
X87718609Y-78688638D01*
X87623371Y-78879114D01*
X87528133Y-79260066D01*
X87528133Y-79736257D01*
X87623371Y-80117209D01*
X87718609Y-80307685D01*
X87813847Y-80402923D01*
X88004323Y-80498161D01*
X88194800Y-80498161D01*
X88385276Y-80402923D01*
X88480514Y-80307685D01*
X88575752Y-80117209D01*
X88670990Y-79736257D01*
X88670990Y-79260066D01*
X88575752Y-78879114D01*
X88480514Y-78688638D01*
X88385276Y-78593400D01*
X88194800Y-78498161D01*
X86766228Y-78688638D02*
X86670990Y-78593400D01*
X86480514Y-78498161D01*
X86004323Y-78498161D01*
X85813847Y-78593400D01*
X85718609Y-78688638D01*
X85623371Y-78879114D01*
X85623371Y-79069590D01*
X85718609Y-79355304D01*
X86861466Y-80498161D01*
X85623371Y-80498161D01*
X84385276Y-78498161D02*
X84194800Y-78498161D01*
X84004323Y-78593400D01*
X83909085Y-78688638D01*
X83813847Y-78879114D01*
X83718609Y-79260066D01*
X83718609Y-79736257D01*
X83813847Y-80117209D01*
X83909085Y-80307685D01*
X84004323Y-80402923D01*
X84194800Y-80498161D01*
X84385276Y-80498161D01*
X84575752Y-80402923D01*
X84670990Y-80307685D01*
X84766228Y-80117209D01*
X84861466Y-79736257D01*
X84861466Y-79260066D01*
X84766228Y-78879114D01*
X84670990Y-78688638D01*
X84575752Y-78593400D01*
X84385276Y-78498161D01*
X81432895Y-80402923D02*
X81147180Y-80498161D01*
X80670990Y-80498161D01*
X80480514Y-80402923D01*
X80385276Y-80307685D01*
X80290038Y-80117209D01*
X80290038Y-79926733D01*
X80385276Y-79736257D01*
X80480514Y-79641019D01*
X80670990Y-79545780D01*
X81051942Y-79450542D01*
X81242419Y-79355304D01*
X81337657Y-79260066D01*
X81432895Y-79069590D01*
X81432895Y-78879114D01*
X81337657Y-78688638D01*
X81242419Y-78593400D01*
X81051942Y-78498161D01*
X80575752Y-78498161D01*
X80290038Y-78593400D01*
X79432895Y-80498161D02*
X79432895Y-78498161D01*
X78956704Y-78498161D01*
X78670990Y-78593400D01*
X78480514Y-78783876D01*
X78385276Y-78974352D01*
X78290038Y-79355304D01*
X78290038Y-79641019D01*
X78385276Y-80021971D01*
X78480514Y-80212447D01*
X78670990Y-80402923D01*
X78956704Y-80498161D01*
X79432895Y-80498161D01*
X77528133Y-80402923D02*
X77242419Y-80498161D01*
X76766228Y-80498161D01*
X76575752Y-80402923D01*
X76480514Y-80307685D01*
X76385276Y-80117209D01*
X76385276Y-79926733D01*
X76480514Y-79736257D01*
X76575752Y-79641019D01*
X76766228Y-79545780D01*
X77147180Y-79450542D01*
X77337657Y-79355304D01*
X77432895Y-79260066D01*
X77528133Y-79069590D01*
X77528133Y-78879114D01*
X77432895Y-78688638D01*
X77337657Y-78593400D01*
X77147180Y-78498161D01*
X76670990Y-78498161D01*
X76385276Y-78593400D01*
D11*
X93040285Y-76650952D02*
X93873619Y-75460476D01*
X94468857Y-76650952D02*
X94468857Y-74150952D01*
X93516476Y-74150952D01*
X93278380Y-74270000D01*
X93159333Y-74389047D01*
X93040285Y-74627142D01*
X93040285Y-74984285D01*
X93159333Y-75222380D01*
X93278380Y-75341428D01*
X93516476Y-75460476D01*
X94468857Y-75460476D01*
X91968857Y-76650952D02*
X91968857Y-74150952D01*
X90540285Y-76650952D02*
X91611714Y-75222380D01*
X90540285Y-74150952D02*
X91968857Y-75579523D01*
X89111714Y-75222380D02*
X89349809Y-75103333D01*
X89468857Y-74984285D01*
X89587904Y-74746190D01*
X89587904Y-74627142D01*
X89468857Y-74389047D01*
X89349809Y-74270000D01*
X89111714Y-74150952D01*
X88635523Y-74150952D01*
X88397428Y-74270000D01*
X88278380Y-74389047D01*
X88159333Y-74627142D01*
X88159333Y-74746190D01*
X88278380Y-74984285D01*
X88397428Y-75103333D01*
X88635523Y-75222380D01*
X89111714Y-75222380D01*
X89349809Y-75341428D01*
X89468857Y-75460476D01*
X89587904Y-75698571D01*
X89587904Y-76174761D01*
X89468857Y-76412857D01*
X89349809Y-76531904D01*
X89111714Y-76650952D01*
X88635523Y-76650952D01*
X88397428Y-76531904D01*
X88278380Y-76412857D01*
X88159333Y-76174761D01*
X88159333Y-75698571D01*
X88278380Y-75460476D01*
X88397428Y-75341428D01*
X88635523Y-75222380D01*
X86016476Y-74150952D02*
X86492666Y-74150952D01*
X86730761Y-74270000D01*
X86849809Y-74389047D01*
X87087904Y-74746190D01*
X87206952Y-75222380D01*
X87206952Y-76174761D01*
X87087904Y-76412857D01*
X86968857Y-76531904D01*
X86730761Y-76650952D01*
X86254571Y-76650952D01*
X86016476Y-76531904D01*
X85897428Y-76412857D01*
X85778380Y-76174761D01*
X85778380Y-75579523D01*
X85897428Y-75341428D01*
X86016476Y-75222380D01*
X86254571Y-75103333D01*
X86730761Y-75103333D01*
X86968857Y-75222380D01*
X87087904Y-75341428D01*
X87206952Y-75579523D01*
X84706952Y-75698571D02*
X82802190Y-75698571D01*
X80778380Y-75341428D02*
X81611714Y-75341428D01*
X81611714Y-76650952D02*
X81611714Y-74150952D01*
X80421238Y-74150952D01*
X79468857Y-76650952D02*
X79468857Y-74150952D01*
X78873619Y-74150952D01*
X78516476Y-74270000D01*
X78278380Y-74508095D01*
X78159333Y-74746190D01*
X78040285Y-75222380D01*
X78040285Y-75579523D01*
X78159333Y-76055714D01*
X78278380Y-76293809D01*
X78516476Y-76531904D01*
X78873619Y-76650952D01*
X79468857Y-76650952D01*
X73635523Y-76412857D02*
X73754571Y-76531904D01*
X74111714Y-76650952D01*
X74349809Y-76650952D01*
X74706952Y-76531904D01*
X74945047Y-76293809D01*
X75064095Y-76055714D01*
X75183142Y-75579523D01*
X75183142Y-75222380D01*
X75064095Y-74746190D01*
X74945047Y-74508095D01*
X74706952Y-74270000D01*
X74349809Y-74150952D01*
X74111714Y-74150952D01*
X73754571Y-74270000D01*
X73635523Y-74389047D01*
X72206952Y-76650952D02*
X72445047Y-76531904D01*
X72564095Y-76412857D01*
X72683142Y-76174761D01*
X72683142Y-75460476D01*
X72564095Y-75222380D01*
X72445047Y-75103333D01*
X72206952Y-74984285D01*
X71849809Y-74984285D01*
X71611714Y-75103333D01*
X71492666Y-75222380D01*
X71373619Y-75460476D01*
X71373619Y-76174761D01*
X71492666Y-76412857D01*
X71611714Y-76531904D01*
X71849809Y-76650952D01*
X72206952Y-76650952D01*
X70302190Y-74984285D02*
X70302190Y-76650952D01*
X70302190Y-75222380D02*
X70183142Y-75103333D01*
X69945047Y-74984285D01*
X69587904Y-74984285D01*
X69349809Y-75103333D01*
X69230761Y-75341428D01*
X69230761Y-76650952D01*
X68397428Y-74984285D02*
X67445047Y-74984285D01*
X68040285Y-74150952D02*
X68040285Y-76293809D01*
X67921238Y-76531904D01*
X67683142Y-76650952D01*
X67445047Y-76650952D01*
X66611714Y-76650952D02*
X66611714Y-74984285D01*
X66611714Y-75460476D02*
X66492666Y-75222380D01*
X66373619Y-75103333D01*
X66135523Y-74984285D01*
X65897428Y-74984285D01*
X64706952Y-76650952D02*
X64945047Y-76531904D01*
X65064095Y-76412857D01*
X65183142Y-76174761D01*
X65183142Y-75460476D01*
X65064095Y-75222380D01*
X64945047Y-75103333D01*
X64706952Y-74984285D01*
X64349809Y-74984285D01*
X64111714Y-75103333D01*
X63992666Y-75222380D01*
X63873619Y-75460476D01*
X63873619Y-76174761D01*
X63992666Y-76412857D01*
X64111714Y-76531904D01*
X64349809Y-76650952D01*
X64706952Y-76650952D01*
X62445047Y-76650952D02*
X62683142Y-76531904D01*
X62802190Y-76293809D01*
X62802190Y-74150952D01*
X61135523Y-76650952D02*
X61373619Y-76531904D01*
X61492666Y-76293809D01*
X61492666Y-74150952D01*
X59230761Y-76531904D02*
X59468857Y-76650952D01*
X59945047Y-76650952D01*
X60183142Y-76531904D01*
X60302190Y-76293809D01*
X60302190Y-75341428D01*
X60183142Y-75103333D01*
X59945047Y-74984285D01*
X59468857Y-74984285D01*
X59230761Y-75103333D01*
X59111714Y-75341428D01*
X59111714Y-75579523D01*
X60302190Y-75817619D01*
X58040285Y-76650952D02*
X58040285Y-74984285D01*
X58040285Y-75460476D02*
X57921238Y-75222380D01*
X57802190Y-75103333D01*
X57564095Y-74984285D01*
X57326000Y-74984285D01*
D12*
X104651000Y-83297800D02*
X101201000Y-83297800D01*
X104651000Y-83297800D02*
X106601000Y-83297800D01*
X104651000Y-73177800D02*
X102701000Y-73177800D01*
X104651000Y-73177800D02*
X106601000Y-73177800D01*
X120297000Y-83361300D02*
X116847000Y-83361300D01*
X120297000Y-83361300D02*
X122247000Y-83361300D01*
X120297000Y-73241300D02*
X118347000Y-73241300D01*
X120297000Y-73241300D02*
X122247000Y-73241300D01*
X112398000Y-99005000D02*
X108948000Y-99005000D01*
X112398000Y-99005000D02*
X114348000Y-99005000D01*
X112398000Y-90135000D02*
X110448000Y-90135000D01*
X112398000Y-90135000D02*
X114348000Y-90135000D01*
X111955000Y-119325000D02*
X108505000Y-119325000D01*
X111955000Y-119325000D02*
X113905000Y-119325000D01*
X111955000Y-110455000D02*
X110005000Y-110455000D01*
X111955000Y-110455000D02*
X113905000Y-110455000D01*
D13*
X106365285Y-84590180D02*
X106365285Y-83590180D01*
X106127190Y-83590180D01*
X105984333Y-83637800D01*
X105889095Y-83733038D01*
X105841476Y-83828276D01*
X105793857Y-84018752D01*
X105793857Y-84161609D01*
X105841476Y-84352085D01*
X105889095Y-84447323D01*
X105984333Y-84542561D01*
X106127190Y-84590180D01*
X106365285Y-84590180D01*
X105365285Y-84590180D02*
X105365285Y-83590180D01*
X105127190Y-83590180D01*
X104984333Y-83637800D01*
X104889095Y-83733038D01*
X104841476Y-83828276D01*
X104793857Y-84018752D01*
X104793857Y-84161609D01*
X104841476Y-84352085D01*
X104889095Y-84447323D01*
X104984333Y-84542561D01*
X105127190Y-84590180D01*
X105365285Y-84590180D01*
X103841476Y-84590180D02*
X104412904Y-84590180D01*
X104127190Y-84590180D02*
X104127190Y-83590180D01*
X104222428Y-83733038D01*
X104317666Y-83828276D01*
X104412904Y-83875895D01*
X103222428Y-83590180D02*
X103127190Y-83590180D01*
X103031952Y-83637800D01*
X102984333Y-83685419D01*
X102936714Y-83780657D01*
X102889095Y-83971133D01*
X102889095Y-84209228D01*
X102936714Y-84399704D01*
X102984333Y-84494942D01*
X103031952Y-84542561D01*
X103127190Y-84590180D01*
X103222428Y-84590180D01*
X103317666Y-84542561D01*
X103365285Y-84494942D01*
X103412904Y-84399704D01*
X103460523Y-84209228D01*
X103460523Y-83971133D01*
X103412904Y-83780657D01*
X103365285Y-83685419D01*
X103317666Y-83637800D01*
X103222428Y-83590180D01*
X104103380Y-75118752D02*
X104103380Y-75785419D01*
X105103380Y-75356847D01*
X104436714Y-76594942D02*
X105103380Y-76594942D01*
X104055761Y-76356847D02*
X104770047Y-76118752D01*
X104770047Y-76737800D01*
X105103380Y-77594942D02*
X105103380Y-77118752D01*
X104103380Y-77118752D01*
X105055761Y-77880657D02*
X105103380Y-78023514D01*
X105103380Y-78261609D01*
X105055761Y-78356847D01*
X105008142Y-78404466D01*
X104912904Y-78452085D01*
X104817666Y-78452085D01*
X104722428Y-78404466D01*
X104674809Y-78356847D01*
X104627190Y-78261609D01*
X104579571Y-78071133D01*
X104531952Y-77975895D01*
X104484333Y-77928276D01*
X104389095Y-77880657D01*
X104293857Y-77880657D01*
X104198619Y-77928276D01*
X104151000Y-77975895D01*
X104103380Y-78071133D01*
X104103380Y-78309228D01*
X104151000Y-78452085D01*
X105103380Y-79404466D02*
X105103380Y-78833038D01*
X105103380Y-79118752D02*
X104103380Y-79118752D01*
X104246238Y-79023514D01*
X104341476Y-78928276D01*
X104389095Y-78833038D01*
X104103380Y-80309228D02*
X104103380Y-79833038D01*
X104579571Y-79785419D01*
X104531952Y-79833038D01*
X104484333Y-79928276D01*
X104484333Y-80166371D01*
X104531952Y-80261609D01*
X104579571Y-80309228D01*
X104674809Y-80356847D01*
X104912904Y-80356847D01*
X105008142Y-80309228D01*
X105055761Y-80261609D01*
X105103380Y-80166371D01*
X105103380Y-79928276D01*
X105055761Y-79833038D01*
X105008142Y-79785419D01*
X104103380Y-81261609D02*
X104103380Y-80785419D01*
X104579571Y-80737800D01*
X104531952Y-80785419D01*
X104484333Y-80880657D01*
X104484333Y-81118752D01*
X104531952Y-81213990D01*
X104579571Y-81261609D01*
X104674809Y-81309228D01*
X104912904Y-81309228D01*
X105008142Y-81261609D01*
X105055761Y-81213990D01*
X105103380Y-81118752D01*
X105103380Y-80880657D01*
X105055761Y-80785419D01*
X105008142Y-80737800D01*
X121535095Y-84653680D02*
X121535095Y-83653680D01*
X121297000Y-83653680D01*
X121154142Y-83701300D01*
X121058904Y-83796538D01*
X121011285Y-83891776D01*
X120963666Y-84082252D01*
X120963666Y-84225109D01*
X121011285Y-84415585D01*
X121058904Y-84510823D01*
X121154142Y-84606061D01*
X121297000Y-84653680D01*
X121535095Y-84653680D01*
X120535095Y-84653680D02*
X120535095Y-83653680D01*
X120297000Y-83653680D01*
X120154142Y-83701300D01*
X120058904Y-83796538D01*
X120011285Y-83891776D01*
X119963666Y-84082252D01*
X119963666Y-84225109D01*
X120011285Y-84415585D01*
X120058904Y-84510823D01*
X120154142Y-84606061D01*
X120297000Y-84653680D01*
X120535095Y-84653680D01*
X119487476Y-84653680D02*
X119297000Y-84653680D01*
X119201761Y-84606061D01*
X119154142Y-84558442D01*
X119058904Y-84415585D01*
X119011285Y-84225109D01*
X119011285Y-83844157D01*
X119058904Y-83748919D01*
X119106523Y-83701300D01*
X119201761Y-83653680D01*
X119392238Y-83653680D01*
X119487476Y-83701300D01*
X119535095Y-83748919D01*
X119582714Y-83844157D01*
X119582714Y-84082252D01*
X119535095Y-84177490D01*
X119487476Y-84225109D01*
X119392238Y-84272728D01*
X119201761Y-84272728D01*
X119106523Y-84225109D01*
X119058904Y-84177490D01*
X119011285Y-84082252D01*
X120997019Y-81166347D02*
X120997019Y-80499680D01*
X119997019Y-80928252D01*
X120663685Y-79690157D02*
X119997019Y-79690157D01*
X121044638Y-79928252D02*
X120330352Y-80166347D01*
X120330352Y-79547300D01*
X119997019Y-78690157D02*
X119997019Y-79166347D01*
X120997019Y-79166347D01*
X120044638Y-78404442D02*
X119997019Y-78261585D01*
X119997019Y-78023490D01*
X120044638Y-77928252D01*
X120092257Y-77880633D01*
X120187495Y-77833014D01*
X120282733Y-77833014D01*
X120377971Y-77880633D01*
X120425590Y-77928252D01*
X120473209Y-78023490D01*
X120520828Y-78213966D01*
X120568447Y-78309204D01*
X120616066Y-78356823D01*
X120711304Y-78404442D01*
X120806542Y-78404442D01*
X120901780Y-78356823D01*
X120949400Y-78309204D01*
X120997019Y-78213966D01*
X120997019Y-77975871D01*
X120949400Y-77833014D01*
X119997019Y-76880633D02*
X119997019Y-77452061D01*
X119997019Y-77166347D02*
X120997019Y-77166347D01*
X120854161Y-77261585D01*
X120758923Y-77356823D01*
X120711304Y-77452061D01*
X119997019Y-76404442D02*
X119997019Y-76213966D01*
X120044638Y-76118728D01*
X120092257Y-76071109D01*
X120235114Y-75975871D01*
X120425590Y-75928252D01*
X120806542Y-75928252D01*
X120901780Y-75975871D01*
X120949400Y-76023490D01*
X120997019Y-76118728D01*
X120997019Y-76309204D01*
X120949400Y-76404442D01*
X120901780Y-76452061D01*
X120806542Y-76499680D01*
X120568447Y-76499680D01*
X120473209Y-76452061D01*
X120425590Y-76404442D01*
X120377971Y-76309204D01*
X120377971Y-76118728D01*
X120425590Y-76023490D01*
X120473209Y-75975871D01*
X120568447Y-75928252D01*
X120997019Y-75594919D02*
X120997019Y-74975871D01*
X120616066Y-75309204D01*
X120616066Y-75166347D01*
X120568447Y-75071109D01*
X120520828Y-75023490D01*
X120425590Y-74975871D01*
X120187495Y-74975871D01*
X120092257Y-75023490D01*
X120044638Y-75071109D01*
X119997019Y-75166347D01*
X119997019Y-75452061D01*
X120044638Y-75547300D01*
X120092257Y-75594919D01*
X113636095Y-100302380D02*
X113636095Y-99302380D01*
X113398000Y-99302380D01*
X113255142Y-99350000D01*
X113159904Y-99445238D01*
X113112285Y-99540476D01*
X113064666Y-99730952D01*
X113064666Y-99873809D01*
X113112285Y-100064285D01*
X113159904Y-100159523D01*
X113255142Y-100254761D01*
X113398000Y-100302380D01*
X113636095Y-100302380D01*
X112636095Y-100302380D02*
X112636095Y-99302380D01*
X112398000Y-99302380D01*
X112255142Y-99350000D01*
X112159904Y-99445238D01*
X112112285Y-99540476D01*
X112064666Y-99730952D01*
X112064666Y-99873809D01*
X112112285Y-100064285D01*
X112159904Y-100159523D01*
X112255142Y-100254761D01*
X112398000Y-100302380D01*
X112636095Y-100302380D01*
X111493238Y-99730952D02*
X111588476Y-99683333D01*
X111636095Y-99635714D01*
X111683714Y-99540476D01*
X111683714Y-99492857D01*
X111636095Y-99397619D01*
X111588476Y-99350000D01*
X111493238Y-99302380D01*
X111302761Y-99302380D01*
X111207523Y-99350000D01*
X111159904Y-99397619D01*
X111112285Y-99492857D01*
X111112285Y-99540476D01*
X111159904Y-99635714D01*
X111207523Y-99683333D01*
X111302761Y-99730952D01*
X111493238Y-99730952D01*
X111588476Y-99778571D01*
X111636095Y-99826190D01*
X111683714Y-99921428D01*
X111683714Y-100111904D01*
X111636095Y-100207142D01*
X111588476Y-100254761D01*
X111493238Y-100302380D01*
X111302761Y-100302380D01*
X111207523Y-100254761D01*
X111159904Y-100207142D01*
X111112285Y-100111904D01*
X111112285Y-99921428D01*
X111159904Y-99826190D01*
X111207523Y-99778571D01*
X111302761Y-99730952D01*
X111850380Y-91927142D02*
X111850380Y-92593809D01*
X112850380Y-92165238D01*
X112183714Y-93403333D02*
X112850380Y-93403333D01*
X111802761Y-93165238D02*
X112517047Y-92927142D01*
X112517047Y-93546190D01*
X112850380Y-94403333D02*
X112850380Y-93927142D01*
X111850380Y-93927142D01*
X112802761Y-94689047D02*
X112850380Y-94831904D01*
X112850380Y-95070000D01*
X112802761Y-95165238D01*
X112755142Y-95212857D01*
X112659904Y-95260476D01*
X112564666Y-95260476D01*
X112469428Y-95212857D01*
X112421809Y-95165238D01*
X112374190Y-95070000D01*
X112326571Y-94879523D01*
X112278952Y-94784285D01*
X112231333Y-94736666D01*
X112136095Y-94689047D01*
X112040857Y-94689047D01*
X111945619Y-94736666D01*
X111898000Y-94784285D01*
X111850380Y-94879523D01*
X111850380Y-95117619D01*
X111898000Y-95260476D01*
X112850380Y-95736666D02*
X112850380Y-95927142D01*
X112802761Y-96022380D01*
X112755142Y-96070000D01*
X112612285Y-96165238D01*
X112421809Y-96212857D01*
X112040857Y-96212857D01*
X111945619Y-96165238D01*
X111898000Y-96117619D01*
X111850380Y-96022380D01*
X111850380Y-95831904D01*
X111898000Y-95736666D01*
X111945619Y-95689047D01*
X112040857Y-95641428D01*
X112278952Y-95641428D01*
X112374190Y-95689047D01*
X112421809Y-95736666D01*
X112469428Y-95831904D01*
X112469428Y-96022380D01*
X112421809Y-96117619D01*
X112374190Y-96165238D01*
X112278952Y-96212857D01*
X111850380Y-96546190D02*
X111850380Y-97165238D01*
X112231333Y-96831904D01*
X112231333Y-96974761D01*
X112278952Y-97070000D01*
X112326571Y-97117619D01*
X112421809Y-97165238D01*
X112659904Y-97165238D01*
X112755142Y-97117619D01*
X112802761Y-97070000D01*
X112850380Y-96974761D01*
X112850380Y-96689047D01*
X112802761Y-96593809D01*
X112755142Y-96546190D01*
X113193095Y-120622380D02*
X113193095Y-119622380D01*
X112955000Y-119622380D01*
X112812142Y-119670000D01*
X112716904Y-119765238D01*
X112669285Y-119860476D01*
X112621666Y-120050952D01*
X112621666Y-120193809D01*
X112669285Y-120384285D01*
X112716904Y-120479523D01*
X112812142Y-120574761D01*
X112955000Y-120622380D01*
X113193095Y-120622380D01*
X112193095Y-120622380D02*
X112193095Y-119622380D01*
X111955000Y-119622380D01*
X111812142Y-119670000D01*
X111716904Y-119765238D01*
X111669285Y-119860476D01*
X111621666Y-120050952D01*
X111621666Y-120193809D01*
X111669285Y-120384285D01*
X111716904Y-120479523D01*
X111812142Y-120574761D01*
X111955000Y-120622380D01*
X112193095Y-120622380D01*
X111288333Y-119622380D02*
X110621666Y-119622380D01*
X111050238Y-120622380D01*
X111407380Y-111739142D02*
X111407380Y-112405809D01*
X112407380Y-111977238D01*
X111740714Y-113215333D02*
X112407380Y-113215333D01*
X111359761Y-112977238D02*
X112074047Y-112739142D01*
X112074047Y-113358190D01*
X112407380Y-114215333D02*
X112407380Y-113739142D01*
X111407380Y-113739142D01*
X112359761Y-114501047D02*
X112407380Y-114643904D01*
X112407380Y-114882000D01*
X112359761Y-114977238D01*
X112312142Y-115024857D01*
X112216904Y-115072476D01*
X112121666Y-115072476D01*
X112026428Y-115024857D01*
X111978809Y-114977238D01*
X111931190Y-114882000D01*
X111883571Y-114691523D01*
X111835952Y-114596285D01*
X111788333Y-114548666D01*
X111693095Y-114501047D01*
X111597857Y-114501047D01*
X111502619Y-114548666D01*
X111455000Y-114596285D01*
X111407380Y-114691523D01*
X111407380Y-114929619D01*
X111455000Y-115072476D01*
X112407380Y-115548666D02*
X112407380Y-115739142D01*
X112359761Y-115834380D01*
X112312142Y-115882000D01*
X112169285Y-115977238D01*
X111978809Y-116024857D01*
X111597857Y-116024857D01*
X111502619Y-115977238D01*
X111455000Y-115929619D01*
X111407380Y-115834380D01*
X111407380Y-115643904D01*
X111455000Y-115548666D01*
X111502619Y-115501047D01*
X111597857Y-115453428D01*
X111835952Y-115453428D01*
X111931190Y-115501047D01*
X111978809Y-115548666D01*
X112026428Y-115643904D01*
X112026428Y-115834380D01*
X111978809Y-115929619D01*
X111931190Y-115977238D01*
X111835952Y-116024857D01*
X111407380Y-116358190D02*
X111407380Y-116977238D01*
X111788333Y-116643904D01*
X111788333Y-116786761D01*
X111835952Y-116882000D01*
X111883571Y-116929619D01*
X111978809Y-116977238D01*
X112216904Y-116977238D01*
X112312142Y-116929619D01*
X112359761Y-116882000D01*
X112407380Y-116786761D01*
X112407380Y-116501047D01*
X112359761Y-116405809D01*
X112312142Y-116358190D01*
M02*
