M48
; DRILL file {KiCad (5.1.5)-3} date 8/1/2020 9:28:50 PM
; FORMAT={-:-/ absolute / inch / decimal}
; #@! TF.CreationDate,2020-08-01T21:28:50-07:00
; #@! TF.GenerationSoftware,Kicad,Pcbnew,(5.1.5)-3
FMAT,2
INCH
T1C0.0197
T2C0.0300
T3C0.0315
T4C0.0354
T5C0.0400
%
G90
G05
T1
X2.1688Y-3.0726
X2.2474Y-3.0522
X2.2931Y-3.1282
X2.2946Y-3.0638
X2.3421Y-3.4245
X2.3781Y-4.8513
X2.4574Y-2.8377
X2.5293Y-4.8874
X2.5719Y-3.5523
X2.5826Y-4.481
X2.646Y-3.8369
X2.6936Y-3.4961
X2.7719Y-2.7721
X2.8263Y-2.5377
X2.8641Y-3.6053
X2.8652Y-3.6793
X2.8897Y-4.3326
X2.9497Y-2.7061
X3.0471Y-3.0915
X3.0807Y-2.7674
X3.1001Y-3.3016
X3.1026Y-4.0805
X3.1102Y-2.9782
X3.1371Y-3.4147
X3.1424Y-3.0178
X3.1458Y-2.7295
X3.1567Y-4.1551
X3.185Y-3.8427
X3.2208Y-3.4906
X3.2602Y-3.5791
X3.2652Y-3.1203
X3.3164Y-3.1973
X3.354Y-3.4155
X3.3654Y-3.8257
X3.3655Y-2.9645
X3.3775Y-3.0586
X3.4414Y-3.5603
X3.4883Y-3.34
X3.5381Y-3.3353
X3.5571Y-3.7395
X3.6299Y-2.8669
X3.6329Y-3.427
X3.6334Y-4.4801
X3.6512Y-2.3414
X3.687Y-2.8233
X3.6877Y-4.8421
X3.6969Y-4.7913
X3.7334Y-2.22
X3.7396Y-4.4871
X3.7842Y-4.8959
X3.7848Y-3.3632
X3.7848Y-3.6991
X3.7947Y-4.746
X3.8617Y-4.3778
X3.9267Y-3.2897
X3.9926Y-3.384
X4.0148Y-4.7491
X4.0366Y-4.2236
X4.037Y-3.5732
X4.037Y-4.1216
X4.0601Y-2.8227
X4.0667Y-4.7233
X4.0751Y-4.6232
X4.0786Y-4.4732
X4.1034Y-3.9578
X4.1378Y-3.5164
X4.1823Y-3.3239
X4.2137Y-4.2807
X4.2333Y-4.529
X4.2588Y-2.83
X4.2606Y-4.33
X4.2988Y-3.2668
X4.3005Y-2.8049
X4.3223Y-3.5336
X4.3302Y-2.9599
X4.3576Y-3.4664
X4.3858Y-2.9152
X4.4286Y-3.6657
X4.4297Y-3.7781
X4.4346Y-2.394
X4.4526Y-3.0509
X4.4526Y-3.1931
X4.4635Y-4.7308
X4.4743Y-3.2404
X4.4853Y-3.3229
X4.55Y-2.4301
X4.5603Y-2.9998
X4.5726Y-4.5732
X4.5855Y-2.8427
X4.6143Y-4.4103
X4.6387Y-3.2973
X4.6519Y-4.5001
X4.6738Y-3.377
X4.6809Y-4.3653
X4.6815Y-3.6251
X4.6853Y-4.5975
X4.7066Y-3.5326
X4.7572Y-4.7139
X4.7667Y-3.2487
X4.8137Y-2.4632
X4.8157Y-2.3117
X4.818Y-3.9873
X4.8216Y-4.5724
X4.8319Y-3.4983
X4.8335Y-2.7431
X4.8383Y-4.4939
X4.9173Y-2.8617
X4.9541Y-4.7133
X4.961Y-4.0953
X5.0093Y-3.8232
X5.0096Y-4.4815
T2
X2.4251Y-3.548
X2.4251Y-3.6464
X2.4251Y-3.7448
X2.4251Y-3.8432
X2.4251Y-3.9417
X2.4251Y-4.0401
X2.4251Y-4.1385
X2.4251Y-4.2369
X2.4251Y-4.3354
X2.4251Y-4.4338
X2.4251Y-4.5322
X2.4251Y-4.6306
X3.0157Y-3.548
X3.0157Y-3.6464
X3.0157Y-3.7448
X3.0157Y-3.8432
X3.0157Y-3.9417
X3.0157Y-4.0401
X3.0157Y-4.1385
X3.0157Y-4.2369
X3.0157Y-4.3354
X3.0157Y-4.4338
X3.0157Y-4.5322
X3.0157Y-4.6306
X2.4701Y-2.048
X2.4701Y-2.6385
X2.5685Y-2.048
X2.5685Y-2.6385
X2.6669Y-2.048
X2.6669Y-2.6385
X2.7654Y-2.048
X2.7654Y-2.6385
X2.8638Y-2.048
X2.8638Y-2.6385
X2.9622Y-2.048
X2.9622Y-2.6385
X3.0606Y-2.048
X3.0606Y-2.6385
X3.1591Y-2.048
X3.1591Y-2.6385
X3.2575Y-2.048
X3.2575Y-2.6385
X3.3559Y-2.048
X3.3559Y-2.6385
X3.4543Y-2.048
X3.4543Y-2.6385
X3.5528Y-2.048
X3.5528Y-2.6385
X3.6512Y-2.048
X3.6512Y-2.6385
X3.7496Y-2.048
X3.7496Y-2.6385
X3.848Y-2.048
X3.848Y-2.6385
X3.9465Y-2.048
X3.9465Y-2.6385
X4.0449Y-2.048
X4.0449Y-2.6385
X4.1433Y-2.048
X4.1433Y-2.6385
X4.2417Y-2.048
X4.2417Y-2.6385
X4.3402Y-2.048
X4.3402Y-2.6385
T3
X2.1267Y-3.4232
X2.2267Y-3.4232
X2.1251Y-3.7432
X2.2251Y-3.7432
X4.6823Y-4.1232
X4.8791Y-4.1232
X2.1251Y-3.9982
X2.2251Y-3.9982
X2.1251Y-3.5832
X2.2251Y-3.5832
X3.3272Y-3.4736
X3.3272Y-3.5736
X3.3272Y-3.6736
X3.3272Y-3.7736
X3.3272Y-3.8736
X3.3272Y-3.9736
X3.3272Y-4.0736
X3.3272Y-4.1736
X3.3272Y-4.2736
X3.3272Y-4.3736
X3.3272Y-4.4736
X3.3272Y-4.5736
X3.3272Y-4.6736
X3.3272Y-4.7736
X3.9272Y-3.4736
X3.9272Y-3.5736
X3.9272Y-3.6736
X3.9272Y-3.7736
X3.9272Y-3.8736
X3.9272Y-3.9736
X3.9272Y-4.0736
X3.9272Y-4.1736
X3.9272Y-4.2736
X3.9272Y-4.3736
X3.9272Y-4.4736
X3.9272Y-4.5736
X3.9272Y-4.6736
X3.9272Y-4.7736
X1.8051Y-4.6232
X1.8051Y-4.7232
X4.3012Y-4.1222
X4.4012Y-4.1222
X3.8091Y-2.9823
X3.8091Y-3.1791
X2.1241Y-2.4222
X2.2241Y-2.4222
X2.1949Y-4.2224
X2.1949Y-4.4193
X2.1267Y-3.2632
X2.2267Y-3.2632
T4
X1.9651Y-4.6232
X1.9651Y-4.7232
X1.9606Y-4.1142
X1.9606Y-4.2126
X1.9606Y-4.311
X1.9606Y-4.4094
X2.1051Y-4.6232
X2.1051Y-4.7232
T5
X1.8251Y-2.1232
X1.8251Y-2.2232
X1.8251Y-2.3232
X1.8251Y-2.4232
X1.8251Y-2.5232
X1.8251Y-2.6232
X1.8251Y-2.7232
X1.8251Y-2.8232
X1.8251Y-2.9232
X1.8251Y-3.0232
X1.8251Y-3.1232
X1.8251Y-3.2232
X1.8251Y-3.3232
X1.8251Y-3.4232
X1.8251Y-3.5232
X1.8251Y-3.6232
X1.8251Y-3.7232
X1.9251Y-2.1232
X1.9251Y-2.2232
X1.9251Y-2.3232
X1.9251Y-2.4232
X1.9251Y-2.5232
X1.9251Y-2.6232
X1.9251Y-2.7232
X1.9251Y-2.8232
X1.9251Y-2.9232
X1.9251Y-3.0232
X1.9251Y-3.1232
X1.9251Y-3.2232
X1.9251Y-3.3232
X1.9251Y-3.4232
X1.9251Y-3.5232
X1.9251Y-3.6232
X1.9251Y-3.7232
T0
M30
