G04 #@! TF.GenerationSoftware,KiCad,Pcbnew,(5.1.5)-3*
G04 #@! TF.CreationDate,2020-09-13T19:19:07-07:00*
G04 #@! TF.ProjectId,rk86kngmd,726b3836-6b6e-4676-9d64-2e6b69636164,rev?*
G04 #@! TF.SameCoordinates,Original*
G04 #@! TF.FileFunction,Soldermask,Bot*
G04 #@! TF.FilePolarity,Negative*
%FSLAX46Y46*%
G04 Gerber Fmt 4.6, Leading zero omitted, Abs format (unit mm)*
G04 Created by KiCad (PCBNEW (5.1.5)-3) date 2020-09-13 19:19:07*
%MOMM*%
%LPD*%
G04 APERTURE LIST*
%ADD10R,1.408000X1.408000*%
%ADD11C,1.408000*%
%ADD12O,1.600000X1.600000*%
%ADD13R,1.600000X1.600000*%
%ADD14R,1.500000X14.000000*%
%ADD15C,0.100000*%
%ADD16O,1.727200X1.727200*%
%ADD17R,1.727200X1.727200*%
%ADD18C,1.500000*%
G04 APERTURE END LIST*
D10*
X49800000Y-112000000D03*
D11*
X49800000Y-109500000D03*
X49800000Y-107000000D03*
X49800000Y-104500000D03*
D12*
X84510000Y-121250000D03*
X99750000Y-88230000D03*
X84510000Y-118710000D03*
X99750000Y-90770000D03*
X84510000Y-116170000D03*
X99750000Y-93310000D03*
X84510000Y-113630000D03*
X99750000Y-95850000D03*
X84510000Y-111090000D03*
X99750000Y-98390000D03*
X84510000Y-108550000D03*
X99750000Y-100930000D03*
X84510000Y-106010000D03*
X99750000Y-103470000D03*
X84510000Y-103470000D03*
X99750000Y-106010000D03*
X84510000Y-100930000D03*
X99750000Y-108550000D03*
X84510000Y-98390000D03*
X99750000Y-111090000D03*
X84510000Y-95850000D03*
X99750000Y-113630000D03*
X84510000Y-93310000D03*
X99750000Y-116170000D03*
X84510000Y-90770000D03*
X99750000Y-118710000D03*
X84510000Y-88230000D03*
D13*
X99750000Y-121250000D03*
D14*
X112706000Y-132162000D03*
X117706000Y-132162000D03*
X115206000Y-132162000D03*
X120206000Y-132162000D03*
X122706000Y-132162000D03*
X57706000Y-132162000D03*
X50206000Y-132162000D03*
X62706000Y-132162000D03*
X65206000Y-132162000D03*
X60206000Y-132162000D03*
X55206000Y-132162000D03*
X52706000Y-132162000D03*
X105206000Y-132162000D03*
X102706000Y-132162000D03*
X107706000Y-132162000D03*
X100206000Y-132162000D03*
X110206000Y-132162000D03*
X75206000Y-132162000D03*
X70206000Y-132162000D03*
X77706000Y-132162000D03*
X67706000Y-132162000D03*
X72706000Y-132162000D03*
X80206000Y-132162000D03*
X90206000Y-132162000D03*
X95206000Y-132162000D03*
X92706000Y-132162000D03*
X97706000Y-132162000D03*
X85206000Y-132162000D03*
X82706000Y-132162000D03*
X87706000Y-132162000D03*
D15*
G36*
X107965703Y-82383522D02*
G01*
X107980264Y-82385682D01*
X107994543Y-82389259D01*
X108008403Y-82394218D01*
X108021710Y-82400512D01*
X108034336Y-82408080D01*
X108046159Y-82416848D01*
X108057066Y-82426734D01*
X108066952Y-82437641D01*
X108075720Y-82449464D01*
X108083288Y-82462090D01*
X108089582Y-82475397D01*
X108094541Y-82489257D01*
X108098118Y-82503536D01*
X108100278Y-82518097D01*
X108101000Y-82532800D01*
X108101000Y-82832800D01*
X108100278Y-82847503D01*
X108098118Y-82862064D01*
X108094541Y-82876343D01*
X108089582Y-82890203D01*
X108083288Y-82903510D01*
X108075720Y-82916136D01*
X108066952Y-82927959D01*
X108057066Y-82938866D01*
X108046159Y-82948752D01*
X108034336Y-82957520D01*
X108021710Y-82965088D01*
X108008403Y-82971382D01*
X107994543Y-82976341D01*
X107980264Y-82979918D01*
X107965703Y-82982078D01*
X107951000Y-82982800D01*
X106301000Y-82982800D01*
X106286297Y-82982078D01*
X106271736Y-82979918D01*
X106257457Y-82976341D01*
X106243597Y-82971382D01*
X106230290Y-82965088D01*
X106217664Y-82957520D01*
X106205841Y-82948752D01*
X106194934Y-82938866D01*
X106185048Y-82927959D01*
X106176280Y-82916136D01*
X106168712Y-82903510D01*
X106162418Y-82890203D01*
X106157459Y-82876343D01*
X106153882Y-82862064D01*
X106151722Y-82847503D01*
X106151000Y-82832800D01*
X106151000Y-82532800D01*
X106151722Y-82518097D01*
X106153882Y-82503536D01*
X106157459Y-82489257D01*
X106162418Y-82475397D01*
X106168712Y-82462090D01*
X106176280Y-82449464D01*
X106185048Y-82437641D01*
X106194934Y-82426734D01*
X106205841Y-82416848D01*
X106217664Y-82408080D01*
X106230290Y-82400512D01*
X106243597Y-82394218D01*
X106257457Y-82389259D01*
X106271736Y-82385682D01*
X106286297Y-82383522D01*
X106301000Y-82382800D01*
X107951000Y-82382800D01*
X107965703Y-82383522D01*
G37*
G36*
X107965703Y-81113522D02*
G01*
X107980264Y-81115682D01*
X107994543Y-81119259D01*
X108008403Y-81124218D01*
X108021710Y-81130512D01*
X108034336Y-81138080D01*
X108046159Y-81146848D01*
X108057066Y-81156734D01*
X108066952Y-81167641D01*
X108075720Y-81179464D01*
X108083288Y-81192090D01*
X108089582Y-81205397D01*
X108094541Y-81219257D01*
X108098118Y-81233536D01*
X108100278Y-81248097D01*
X108101000Y-81262800D01*
X108101000Y-81562800D01*
X108100278Y-81577503D01*
X108098118Y-81592064D01*
X108094541Y-81606343D01*
X108089582Y-81620203D01*
X108083288Y-81633510D01*
X108075720Y-81646136D01*
X108066952Y-81657959D01*
X108057066Y-81668866D01*
X108046159Y-81678752D01*
X108034336Y-81687520D01*
X108021710Y-81695088D01*
X108008403Y-81701382D01*
X107994543Y-81706341D01*
X107980264Y-81709918D01*
X107965703Y-81712078D01*
X107951000Y-81712800D01*
X106301000Y-81712800D01*
X106286297Y-81712078D01*
X106271736Y-81709918D01*
X106257457Y-81706341D01*
X106243597Y-81701382D01*
X106230290Y-81695088D01*
X106217664Y-81687520D01*
X106205841Y-81678752D01*
X106194934Y-81668866D01*
X106185048Y-81657959D01*
X106176280Y-81646136D01*
X106168712Y-81633510D01*
X106162418Y-81620203D01*
X106157459Y-81606343D01*
X106153882Y-81592064D01*
X106151722Y-81577503D01*
X106151000Y-81562800D01*
X106151000Y-81262800D01*
X106151722Y-81248097D01*
X106153882Y-81233536D01*
X106157459Y-81219257D01*
X106162418Y-81205397D01*
X106168712Y-81192090D01*
X106176280Y-81179464D01*
X106185048Y-81167641D01*
X106194934Y-81156734D01*
X106205841Y-81146848D01*
X106217664Y-81138080D01*
X106230290Y-81130512D01*
X106243597Y-81124218D01*
X106257457Y-81119259D01*
X106271736Y-81115682D01*
X106286297Y-81113522D01*
X106301000Y-81112800D01*
X107951000Y-81112800D01*
X107965703Y-81113522D01*
G37*
G36*
X107965703Y-79843522D02*
G01*
X107980264Y-79845682D01*
X107994543Y-79849259D01*
X108008403Y-79854218D01*
X108021710Y-79860512D01*
X108034336Y-79868080D01*
X108046159Y-79876848D01*
X108057066Y-79886734D01*
X108066952Y-79897641D01*
X108075720Y-79909464D01*
X108083288Y-79922090D01*
X108089582Y-79935397D01*
X108094541Y-79949257D01*
X108098118Y-79963536D01*
X108100278Y-79978097D01*
X108101000Y-79992800D01*
X108101000Y-80292800D01*
X108100278Y-80307503D01*
X108098118Y-80322064D01*
X108094541Y-80336343D01*
X108089582Y-80350203D01*
X108083288Y-80363510D01*
X108075720Y-80376136D01*
X108066952Y-80387959D01*
X108057066Y-80398866D01*
X108046159Y-80408752D01*
X108034336Y-80417520D01*
X108021710Y-80425088D01*
X108008403Y-80431382D01*
X107994543Y-80436341D01*
X107980264Y-80439918D01*
X107965703Y-80442078D01*
X107951000Y-80442800D01*
X106301000Y-80442800D01*
X106286297Y-80442078D01*
X106271736Y-80439918D01*
X106257457Y-80436341D01*
X106243597Y-80431382D01*
X106230290Y-80425088D01*
X106217664Y-80417520D01*
X106205841Y-80408752D01*
X106194934Y-80398866D01*
X106185048Y-80387959D01*
X106176280Y-80376136D01*
X106168712Y-80363510D01*
X106162418Y-80350203D01*
X106157459Y-80336343D01*
X106153882Y-80322064D01*
X106151722Y-80307503D01*
X106151000Y-80292800D01*
X106151000Y-79992800D01*
X106151722Y-79978097D01*
X106153882Y-79963536D01*
X106157459Y-79949257D01*
X106162418Y-79935397D01*
X106168712Y-79922090D01*
X106176280Y-79909464D01*
X106185048Y-79897641D01*
X106194934Y-79886734D01*
X106205841Y-79876848D01*
X106217664Y-79868080D01*
X106230290Y-79860512D01*
X106243597Y-79854218D01*
X106257457Y-79849259D01*
X106271736Y-79845682D01*
X106286297Y-79843522D01*
X106301000Y-79842800D01*
X107951000Y-79842800D01*
X107965703Y-79843522D01*
G37*
G36*
X107965703Y-78573522D02*
G01*
X107980264Y-78575682D01*
X107994543Y-78579259D01*
X108008403Y-78584218D01*
X108021710Y-78590512D01*
X108034336Y-78598080D01*
X108046159Y-78606848D01*
X108057066Y-78616734D01*
X108066952Y-78627641D01*
X108075720Y-78639464D01*
X108083288Y-78652090D01*
X108089582Y-78665397D01*
X108094541Y-78679257D01*
X108098118Y-78693536D01*
X108100278Y-78708097D01*
X108101000Y-78722800D01*
X108101000Y-79022800D01*
X108100278Y-79037503D01*
X108098118Y-79052064D01*
X108094541Y-79066343D01*
X108089582Y-79080203D01*
X108083288Y-79093510D01*
X108075720Y-79106136D01*
X108066952Y-79117959D01*
X108057066Y-79128866D01*
X108046159Y-79138752D01*
X108034336Y-79147520D01*
X108021710Y-79155088D01*
X108008403Y-79161382D01*
X107994543Y-79166341D01*
X107980264Y-79169918D01*
X107965703Y-79172078D01*
X107951000Y-79172800D01*
X106301000Y-79172800D01*
X106286297Y-79172078D01*
X106271736Y-79169918D01*
X106257457Y-79166341D01*
X106243597Y-79161382D01*
X106230290Y-79155088D01*
X106217664Y-79147520D01*
X106205841Y-79138752D01*
X106194934Y-79128866D01*
X106185048Y-79117959D01*
X106176280Y-79106136D01*
X106168712Y-79093510D01*
X106162418Y-79080203D01*
X106157459Y-79066343D01*
X106153882Y-79052064D01*
X106151722Y-79037503D01*
X106151000Y-79022800D01*
X106151000Y-78722800D01*
X106151722Y-78708097D01*
X106153882Y-78693536D01*
X106157459Y-78679257D01*
X106162418Y-78665397D01*
X106168712Y-78652090D01*
X106176280Y-78639464D01*
X106185048Y-78627641D01*
X106194934Y-78616734D01*
X106205841Y-78606848D01*
X106217664Y-78598080D01*
X106230290Y-78590512D01*
X106243597Y-78584218D01*
X106257457Y-78579259D01*
X106271736Y-78575682D01*
X106286297Y-78573522D01*
X106301000Y-78572800D01*
X107951000Y-78572800D01*
X107965703Y-78573522D01*
G37*
G36*
X107965703Y-77303522D02*
G01*
X107980264Y-77305682D01*
X107994543Y-77309259D01*
X108008403Y-77314218D01*
X108021710Y-77320512D01*
X108034336Y-77328080D01*
X108046159Y-77336848D01*
X108057066Y-77346734D01*
X108066952Y-77357641D01*
X108075720Y-77369464D01*
X108083288Y-77382090D01*
X108089582Y-77395397D01*
X108094541Y-77409257D01*
X108098118Y-77423536D01*
X108100278Y-77438097D01*
X108101000Y-77452800D01*
X108101000Y-77752800D01*
X108100278Y-77767503D01*
X108098118Y-77782064D01*
X108094541Y-77796343D01*
X108089582Y-77810203D01*
X108083288Y-77823510D01*
X108075720Y-77836136D01*
X108066952Y-77847959D01*
X108057066Y-77858866D01*
X108046159Y-77868752D01*
X108034336Y-77877520D01*
X108021710Y-77885088D01*
X108008403Y-77891382D01*
X107994543Y-77896341D01*
X107980264Y-77899918D01*
X107965703Y-77902078D01*
X107951000Y-77902800D01*
X106301000Y-77902800D01*
X106286297Y-77902078D01*
X106271736Y-77899918D01*
X106257457Y-77896341D01*
X106243597Y-77891382D01*
X106230290Y-77885088D01*
X106217664Y-77877520D01*
X106205841Y-77868752D01*
X106194934Y-77858866D01*
X106185048Y-77847959D01*
X106176280Y-77836136D01*
X106168712Y-77823510D01*
X106162418Y-77810203D01*
X106157459Y-77796343D01*
X106153882Y-77782064D01*
X106151722Y-77767503D01*
X106151000Y-77752800D01*
X106151000Y-77452800D01*
X106151722Y-77438097D01*
X106153882Y-77423536D01*
X106157459Y-77409257D01*
X106162418Y-77395397D01*
X106168712Y-77382090D01*
X106176280Y-77369464D01*
X106185048Y-77357641D01*
X106194934Y-77346734D01*
X106205841Y-77336848D01*
X106217664Y-77328080D01*
X106230290Y-77320512D01*
X106243597Y-77314218D01*
X106257457Y-77309259D01*
X106271736Y-77305682D01*
X106286297Y-77303522D01*
X106301000Y-77302800D01*
X107951000Y-77302800D01*
X107965703Y-77303522D01*
G37*
G36*
X107965703Y-76033522D02*
G01*
X107980264Y-76035682D01*
X107994543Y-76039259D01*
X108008403Y-76044218D01*
X108021710Y-76050512D01*
X108034336Y-76058080D01*
X108046159Y-76066848D01*
X108057066Y-76076734D01*
X108066952Y-76087641D01*
X108075720Y-76099464D01*
X108083288Y-76112090D01*
X108089582Y-76125397D01*
X108094541Y-76139257D01*
X108098118Y-76153536D01*
X108100278Y-76168097D01*
X108101000Y-76182800D01*
X108101000Y-76482800D01*
X108100278Y-76497503D01*
X108098118Y-76512064D01*
X108094541Y-76526343D01*
X108089582Y-76540203D01*
X108083288Y-76553510D01*
X108075720Y-76566136D01*
X108066952Y-76577959D01*
X108057066Y-76588866D01*
X108046159Y-76598752D01*
X108034336Y-76607520D01*
X108021710Y-76615088D01*
X108008403Y-76621382D01*
X107994543Y-76626341D01*
X107980264Y-76629918D01*
X107965703Y-76632078D01*
X107951000Y-76632800D01*
X106301000Y-76632800D01*
X106286297Y-76632078D01*
X106271736Y-76629918D01*
X106257457Y-76626341D01*
X106243597Y-76621382D01*
X106230290Y-76615088D01*
X106217664Y-76607520D01*
X106205841Y-76598752D01*
X106194934Y-76588866D01*
X106185048Y-76577959D01*
X106176280Y-76566136D01*
X106168712Y-76553510D01*
X106162418Y-76540203D01*
X106157459Y-76526343D01*
X106153882Y-76512064D01*
X106151722Y-76497503D01*
X106151000Y-76482800D01*
X106151000Y-76182800D01*
X106151722Y-76168097D01*
X106153882Y-76153536D01*
X106157459Y-76139257D01*
X106162418Y-76125397D01*
X106168712Y-76112090D01*
X106176280Y-76099464D01*
X106185048Y-76087641D01*
X106194934Y-76076734D01*
X106205841Y-76066848D01*
X106217664Y-76058080D01*
X106230290Y-76050512D01*
X106243597Y-76044218D01*
X106257457Y-76039259D01*
X106271736Y-76035682D01*
X106286297Y-76033522D01*
X106301000Y-76032800D01*
X107951000Y-76032800D01*
X107965703Y-76033522D01*
G37*
G36*
X107965703Y-74763522D02*
G01*
X107980264Y-74765682D01*
X107994543Y-74769259D01*
X108008403Y-74774218D01*
X108021710Y-74780512D01*
X108034336Y-74788080D01*
X108046159Y-74796848D01*
X108057066Y-74806734D01*
X108066952Y-74817641D01*
X108075720Y-74829464D01*
X108083288Y-74842090D01*
X108089582Y-74855397D01*
X108094541Y-74869257D01*
X108098118Y-74883536D01*
X108100278Y-74898097D01*
X108101000Y-74912800D01*
X108101000Y-75212800D01*
X108100278Y-75227503D01*
X108098118Y-75242064D01*
X108094541Y-75256343D01*
X108089582Y-75270203D01*
X108083288Y-75283510D01*
X108075720Y-75296136D01*
X108066952Y-75307959D01*
X108057066Y-75318866D01*
X108046159Y-75328752D01*
X108034336Y-75337520D01*
X108021710Y-75345088D01*
X108008403Y-75351382D01*
X107994543Y-75356341D01*
X107980264Y-75359918D01*
X107965703Y-75362078D01*
X107951000Y-75362800D01*
X106301000Y-75362800D01*
X106286297Y-75362078D01*
X106271736Y-75359918D01*
X106257457Y-75356341D01*
X106243597Y-75351382D01*
X106230290Y-75345088D01*
X106217664Y-75337520D01*
X106205841Y-75328752D01*
X106194934Y-75318866D01*
X106185048Y-75307959D01*
X106176280Y-75296136D01*
X106168712Y-75283510D01*
X106162418Y-75270203D01*
X106157459Y-75256343D01*
X106153882Y-75242064D01*
X106151722Y-75227503D01*
X106151000Y-75212800D01*
X106151000Y-74912800D01*
X106151722Y-74898097D01*
X106153882Y-74883536D01*
X106157459Y-74869257D01*
X106162418Y-74855397D01*
X106168712Y-74842090D01*
X106176280Y-74829464D01*
X106185048Y-74817641D01*
X106194934Y-74806734D01*
X106205841Y-74796848D01*
X106217664Y-74788080D01*
X106230290Y-74780512D01*
X106243597Y-74774218D01*
X106257457Y-74769259D01*
X106271736Y-74765682D01*
X106286297Y-74763522D01*
X106301000Y-74762800D01*
X107951000Y-74762800D01*
X107965703Y-74763522D01*
G37*
G36*
X107965703Y-73493522D02*
G01*
X107980264Y-73495682D01*
X107994543Y-73499259D01*
X108008403Y-73504218D01*
X108021710Y-73510512D01*
X108034336Y-73518080D01*
X108046159Y-73526848D01*
X108057066Y-73536734D01*
X108066952Y-73547641D01*
X108075720Y-73559464D01*
X108083288Y-73572090D01*
X108089582Y-73585397D01*
X108094541Y-73599257D01*
X108098118Y-73613536D01*
X108100278Y-73628097D01*
X108101000Y-73642800D01*
X108101000Y-73942800D01*
X108100278Y-73957503D01*
X108098118Y-73972064D01*
X108094541Y-73986343D01*
X108089582Y-74000203D01*
X108083288Y-74013510D01*
X108075720Y-74026136D01*
X108066952Y-74037959D01*
X108057066Y-74048866D01*
X108046159Y-74058752D01*
X108034336Y-74067520D01*
X108021710Y-74075088D01*
X108008403Y-74081382D01*
X107994543Y-74086341D01*
X107980264Y-74089918D01*
X107965703Y-74092078D01*
X107951000Y-74092800D01*
X106301000Y-74092800D01*
X106286297Y-74092078D01*
X106271736Y-74089918D01*
X106257457Y-74086341D01*
X106243597Y-74081382D01*
X106230290Y-74075088D01*
X106217664Y-74067520D01*
X106205841Y-74058752D01*
X106194934Y-74048866D01*
X106185048Y-74037959D01*
X106176280Y-74026136D01*
X106168712Y-74013510D01*
X106162418Y-74000203D01*
X106157459Y-73986343D01*
X106153882Y-73972064D01*
X106151722Y-73957503D01*
X106151000Y-73942800D01*
X106151000Y-73642800D01*
X106151722Y-73628097D01*
X106153882Y-73613536D01*
X106157459Y-73599257D01*
X106162418Y-73585397D01*
X106168712Y-73572090D01*
X106176280Y-73559464D01*
X106185048Y-73547641D01*
X106194934Y-73536734D01*
X106205841Y-73526848D01*
X106217664Y-73518080D01*
X106230290Y-73510512D01*
X106243597Y-73504218D01*
X106257457Y-73499259D01*
X106271736Y-73495682D01*
X106286297Y-73493522D01*
X106301000Y-73492800D01*
X107951000Y-73492800D01*
X107965703Y-73493522D01*
G37*
G36*
X103015703Y-73493522D02*
G01*
X103030264Y-73495682D01*
X103044543Y-73499259D01*
X103058403Y-73504218D01*
X103071710Y-73510512D01*
X103084336Y-73518080D01*
X103096159Y-73526848D01*
X103107066Y-73536734D01*
X103116952Y-73547641D01*
X103125720Y-73559464D01*
X103133288Y-73572090D01*
X103139582Y-73585397D01*
X103144541Y-73599257D01*
X103148118Y-73613536D01*
X103150278Y-73628097D01*
X103151000Y-73642800D01*
X103151000Y-73942800D01*
X103150278Y-73957503D01*
X103148118Y-73972064D01*
X103144541Y-73986343D01*
X103139582Y-74000203D01*
X103133288Y-74013510D01*
X103125720Y-74026136D01*
X103116952Y-74037959D01*
X103107066Y-74048866D01*
X103096159Y-74058752D01*
X103084336Y-74067520D01*
X103071710Y-74075088D01*
X103058403Y-74081382D01*
X103044543Y-74086341D01*
X103030264Y-74089918D01*
X103015703Y-74092078D01*
X103001000Y-74092800D01*
X101351000Y-74092800D01*
X101336297Y-74092078D01*
X101321736Y-74089918D01*
X101307457Y-74086341D01*
X101293597Y-74081382D01*
X101280290Y-74075088D01*
X101267664Y-74067520D01*
X101255841Y-74058752D01*
X101244934Y-74048866D01*
X101235048Y-74037959D01*
X101226280Y-74026136D01*
X101218712Y-74013510D01*
X101212418Y-74000203D01*
X101207459Y-73986343D01*
X101203882Y-73972064D01*
X101201722Y-73957503D01*
X101201000Y-73942800D01*
X101201000Y-73642800D01*
X101201722Y-73628097D01*
X101203882Y-73613536D01*
X101207459Y-73599257D01*
X101212418Y-73585397D01*
X101218712Y-73572090D01*
X101226280Y-73559464D01*
X101235048Y-73547641D01*
X101244934Y-73536734D01*
X101255841Y-73526848D01*
X101267664Y-73518080D01*
X101280290Y-73510512D01*
X101293597Y-73504218D01*
X101307457Y-73499259D01*
X101321736Y-73495682D01*
X101336297Y-73493522D01*
X101351000Y-73492800D01*
X103001000Y-73492800D01*
X103015703Y-73493522D01*
G37*
G36*
X103015703Y-74763522D02*
G01*
X103030264Y-74765682D01*
X103044543Y-74769259D01*
X103058403Y-74774218D01*
X103071710Y-74780512D01*
X103084336Y-74788080D01*
X103096159Y-74796848D01*
X103107066Y-74806734D01*
X103116952Y-74817641D01*
X103125720Y-74829464D01*
X103133288Y-74842090D01*
X103139582Y-74855397D01*
X103144541Y-74869257D01*
X103148118Y-74883536D01*
X103150278Y-74898097D01*
X103151000Y-74912800D01*
X103151000Y-75212800D01*
X103150278Y-75227503D01*
X103148118Y-75242064D01*
X103144541Y-75256343D01*
X103139582Y-75270203D01*
X103133288Y-75283510D01*
X103125720Y-75296136D01*
X103116952Y-75307959D01*
X103107066Y-75318866D01*
X103096159Y-75328752D01*
X103084336Y-75337520D01*
X103071710Y-75345088D01*
X103058403Y-75351382D01*
X103044543Y-75356341D01*
X103030264Y-75359918D01*
X103015703Y-75362078D01*
X103001000Y-75362800D01*
X101351000Y-75362800D01*
X101336297Y-75362078D01*
X101321736Y-75359918D01*
X101307457Y-75356341D01*
X101293597Y-75351382D01*
X101280290Y-75345088D01*
X101267664Y-75337520D01*
X101255841Y-75328752D01*
X101244934Y-75318866D01*
X101235048Y-75307959D01*
X101226280Y-75296136D01*
X101218712Y-75283510D01*
X101212418Y-75270203D01*
X101207459Y-75256343D01*
X101203882Y-75242064D01*
X101201722Y-75227503D01*
X101201000Y-75212800D01*
X101201000Y-74912800D01*
X101201722Y-74898097D01*
X101203882Y-74883536D01*
X101207459Y-74869257D01*
X101212418Y-74855397D01*
X101218712Y-74842090D01*
X101226280Y-74829464D01*
X101235048Y-74817641D01*
X101244934Y-74806734D01*
X101255841Y-74796848D01*
X101267664Y-74788080D01*
X101280290Y-74780512D01*
X101293597Y-74774218D01*
X101307457Y-74769259D01*
X101321736Y-74765682D01*
X101336297Y-74763522D01*
X101351000Y-74762800D01*
X103001000Y-74762800D01*
X103015703Y-74763522D01*
G37*
G36*
X103015703Y-76033522D02*
G01*
X103030264Y-76035682D01*
X103044543Y-76039259D01*
X103058403Y-76044218D01*
X103071710Y-76050512D01*
X103084336Y-76058080D01*
X103096159Y-76066848D01*
X103107066Y-76076734D01*
X103116952Y-76087641D01*
X103125720Y-76099464D01*
X103133288Y-76112090D01*
X103139582Y-76125397D01*
X103144541Y-76139257D01*
X103148118Y-76153536D01*
X103150278Y-76168097D01*
X103151000Y-76182800D01*
X103151000Y-76482800D01*
X103150278Y-76497503D01*
X103148118Y-76512064D01*
X103144541Y-76526343D01*
X103139582Y-76540203D01*
X103133288Y-76553510D01*
X103125720Y-76566136D01*
X103116952Y-76577959D01*
X103107066Y-76588866D01*
X103096159Y-76598752D01*
X103084336Y-76607520D01*
X103071710Y-76615088D01*
X103058403Y-76621382D01*
X103044543Y-76626341D01*
X103030264Y-76629918D01*
X103015703Y-76632078D01*
X103001000Y-76632800D01*
X101351000Y-76632800D01*
X101336297Y-76632078D01*
X101321736Y-76629918D01*
X101307457Y-76626341D01*
X101293597Y-76621382D01*
X101280290Y-76615088D01*
X101267664Y-76607520D01*
X101255841Y-76598752D01*
X101244934Y-76588866D01*
X101235048Y-76577959D01*
X101226280Y-76566136D01*
X101218712Y-76553510D01*
X101212418Y-76540203D01*
X101207459Y-76526343D01*
X101203882Y-76512064D01*
X101201722Y-76497503D01*
X101201000Y-76482800D01*
X101201000Y-76182800D01*
X101201722Y-76168097D01*
X101203882Y-76153536D01*
X101207459Y-76139257D01*
X101212418Y-76125397D01*
X101218712Y-76112090D01*
X101226280Y-76099464D01*
X101235048Y-76087641D01*
X101244934Y-76076734D01*
X101255841Y-76066848D01*
X101267664Y-76058080D01*
X101280290Y-76050512D01*
X101293597Y-76044218D01*
X101307457Y-76039259D01*
X101321736Y-76035682D01*
X101336297Y-76033522D01*
X101351000Y-76032800D01*
X103001000Y-76032800D01*
X103015703Y-76033522D01*
G37*
G36*
X103015703Y-77303522D02*
G01*
X103030264Y-77305682D01*
X103044543Y-77309259D01*
X103058403Y-77314218D01*
X103071710Y-77320512D01*
X103084336Y-77328080D01*
X103096159Y-77336848D01*
X103107066Y-77346734D01*
X103116952Y-77357641D01*
X103125720Y-77369464D01*
X103133288Y-77382090D01*
X103139582Y-77395397D01*
X103144541Y-77409257D01*
X103148118Y-77423536D01*
X103150278Y-77438097D01*
X103151000Y-77452800D01*
X103151000Y-77752800D01*
X103150278Y-77767503D01*
X103148118Y-77782064D01*
X103144541Y-77796343D01*
X103139582Y-77810203D01*
X103133288Y-77823510D01*
X103125720Y-77836136D01*
X103116952Y-77847959D01*
X103107066Y-77858866D01*
X103096159Y-77868752D01*
X103084336Y-77877520D01*
X103071710Y-77885088D01*
X103058403Y-77891382D01*
X103044543Y-77896341D01*
X103030264Y-77899918D01*
X103015703Y-77902078D01*
X103001000Y-77902800D01*
X101351000Y-77902800D01*
X101336297Y-77902078D01*
X101321736Y-77899918D01*
X101307457Y-77896341D01*
X101293597Y-77891382D01*
X101280290Y-77885088D01*
X101267664Y-77877520D01*
X101255841Y-77868752D01*
X101244934Y-77858866D01*
X101235048Y-77847959D01*
X101226280Y-77836136D01*
X101218712Y-77823510D01*
X101212418Y-77810203D01*
X101207459Y-77796343D01*
X101203882Y-77782064D01*
X101201722Y-77767503D01*
X101201000Y-77752800D01*
X101201000Y-77452800D01*
X101201722Y-77438097D01*
X101203882Y-77423536D01*
X101207459Y-77409257D01*
X101212418Y-77395397D01*
X101218712Y-77382090D01*
X101226280Y-77369464D01*
X101235048Y-77357641D01*
X101244934Y-77346734D01*
X101255841Y-77336848D01*
X101267664Y-77328080D01*
X101280290Y-77320512D01*
X101293597Y-77314218D01*
X101307457Y-77309259D01*
X101321736Y-77305682D01*
X101336297Y-77303522D01*
X101351000Y-77302800D01*
X103001000Y-77302800D01*
X103015703Y-77303522D01*
G37*
G36*
X103015703Y-78573522D02*
G01*
X103030264Y-78575682D01*
X103044543Y-78579259D01*
X103058403Y-78584218D01*
X103071710Y-78590512D01*
X103084336Y-78598080D01*
X103096159Y-78606848D01*
X103107066Y-78616734D01*
X103116952Y-78627641D01*
X103125720Y-78639464D01*
X103133288Y-78652090D01*
X103139582Y-78665397D01*
X103144541Y-78679257D01*
X103148118Y-78693536D01*
X103150278Y-78708097D01*
X103151000Y-78722800D01*
X103151000Y-79022800D01*
X103150278Y-79037503D01*
X103148118Y-79052064D01*
X103144541Y-79066343D01*
X103139582Y-79080203D01*
X103133288Y-79093510D01*
X103125720Y-79106136D01*
X103116952Y-79117959D01*
X103107066Y-79128866D01*
X103096159Y-79138752D01*
X103084336Y-79147520D01*
X103071710Y-79155088D01*
X103058403Y-79161382D01*
X103044543Y-79166341D01*
X103030264Y-79169918D01*
X103015703Y-79172078D01*
X103001000Y-79172800D01*
X101351000Y-79172800D01*
X101336297Y-79172078D01*
X101321736Y-79169918D01*
X101307457Y-79166341D01*
X101293597Y-79161382D01*
X101280290Y-79155088D01*
X101267664Y-79147520D01*
X101255841Y-79138752D01*
X101244934Y-79128866D01*
X101235048Y-79117959D01*
X101226280Y-79106136D01*
X101218712Y-79093510D01*
X101212418Y-79080203D01*
X101207459Y-79066343D01*
X101203882Y-79052064D01*
X101201722Y-79037503D01*
X101201000Y-79022800D01*
X101201000Y-78722800D01*
X101201722Y-78708097D01*
X101203882Y-78693536D01*
X101207459Y-78679257D01*
X101212418Y-78665397D01*
X101218712Y-78652090D01*
X101226280Y-78639464D01*
X101235048Y-78627641D01*
X101244934Y-78616734D01*
X101255841Y-78606848D01*
X101267664Y-78598080D01*
X101280290Y-78590512D01*
X101293597Y-78584218D01*
X101307457Y-78579259D01*
X101321736Y-78575682D01*
X101336297Y-78573522D01*
X101351000Y-78572800D01*
X103001000Y-78572800D01*
X103015703Y-78573522D01*
G37*
G36*
X103015703Y-79843522D02*
G01*
X103030264Y-79845682D01*
X103044543Y-79849259D01*
X103058403Y-79854218D01*
X103071710Y-79860512D01*
X103084336Y-79868080D01*
X103096159Y-79876848D01*
X103107066Y-79886734D01*
X103116952Y-79897641D01*
X103125720Y-79909464D01*
X103133288Y-79922090D01*
X103139582Y-79935397D01*
X103144541Y-79949257D01*
X103148118Y-79963536D01*
X103150278Y-79978097D01*
X103151000Y-79992800D01*
X103151000Y-80292800D01*
X103150278Y-80307503D01*
X103148118Y-80322064D01*
X103144541Y-80336343D01*
X103139582Y-80350203D01*
X103133288Y-80363510D01*
X103125720Y-80376136D01*
X103116952Y-80387959D01*
X103107066Y-80398866D01*
X103096159Y-80408752D01*
X103084336Y-80417520D01*
X103071710Y-80425088D01*
X103058403Y-80431382D01*
X103044543Y-80436341D01*
X103030264Y-80439918D01*
X103015703Y-80442078D01*
X103001000Y-80442800D01*
X101351000Y-80442800D01*
X101336297Y-80442078D01*
X101321736Y-80439918D01*
X101307457Y-80436341D01*
X101293597Y-80431382D01*
X101280290Y-80425088D01*
X101267664Y-80417520D01*
X101255841Y-80408752D01*
X101244934Y-80398866D01*
X101235048Y-80387959D01*
X101226280Y-80376136D01*
X101218712Y-80363510D01*
X101212418Y-80350203D01*
X101207459Y-80336343D01*
X101203882Y-80322064D01*
X101201722Y-80307503D01*
X101201000Y-80292800D01*
X101201000Y-79992800D01*
X101201722Y-79978097D01*
X101203882Y-79963536D01*
X101207459Y-79949257D01*
X101212418Y-79935397D01*
X101218712Y-79922090D01*
X101226280Y-79909464D01*
X101235048Y-79897641D01*
X101244934Y-79886734D01*
X101255841Y-79876848D01*
X101267664Y-79868080D01*
X101280290Y-79860512D01*
X101293597Y-79854218D01*
X101307457Y-79849259D01*
X101321736Y-79845682D01*
X101336297Y-79843522D01*
X101351000Y-79842800D01*
X103001000Y-79842800D01*
X103015703Y-79843522D01*
G37*
G36*
X103015703Y-81113522D02*
G01*
X103030264Y-81115682D01*
X103044543Y-81119259D01*
X103058403Y-81124218D01*
X103071710Y-81130512D01*
X103084336Y-81138080D01*
X103096159Y-81146848D01*
X103107066Y-81156734D01*
X103116952Y-81167641D01*
X103125720Y-81179464D01*
X103133288Y-81192090D01*
X103139582Y-81205397D01*
X103144541Y-81219257D01*
X103148118Y-81233536D01*
X103150278Y-81248097D01*
X103151000Y-81262800D01*
X103151000Y-81562800D01*
X103150278Y-81577503D01*
X103148118Y-81592064D01*
X103144541Y-81606343D01*
X103139582Y-81620203D01*
X103133288Y-81633510D01*
X103125720Y-81646136D01*
X103116952Y-81657959D01*
X103107066Y-81668866D01*
X103096159Y-81678752D01*
X103084336Y-81687520D01*
X103071710Y-81695088D01*
X103058403Y-81701382D01*
X103044543Y-81706341D01*
X103030264Y-81709918D01*
X103015703Y-81712078D01*
X103001000Y-81712800D01*
X101351000Y-81712800D01*
X101336297Y-81712078D01*
X101321736Y-81709918D01*
X101307457Y-81706341D01*
X101293597Y-81701382D01*
X101280290Y-81695088D01*
X101267664Y-81687520D01*
X101255841Y-81678752D01*
X101244934Y-81668866D01*
X101235048Y-81657959D01*
X101226280Y-81646136D01*
X101218712Y-81633510D01*
X101212418Y-81620203D01*
X101207459Y-81606343D01*
X101203882Y-81592064D01*
X101201722Y-81577503D01*
X101201000Y-81562800D01*
X101201000Y-81262800D01*
X101201722Y-81248097D01*
X101203882Y-81233536D01*
X101207459Y-81219257D01*
X101212418Y-81205397D01*
X101218712Y-81192090D01*
X101226280Y-81179464D01*
X101235048Y-81167641D01*
X101244934Y-81156734D01*
X101255841Y-81146848D01*
X101267664Y-81138080D01*
X101280290Y-81130512D01*
X101293597Y-81124218D01*
X101307457Y-81119259D01*
X101321736Y-81115682D01*
X101336297Y-81113522D01*
X101351000Y-81112800D01*
X103001000Y-81112800D01*
X103015703Y-81113522D01*
G37*
G36*
X103015703Y-82383522D02*
G01*
X103030264Y-82385682D01*
X103044543Y-82389259D01*
X103058403Y-82394218D01*
X103071710Y-82400512D01*
X103084336Y-82408080D01*
X103096159Y-82416848D01*
X103107066Y-82426734D01*
X103116952Y-82437641D01*
X103125720Y-82449464D01*
X103133288Y-82462090D01*
X103139582Y-82475397D01*
X103144541Y-82489257D01*
X103148118Y-82503536D01*
X103150278Y-82518097D01*
X103151000Y-82532800D01*
X103151000Y-82832800D01*
X103150278Y-82847503D01*
X103148118Y-82862064D01*
X103144541Y-82876343D01*
X103139582Y-82890203D01*
X103133288Y-82903510D01*
X103125720Y-82916136D01*
X103116952Y-82927959D01*
X103107066Y-82938866D01*
X103096159Y-82948752D01*
X103084336Y-82957520D01*
X103071710Y-82965088D01*
X103058403Y-82971382D01*
X103044543Y-82976341D01*
X103030264Y-82979918D01*
X103015703Y-82982078D01*
X103001000Y-82982800D01*
X101351000Y-82982800D01*
X101336297Y-82982078D01*
X101321736Y-82979918D01*
X101307457Y-82976341D01*
X101293597Y-82971382D01*
X101280290Y-82965088D01*
X101267664Y-82957520D01*
X101255841Y-82948752D01*
X101244934Y-82938866D01*
X101235048Y-82927959D01*
X101226280Y-82916136D01*
X101218712Y-82903510D01*
X101212418Y-82890203D01*
X101207459Y-82876343D01*
X101203882Y-82862064D01*
X101201722Y-82847503D01*
X101201000Y-82832800D01*
X101201000Y-82532800D01*
X101201722Y-82518097D01*
X101203882Y-82503536D01*
X101207459Y-82489257D01*
X101212418Y-82475397D01*
X101218712Y-82462090D01*
X101226280Y-82449464D01*
X101235048Y-82437641D01*
X101244934Y-82426734D01*
X101255841Y-82416848D01*
X101267664Y-82408080D01*
X101280290Y-82400512D01*
X101293597Y-82394218D01*
X101307457Y-82389259D01*
X101321736Y-82385682D01*
X101336297Y-82383522D01*
X101351000Y-82382800D01*
X103001000Y-82382800D01*
X103015703Y-82383522D01*
G37*
G36*
X123611703Y-82447022D02*
G01*
X123626264Y-82449182D01*
X123640543Y-82452759D01*
X123654403Y-82457718D01*
X123667710Y-82464012D01*
X123680336Y-82471580D01*
X123692159Y-82480348D01*
X123703066Y-82490234D01*
X123712952Y-82501141D01*
X123721720Y-82512964D01*
X123729288Y-82525590D01*
X123735582Y-82538897D01*
X123740541Y-82552757D01*
X123744118Y-82567036D01*
X123746278Y-82581597D01*
X123747000Y-82596300D01*
X123747000Y-82896300D01*
X123746278Y-82911003D01*
X123744118Y-82925564D01*
X123740541Y-82939843D01*
X123735582Y-82953703D01*
X123729288Y-82967010D01*
X123721720Y-82979636D01*
X123712952Y-82991459D01*
X123703066Y-83002366D01*
X123692159Y-83012252D01*
X123680336Y-83021020D01*
X123667710Y-83028588D01*
X123654403Y-83034882D01*
X123640543Y-83039841D01*
X123626264Y-83043418D01*
X123611703Y-83045578D01*
X123597000Y-83046300D01*
X121947000Y-83046300D01*
X121932297Y-83045578D01*
X121917736Y-83043418D01*
X121903457Y-83039841D01*
X121889597Y-83034882D01*
X121876290Y-83028588D01*
X121863664Y-83021020D01*
X121851841Y-83012252D01*
X121840934Y-83002366D01*
X121831048Y-82991459D01*
X121822280Y-82979636D01*
X121814712Y-82967010D01*
X121808418Y-82953703D01*
X121803459Y-82939843D01*
X121799882Y-82925564D01*
X121797722Y-82911003D01*
X121797000Y-82896300D01*
X121797000Y-82596300D01*
X121797722Y-82581597D01*
X121799882Y-82567036D01*
X121803459Y-82552757D01*
X121808418Y-82538897D01*
X121814712Y-82525590D01*
X121822280Y-82512964D01*
X121831048Y-82501141D01*
X121840934Y-82490234D01*
X121851841Y-82480348D01*
X121863664Y-82471580D01*
X121876290Y-82464012D01*
X121889597Y-82457718D01*
X121903457Y-82452759D01*
X121917736Y-82449182D01*
X121932297Y-82447022D01*
X121947000Y-82446300D01*
X123597000Y-82446300D01*
X123611703Y-82447022D01*
G37*
G36*
X123611703Y-81177022D02*
G01*
X123626264Y-81179182D01*
X123640543Y-81182759D01*
X123654403Y-81187718D01*
X123667710Y-81194012D01*
X123680336Y-81201580D01*
X123692159Y-81210348D01*
X123703066Y-81220234D01*
X123712952Y-81231141D01*
X123721720Y-81242964D01*
X123729288Y-81255590D01*
X123735582Y-81268897D01*
X123740541Y-81282757D01*
X123744118Y-81297036D01*
X123746278Y-81311597D01*
X123747000Y-81326300D01*
X123747000Y-81626300D01*
X123746278Y-81641003D01*
X123744118Y-81655564D01*
X123740541Y-81669843D01*
X123735582Y-81683703D01*
X123729288Y-81697010D01*
X123721720Y-81709636D01*
X123712952Y-81721459D01*
X123703066Y-81732366D01*
X123692159Y-81742252D01*
X123680336Y-81751020D01*
X123667710Y-81758588D01*
X123654403Y-81764882D01*
X123640543Y-81769841D01*
X123626264Y-81773418D01*
X123611703Y-81775578D01*
X123597000Y-81776300D01*
X121947000Y-81776300D01*
X121932297Y-81775578D01*
X121917736Y-81773418D01*
X121903457Y-81769841D01*
X121889597Y-81764882D01*
X121876290Y-81758588D01*
X121863664Y-81751020D01*
X121851841Y-81742252D01*
X121840934Y-81732366D01*
X121831048Y-81721459D01*
X121822280Y-81709636D01*
X121814712Y-81697010D01*
X121808418Y-81683703D01*
X121803459Y-81669843D01*
X121799882Y-81655564D01*
X121797722Y-81641003D01*
X121797000Y-81626300D01*
X121797000Y-81326300D01*
X121797722Y-81311597D01*
X121799882Y-81297036D01*
X121803459Y-81282757D01*
X121808418Y-81268897D01*
X121814712Y-81255590D01*
X121822280Y-81242964D01*
X121831048Y-81231141D01*
X121840934Y-81220234D01*
X121851841Y-81210348D01*
X121863664Y-81201580D01*
X121876290Y-81194012D01*
X121889597Y-81187718D01*
X121903457Y-81182759D01*
X121917736Y-81179182D01*
X121932297Y-81177022D01*
X121947000Y-81176300D01*
X123597000Y-81176300D01*
X123611703Y-81177022D01*
G37*
G36*
X123611703Y-79907022D02*
G01*
X123626264Y-79909182D01*
X123640543Y-79912759D01*
X123654403Y-79917718D01*
X123667710Y-79924012D01*
X123680336Y-79931580D01*
X123692159Y-79940348D01*
X123703066Y-79950234D01*
X123712952Y-79961141D01*
X123721720Y-79972964D01*
X123729288Y-79985590D01*
X123735582Y-79998897D01*
X123740541Y-80012757D01*
X123744118Y-80027036D01*
X123746278Y-80041597D01*
X123747000Y-80056300D01*
X123747000Y-80356300D01*
X123746278Y-80371003D01*
X123744118Y-80385564D01*
X123740541Y-80399843D01*
X123735582Y-80413703D01*
X123729288Y-80427010D01*
X123721720Y-80439636D01*
X123712952Y-80451459D01*
X123703066Y-80462366D01*
X123692159Y-80472252D01*
X123680336Y-80481020D01*
X123667710Y-80488588D01*
X123654403Y-80494882D01*
X123640543Y-80499841D01*
X123626264Y-80503418D01*
X123611703Y-80505578D01*
X123597000Y-80506300D01*
X121947000Y-80506300D01*
X121932297Y-80505578D01*
X121917736Y-80503418D01*
X121903457Y-80499841D01*
X121889597Y-80494882D01*
X121876290Y-80488588D01*
X121863664Y-80481020D01*
X121851841Y-80472252D01*
X121840934Y-80462366D01*
X121831048Y-80451459D01*
X121822280Y-80439636D01*
X121814712Y-80427010D01*
X121808418Y-80413703D01*
X121803459Y-80399843D01*
X121799882Y-80385564D01*
X121797722Y-80371003D01*
X121797000Y-80356300D01*
X121797000Y-80056300D01*
X121797722Y-80041597D01*
X121799882Y-80027036D01*
X121803459Y-80012757D01*
X121808418Y-79998897D01*
X121814712Y-79985590D01*
X121822280Y-79972964D01*
X121831048Y-79961141D01*
X121840934Y-79950234D01*
X121851841Y-79940348D01*
X121863664Y-79931580D01*
X121876290Y-79924012D01*
X121889597Y-79917718D01*
X121903457Y-79912759D01*
X121917736Y-79909182D01*
X121932297Y-79907022D01*
X121947000Y-79906300D01*
X123597000Y-79906300D01*
X123611703Y-79907022D01*
G37*
G36*
X123611703Y-78637022D02*
G01*
X123626264Y-78639182D01*
X123640543Y-78642759D01*
X123654403Y-78647718D01*
X123667710Y-78654012D01*
X123680336Y-78661580D01*
X123692159Y-78670348D01*
X123703066Y-78680234D01*
X123712952Y-78691141D01*
X123721720Y-78702964D01*
X123729288Y-78715590D01*
X123735582Y-78728897D01*
X123740541Y-78742757D01*
X123744118Y-78757036D01*
X123746278Y-78771597D01*
X123747000Y-78786300D01*
X123747000Y-79086300D01*
X123746278Y-79101003D01*
X123744118Y-79115564D01*
X123740541Y-79129843D01*
X123735582Y-79143703D01*
X123729288Y-79157010D01*
X123721720Y-79169636D01*
X123712952Y-79181459D01*
X123703066Y-79192366D01*
X123692159Y-79202252D01*
X123680336Y-79211020D01*
X123667710Y-79218588D01*
X123654403Y-79224882D01*
X123640543Y-79229841D01*
X123626264Y-79233418D01*
X123611703Y-79235578D01*
X123597000Y-79236300D01*
X121947000Y-79236300D01*
X121932297Y-79235578D01*
X121917736Y-79233418D01*
X121903457Y-79229841D01*
X121889597Y-79224882D01*
X121876290Y-79218588D01*
X121863664Y-79211020D01*
X121851841Y-79202252D01*
X121840934Y-79192366D01*
X121831048Y-79181459D01*
X121822280Y-79169636D01*
X121814712Y-79157010D01*
X121808418Y-79143703D01*
X121803459Y-79129843D01*
X121799882Y-79115564D01*
X121797722Y-79101003D01*
X121797000Y-79086300D01*
X121797000Y-78786300D01*
X121797722Y-78771597D01*
X121799882Y-78757036D01*
X121803459Y-78742757D01*
X121808418Y-78728897D01*
X121814712Y-78715590D01*
X121822280Y-78702964D01*
X121831048Y-78691141D01*
X121840934Y-78680234D01*
X121851841Y-78670348D01*
X121863664Y-78661580D01*
X121876290Y-78654012D01*
X121889597Y-78647718D01*
X121903457Y-78642759D01*
X121917736Y-78639182D01*
X121932297Y-78637022D01*
X121947000Y-78636300D01*
X123597000Y-78636300D01*
X123611703Y-78637022D01*
G37*
G36*
X123611703Y-77367022D02*
G01*
X123626264Y-77369182D01*
X123640543Y-77372759D01*
X123654403Y-77377718D01*
X123667710Y-77384012D01*
X123680336Y-77391580D01*
X123692159Y-77400348D01*
X123703066Y-77410234D01*
X123712952Y-77421141D01*
X123721720Y-77432964D01*
X123729288Y-77445590D01*
X123735582Y-77458897D01*
X123740541Y-77472757D01*
X123744118Y-77487036D01*
X123746278Y-77501597D01*
X123747000Y-77516300D01*
X123747000Y-77816300D01*
X123746278Y-77831003D01*
X123744118Y-77845564D01*
X123740541Y-77859843D01*
X123735582Y-77873703D01*
X123729288Y-77887010D01*
X123721720Y-77899636D01*
X123712952Y-77911459D01*
X123703066Y-77922366D01*
X123692159Y-77932252D01*
X123680336Y-77941020D01*
X123667710Y-77948588D01*
X123654403Y-77954882D01*
X123640543Y-77959841D01*
X123626264Y-77963418D01*
X123611703Y-77965578D01*
X123597000Y-77966300D01*
X121947000Y-77966300D01*
X121932297Y-77965578D01*
X121917736Y-77963418D01*
X121903457Y-77959841D01*
X121889597Y-77954882D01*
X121876290Y-77948588D01*
X121863664Y-77941020D01*
X121851841Y-77932252D01*
X121840934Y-77922366D01*
X121831048Y-77911459D01*
X121822280Y-77899636D01*
X121814712Y-77887010D01*
X121808418Y-77873703D01*
X121803459Y-77859843D01*
X121799882Y-77845564D01*
X121797722Y-77831003D01*
X121797000Y-77816300D01*
X121797000Y-77516300D01*
X121797722Y-77501597D01*
X121799882Y-77487036D01*
X121803459Y-77472757D01*
X121808418Y-77458897D01*
X121814712Y-77445590D01*
X121822280Y-77432964D01*
X121831048Y-77421141D01*
X121840934Y-77410234D01*
X121851841Y-77400348D01*
X121863664Y-77391580D01*
X121876290Y-77384012D01*
X121889597Y-77377718D01*
X121903457Y-77372759D01*
X121917736Y-77369182D01*
X121932297Y-77367022D01*
X121947000Y-77366300D01*
X123597000Y-77366300D01*
X123611703Y-77367022D01*
G37*
G36*
X123611703Y-76097022D02*
G01*
X123626264Y-76099182D01*
X123640543Y-76102759D01*
X123654403Y-76107718D01*
X123667710Y-76114012D01*
X123680336Y-76121580D01*
X123692159Y-76130348D01*
X123703066Y-76140234D01*
X123712952Y-76151141D01*
X123721720Y-76162964D01*
X123729288Y-76175590D01*
X123735582Y-76188897D01*
X123740541Y-76202757D01*
X123744118Y-76217036D01*
X123746278Y-76231597D01*
X123747000Y-76246300D01*
X123747000Y-76546300D01*
X123746278Y-76561003D01*
X123744118Y-76575564D01*
X123740541Y-76589843D01*
X123735582Y-76603703D01*
X123729288Y-76617010D01*
X123721720Y-76629636D01*
X123712952Y-76641459D01*
X123703066Y-76652366D01*
X123692159Y-76662252D01*
X123680336Y-76671020D01*
X123667710Y-76678588D01*
X123654403Y-76684882D01*
X123640543Y-76689841D01*
X123626264Y-76693418D01*
X123611703Y-76695578D01*
X123597000Y-76696300D01*
X121947000Y-76696300D01*
X121932297Y-76695578D01*
X121917736Y-76693418D01*
X121903457Y-76689841D01*
X121889597Y-76684882D01*
X121876290Y-76678588D01*
X121863664Y-76671020D01*
X121851841Y-76662252D01*
X121840934Y-76652366D01*
X121831048Y-76641459D01*
X121822280Y-76629636D01*
X121814712Y-76617010D01*
X121808418Y-76603703D01*
X121803459Y-76589843D01*
X121799882Y-76575564D01*
X121797722Y-76561003D01*
X121797000Y-76546300D01*
X121797000Y-76246300D01*
X121797722Y-76231597D01*
X121799882Y-76217036D01*
X121803459Y-76202757D01*
X121808418Y-76188897D01*
X121814712Y-76175590D01*
X121822280Y-76162964D01*
X121831048Y-76151141D01*
X121840934Y-76140234D01*
X121851841Y-76130348D01*
X121863664Y-76121580D01*
X121876290Y-76114012D01*
X121889597Y-76107718D01*
X121903457Y-76102759D01*
X121917736Y-76099182D01*
X121932297Y-76097022D01*
X121947000Y-76096300D01*
X123597000Y-76096300D01*
X123611703Y-76097022D01*
G37*
G36*
X123611703Y-74827022D02*
G01*
X123626264Y-74829182D01*
X123640543Y-74832759D01*
X123654403Y-74837718D01*
X123667710Y-74844012D01*
X123680336Y-74851580D01*
X123692159Y-74860348D01*
X123703066Y-74870234D01*
X123712952Y-74881141D01*
X123721720Y-74892964D01*
X123729288Y-74905590D01*
X123735582Y-74918897D01*
X123740541Y-74932757D01*
X123744118Y-74947036D01*
X123746278Y-74961597D01*
X123747000Y-74976300D01*
X123747000Y-75276300D01*
X123746278Y-75291003D01*
X123744118Y-75305564D01*
X123740541Y-75319843D01*
X123735582Y-75333703D01*
X123729288Y-75347010D01*
X123721720Y-75359636D01*
X123712952Y-75371459D01*
X123703066Y-75382366D01*
X123692159Y-75392252D01*
X123680336Y-75401020D01*
X123667710Y-75408588D01*
X123654403Y-75414882D01*
X123640543Y-75419841D01*
X123626264Y-75423418D01*
X123611703Y-75425578D01*
X123597000Y-75426300D01*
X121947000Y-75426300D01*
X121932297Y-75425578D01*
X121917736Y-75423418D01*
X121903457Y-75419841D01*
X121889597Y-75414882D01*
X121876290Y-75408588D01*
X121863664Y-75401020D01*
X121851841Y-75392252D01*
X121840934Y-75382366D01*
X121831048Y-75371459D01*
X121822280Y-75359636D01*
X121814712Y-75347010D01*
X121808418Y-75333703D01*
X121803459Y-75319843D01*
X121799882Y-75305564D01*
X121797722Y-75291003D01*
X121797000Y-75276300D01*
X121797000Y-74976300D01*
X121797722Y-74961597D01*
X121799882Y-74947036D01*
X121803459Y-74932757D01*
X121808418Y-74918897D01*
X121814712Y-74905590D01*
X121822280Y-74892964D01*
X121831048Y-74881141D01*
X121840934Y-74870234D01*
X121851841Y-74860348D01*
X121863664Y-74851580D01*
X121876290Y-74844012D01*
X121889597Y-74837718D01*
X121903457Y-74832759D01*
X121917736Y-74829182D01*
X121932297Y-74827022D01*
X121947000Y-74826300D01*
X123597000Y-74826300D01*
X123611703Y-74827022D01*
G37*
G36*
X123611703Y-73557022D02*
G01*
X123626264Y-73559182D01*
X123640543Y-73562759D01*
X123654403Y-73567718D01*
X123667710Y-73574012D01*
X123680336Y-73581580D01*
X123692159Y-73590348D01*
X123703066Y-73600234D01*
X123712952Y-73611141D01*
X123721720Y-73622964D01*
X123729288Y-73635590D01*
X123735582Y-73648897D01*
X123740541Y-73662757D01*
X123744118Y-73677036D01*
X123746278Y-73691597D01*
X123747000Y-73706300D01*
X123747000Y-74006300D01*
X123746278Y-74021003D01*
X123744118Y-74035564D01*
X123740541Y-74049843D01*
X123735582Y-74063703D01*
X123729288Y-74077010D01*
X123721720Y-74089636D01*
X123712952Y-74101459D01*
X123703066Y-74112366D01*
X123692159Y-74122252D01*
X123680336Y-74131020D01*
X123667710Y-74138588D01*
X123654403Y-74144882D01*
X123640543Y-74149841D01*
X123626264Y-74153418D01*
X123611703Y-74155578D01*
X123597000Y-74156300D01*
X121947000Y-74156300D01*
X121932297Y-74155578D01*
X121917736Y-74153418D01*
X121903457Y-74149841D01*
X121889597Y-74144882D01*
X121876290Y-74138588D01*
X121863664Y-74131020D01*
X121851841Y-74122252D01*
X121840934Y-74112366D01*
X121831048Y-74101459D01*
X121822280Y-74089636D01*
X121814712Y-74077010D01*
X121808418Y-74063703D01*
X121803459Y-74049843D01*
X121799882Y-74035564D01*
X121797722Y-74021003D01*
X121797000Y-74006300D01*
X121797000Y-73706300D01*
X121797722Y-73691597D01*
X121799882Y-73677036D01*
X121803459Y-73662757D01*
X121808418Y-73648897D01*
X121814712Y-73635590D01*
X121822280Y-73622964D01*
X121831048Y-73611141D01*
X121840934Y-73600234D01*
X121851841Y-73590348D01*
X121863664Y-73581580D01*
X121876290Y-73574012D01*
X121889597Y-73567718D01*
X121903457Y-73562759D01*
X121917736Y-73559182D01*
X121932297Y-73557022D01*
X121947000Y-73556300D01*
X123597000Y-73556300D01*
X123611703Y-73557022D01*
G37*
G36*
X118661703Y-73557022D02*
G01*
X118676264Y-73559182D01*
X118690543Y-73562759D01*
X118704403Y-73567718D01*
X118717710Y-73574012D01*
X118730336Y-73581580D01*
X118742159Y-73590348D01*
X118753066Y-73600234D01*
X118762952Y-73611141D01*
X118771720Y-73622964D01*
X118779288Y-73635590D01*
X118785582Y-73648897D01*
X118790541Y-73662757D01*
X118794118Y-73677036D01*
X118796278Y-73691597D01*
X118797000Y-73706300D01*
X118797000Y-74006300D01*
X118796278Y-74021003D01*
X118794118Y-74035564D01*
X118790541Y-74049843D01*
X118785582Y-74063703D01*
X118779288Y-74077010D01*
X118771720Y-74089636D01*
X118762952Y-74101459D01*
X118753066Y-74112366D01*
X118742159Y-74122252D01*
X118730336Y-74131020D01*
X118717710Y-74138588D01*
X118704403Y-74144882D01*
X118690543Y-74149841D01*
X118676264Y-74153418D01*
X118661703Y-74155578D01*
X118647000Y-74156300D01*
X116997000Y-74156300D01*
X116982297Y-74155578D01*
X116967736Y-74153418D01*
X116953457Y-74149841D01*
X116939597Y-74144882D01*
X116926290Y-74138588D01*
X116913664Y-74131020D01*
X116901841Y-74122252D01*
X116890934Y-74112366D01*
X116881048Y-74101459D01*
X116872280Y-74089636D01*
X116864712Y-74077010D01*
X116858418Y-74063703D01*
X116853459Y-74049843D01*
X116849882Y-74035564D01*
X116847722Y-74021003D01*
X116847000Y-74006300D01*
X116847000Y-73706300D01*
X116847722Y-73691597D01*
X116849882Y-73677036D01*
X116853459Y-73662757D01*
X116858418Y-73648897D01*
X116864712Y-73635590D01*
X116872280Y-73622964D01*
X116881048Y-73611141D01*
X116890934Y-73600234D01*
X116901841Y-73590348D01*
X116913664Y-73581580D01*
X116926290Y-73574012D01*
X116939597Y-73567718D01*
X116953457Y-73562759D01*
X116967736Y-73559182D01*
X116982297Y-73557022D01*
X116997000Y-73556300D01*
X118647000Y-73556300D01*
X118661703Y-73557022D01*
G37*
G36*
X118661703Y-74827022D02*
G01*
X118676264Y-74829182D01*
X118690543Y-74832759D01*
X118704403Y-74837718D01*
X118717710Y-74844012D01*
X118730336Y-74851580D01*
X118742159Y-74860348D01*
X118753066Y-74870234D01*
X118762952Y-74881141D01*
X118771720Y-74892964D01*
X118779288Y-74905590D01*
X118785582Y-74918897D01*
X118790541Y-74932757D01*
X118794118Y-74947036D01*
X118796278Y-74961597D01*
X118797000Y-74976300D01*
X118797000Y-75276300D01*
X118796278Y-75291003D01*
X118794118Y-75305564D01*
X118790541Y-75319843D01*
X118785582Y-75333703D01*
X118779288Y-75347010D01*
X118771720Y-75359636D01*
X118762952Y-75371459D01*
X118753066Y-75382366D01*
X118742159Y-75392252D01*
X118730336Y-75401020D01*
X118717710Y-75408588D01*
X118704403Y-75414882D01*
X118690543Y-75419841D01*
X118676264Y-75423418D01*
X118661703Y-75425578D01*
X118647000Y-75426300D01*
X116997000Y-75426300D01*
X116982297Y-75425578D01*
X116967736Y-75423418D01*
X116953457Y-75419841D01*
X116939597Y-75414882D01*
X116926290Y-75408588D01*
X116913664Y-75401020D01*
X116901841Y-75392252D01*
X116890934Y-75382366D01*
X116881048Y-75371459D01*
X116872280Y-75359636D01*
X116864712Y-75347010D01*
X116858418Y-75333703D01*
X116853459Y-75319843D01*
X116849882Y-75305564D01*
X116847722Y-75291003D01*
X116847000Y-75276300D01*
X116847000Y-74976300D01*
X116847722Y-74961597D01*
X116849882Y-74947036D01*
X116853459Y-74932757D01*
X116858418Y-74918897D01*
X116864712Y-74905590D01*
X116872280Y-74892964D01*
X116881048Y-74881141D01*
X116890934Y-74870234D01*
X116901841Y-74860348D01*
X116913664Y-74851580D01*
X116926290Y-74844012D01*
X116939597Y-74837718D01*
X116953457Y-74832759D01*
X116967736Y-74829182D01*
X116982297Y-74827022D01*
X116997000Y-74826300D01*
X118647000Y-74826300D01*
X118661703Y-74827022D01*
G37*
G36*
X118661703Y-76097022D02*
G01*
X118676264Y-76099182D01*
X118690543Y-76102759D01*
X118704403Y-76107718D01*
X118717710Y-76114012D01*
X118730336Y-76121580D01*
X118742159Y-76130348D01*
X118753066Y-76140234D01*
X118762952Y-76151141D01*
X118771720Y-76162964D01*
X118779288Y-76175590D01*
X118785582Y-76188897D01*
X118790541Y-76202757D01*
X118794118Y-76217036D01*
X118796278Y-76231597D01*
X118797000Y-76246300D01*
X118797000Y-76546300D01*
X118796278Y-76561003D01*
X118794118Y-76575564D01*
X118790541Y-76589843D01*
X118785582Y-76603703D01*
X118779288Y-76617010D01*
X118771720Y-76629636D01*
X118762952Y-76641459D01*
X118753066Y-76652366D01*
X118742159Y-76662252D01*
X118730336Y-76671020D01*
X118717710Y-76678588D01*
X118704403Y-76684882D01*
X118690543Y-76689841D01*
X118676264Y-76693418D01*
X118661703Y-76695578D01*
X118647000Y-76696300D01*
X116997000Y-76696300D01*
X116982297Y-76695578D01*
X116967736Y-76693418D01*
X116953457Y-76689841D01*
X116939597Y-76684882D01*
X116926290Y-76678588D01*
X116913664Y-76671020D01*
X116901841Y-76662252D01*
X116890934Y-76652366D01*
X116881048Y-76641459D01*
X116872280Y-76629636D01*
X116864712Y-76617010D01*
X116858418Y-76603703D01*
X116853459Y-76589843D01*
X116849882Y-76575564D01*
X116847722Y-76561003D01*
X116847000Y-76546300D01*
X116847000Y-76246300D01*
X116847722Y-76231597D01*
X116849882Y-76217036D01*
X116853459Y-76202757D01*
X116858418Y-76188897D01*
X116864712Y-76175590D01*
X116872280Y-76162964D01*
X116881048Y-76151141D01*
X116890934Y-76140234D01*
X116901841Y-76130348D01*
X116913664Y-76121580D01*
X116926290Y-76114012D01*
X116939597Y-76107718D01*
X116953457Y-76102759D01*
X116967736Y-76099182D01*
X116982297Y-76097022D01*
X116997000Y-76096300D01*
X118647000Y-76096300D01*
X118661703Y-76097022D01*
G37*
G36*
X118661703Y-77367022D02*
G01*
X118676264Y-77369182D01*
X118690543Y-77372759D01*
X118704403Y-77377718D01*
X118717710Y-77384012D01*
X118730336Y-77391580D01*
X118742159Y-77400348D01*
X118753066Y-77410234D01*
X118762952Y-77421141D01*
X118771720Y-77432964D01*
X118779288Y-77445590D01*
X118785582Y-77458897D01*
X118790541Y-77472757D01*
X118794118Y-77487036D01*
X118796278Y-77501597D01*
X118797000Y-77516300D01*
X118797000Y-77816300D01*
X118796278Y-77831003D01*
X118794118Y-77845564D01*
X118790541Y-77859843D01*
X118785582Y-77873703D01*
X118779288Y-77887010D01*
X118771720Y-77899636D01*
X118762952Y-77911459D01*
X118753066Y-77922366D01*
X118742159Y-77932252D01*
X118730336Y-77941020D01*
X118717710Y-77948588D01*
X118704403Y-77954882D01*
X118690543Y-77959841D01*
X118676264Y-77963418D01*
X118661703Y-77965578D01*
X118647000Y-77966300D01*
X116997000Y-77966300D01*
X116982297Y-77965578D01*
X116967736Y-77963418D01*
X116953457Y-77959841D01*
X116939597Y-77954882D01*
X116926290Y-77948588D01*
X116913664Y-77941020D01*
X116901841Y-77932252D01*
X116890934Y-77922366D01*
X116881048Y-77911459D01*
X116872280Y-77899636D01*
X116864712Y-77887010D01*
X116858418Y-77873703D01*
X116853459Y-77859843D01*
X116849882Y-77845564D01*
X116847722Y-77831003D01*
X116847000Y-77816300D01*
X116847000Y-77516300D01*
X116847722Y-77501597D01*
X116849882Y-77487036D01*
X116853459Y-77472757D01*
X116858418Y-77458897D01*
X116864712Y-77445590D01*
X116872280Y-77432964D01*
X116881048Y-77421141D01*
X116890934Y-77410234D01*
X116901841Y-77400348D01*
X116913664Y-77391580D01*
X116926290Y-77384012D01*
X116939597Y-77377718D01*
X116953457Y-77372759D01*
X116967736Y-77369182D01*
X116982297Y-77367022D01*
X116997000Y-77366300D01*
X118647000Y-77366300D01*
X118661703Y-77367022D01*
G37*
G36*
X118661703Y-78637022D02*
G01*
X118676264Y-78639182D01*
X118690543Y-78642759D01*
X118704403Y-78647718D01*
X118717710Y-78654012D01*
X118730336Y-78661580D01*
X118742159Y-78670348D01*
X118753066Y-78680234D01*
X118762952Y-78691141D01*
X118771720Y-78702964D01*
X118779288Y-78715590D01*
X118785582Y-78728897D01*
X118790541Y-78742757D01*
X118794118Y-78757036D01*
X118796278Y-78771597D01*
X118797000Y-78786300D01*
X118797000Y-79086300D01*
X118796278Y-79101003D01*
X118794118Y-79115564D01*
X118790541Y-79129843D01*
X118785582Y-79143703D01*
X118779288Y-79157010D01*
X118771720Y-79169636D01*
X118762952Y-79181459D01*
X118753066Y-79192366D01*
X118742159Y-79202252D01*
X118730336Y-79211020D01*
X118717710Y-79218588D01*
X118704403Y-79224882D01*
X118690543Y-79229841D01*
X118676264Y-79233418D01*
X118661703Y-79235578D01*
X118647000Y-79236300D01*
X116997000Y-79236300D01*
X116982297Y-79235578D01*
X116967736Y-79233418D01*
X116953457Y-79229841D01*
X116939597Y-79224882D01*
X116926290Y-79218588D01*
X116913664Y-79211020D01*
X116901841Y-79202252D01*
X116890934Y-79192366D01*
X116881048Y-79181459D01*
X116872280Y-79169636D01*
X116864712Y-79157010D01*
X116858418Y-79143703D01*
X116853459Y-79129843D01*
X116849882Y-79115564D01*
X116847722Y-79101003D01*
X116847000Y-79086300D01*
X116847000Y-78786300D01*
X116847722Y-78771597D01*
X116849882Y-78757036D01*
X116853459Y-78742757D01*
X116858418Y-78728897D01*
X116864712Y-78715590D01*
X116872280Y-78702964D01*
X116881048Y-78691141D01*
X116890934Y-78680234D01*
X116901841Y-78670348D01*
X116913664Y-78661580D01*
X116926290Y-78654012D01*
X116939597Y-78647718D01*
X116953457Y-78642759D01*
X116967736Y-78639182D01*
X116982297Y-78637022D01*
X116997000Y-78636300D01*
X118647000Y-78636300D01*
X118661703Y-78637022D01*
G37*
G36*
X118661703Y-79907022D02*
G01*
X118676264Y-79909182D01*
X118690543Y-79912759D01*
X118704403Y-79917718D01*
X118717710Y-79924012D01*
X118730336Y-79931580D01*
X118742159Y-79940348D01*
X118753066Y-79950234D01*
X118762952Y-79961141D01*
X118771720Y-79972964D01*
X118779288Y-79985590D01*
X118785582Y-79998897D01*
X118790541Y-80012757D01*
X118794118Y-80027036D01*
X118796278Y-80041597D01*
X118797000Y-80056300D01*
X118797000Y-80356300D01*
X118796278Y-80371003D01*
X118794118Y-80385564D01*
X118790541Y-80399843D01*
X118785582Y-80413703D01*
X118779288Y-80427010D01*
X118771720Y-80439636D01*
X118762952Y-80451459D01*
X118753066Y-80462366D01*
X118742159Y-80472252D01*
X118730336Y-80481020D01*
X118717710Y-80488588D01*
X118704403Y-80494882D01*
X118690543Y-80499841D01*
X118676264Y-80503418D01*
X118661703Y-80505578D01*
X118647000Y-80506300D01*
X116997000Y-80506300D01*
X116982297Y-80505578D01*
X116967736Y-80503418D01*
X116953457Y-80499841D01*
X116939597Y-80494882D01*
X116926290Y-80488588D01*
X116913664Y-80481020D01*
X116901841Y-80472252D01*
X116890934Y-80462366D01*
X116881048Y-80451459D01*
X116872280Y-80439636D01*
X116864712Y-80427010D01*
X116858418Y-80413703D01*
X116853459Y-80399843D01*
X116849882Y-80385564D01*
X116847722Y-80371003D01*
X116847000Y-80356300D01*
X116847000Y-80056300D01*
X116847722Y-80041597D01*
X116849882Y-80027036D01*
X116853459Y-80012757D01*
X116858418Y-79998897D01*
X116864712Y-79985590D01*
X116872280Y-79972964D01*
X116881048Y-79961141D01*
X116890934Y-79950234D01*
X116901841Y-79940348D01*
X116913664Y-79931580D01*
X116926290Y-79924012D01*
X116939597Y-79917718D01*
X116953457Y-79912759D01*
X116967736Y-79909182D01*
X116982297Y-79907022D01*
X116997000Y-79906300D01*
X118647000Y-79906300D01*
X118661703Y-79907022D01*
G37*
G36*
X118661703Y-81177022D02*
G01*
X118676264Y-81179182D01*
X118690543Y-81182759D01*
X118704403Y-81187718D01*
X118717710Y-81194012D01*
X118730336Y-81201580D01*
X118742159Y-81210348D01*
X118753066Y-81220234D01*
X118762952Y-81231141D01*
X118771720Y-81242964D01*
X118779288Y-81255590D01*
X118785582Y-81268897D01*
X118790541Y-81282757D01*
X118794118Y-81297036D01*
X118796278Y-81311597D01*
X118797000Y-81326300D01*
X118797000Y-81626300D01*
X118796278Y-81641003D01*
X118794118Y-81655564D01*
X118790541Y-81669843D01*
X118785582Y-81683703D01*
X118779288Y-81697010D01*
X118771720Y-81709636D01*
X118762952Y-81721459D01*
X118753066Y-81732366D01*
X118742159Y-81742252D01*
X118730336Y-81751020D01*
X118717710Y-81758588D01*
X118704403Y-81764882D01*
X118690543Y-81769841D01*
X118676264Y-81773418D01*
X118661703Y-81775578D01*
X118647000Y-81776300D01*
X116997000Y-81776300D01*
X116982297Y-81775578D01*
X116967736Y-81773418D01*
X116953457Y-81769841D01*
X116939597Y-81764882D01*
X116926290Y-81758588D01*
X116913664Y-81751020D01*
X116901841Y-81742252D01*
X116890934Y-81732366D01*
X116881048Y-81721459D01*
X116872280Y-81709636D01*
X116864712Y-81697010D01*
X116858418Y-81683703D01*
X116853459Y-81669843D01*
X116849882Y-81655564D01*
X116847722Y-81641003D01*
X116847000Y-81626300D01*
X116847000Y-81326300D01*
X116847722Y-81311597D01*
X116849882Y-81297036D01*
X116853459Y-81282757D01*
X116858418Y-81268897D01*
X116864712Y-81255590D01*
X116872280Y-81242964D01*
X116881048Y-81231141D01*
X116890934Y-81220234D01*
X116901841Y-81210348D01*
X116913664Y-81201580D01*
X116926290Y-81194012D01*
X116939597Y-81187718D01*
X116953457Y-81182759D01*
X116967736Y-81179182D01*
X116982297Y-81177022D01*
X116997000Y-81176300D01*
X118647000Y-81176300D01*
X118661703Y-81177022D01*
G37*
G36*
X118661703Y-82447022D02*
G01*
X118676264Y-82449182D01*
X118690543Y-82452759D01*
X118704403Y-82457718D01*
X118717710Y-82464012D01*
X118730336Y-82471580D01*
X118742159Y-82480348D01*
X118753066Y-82490234D01*
X118762952Y-82501141D01*
X118771720Y-82512964D01*
X118779288Y-82525590D01*
X118785582Y-82538897D01*
X118790541Y-82552757D01*
X118794118Y-82567036D01*
X118796278Y-82581597D01*
X118797000Y-82596300D01*
X118797000Y-82896300D01*
X118796278Y-82911003D01*
X118794118Y-82925564D01*
X118790541Y-82939843D01*
X118785582Y-82953703D01*
X118779288Y-82967010D01*
X118771720Y-82979636D01*
X118762952Y-82991459D01*
X118753066Y-83002366D01*
X118742159Y-83012252D01*
X118730336Y-83021020D01*
X118717710Y-83028588D01*
X118704403Y-83034882D01*
X118690543Y-83039841D01*
X118676264Y-83043418D01*
X118661703Y-83045578D01*
X118647000Y-83046300D01*
X116997000Y-83046300D01*
X116982297Y-83045578D01*
X116967736Y-83043418D01*
X116953457Y-83039841D01*
X116939597Y-83034882D01*
X116926290Y-83028588D01*
X116913664Y-83021020D01*
X116901841Y-83012252D01*
X116890934Y-83002366D01*
X116881048Y-82991459D01*
X116872280Y-82979636D01*
X116864712Y-82967010D01*
X116858418Y-82953703D01*
X116853459Y-82939843D01*
X116849882Y-82925564D01*
X116847722Y-82911003D01*
X116847000Y-82896300D01*
X116847000Y-82596300D01*
X116847722Y-82581597D01*
X116849882Y-82567036D01*
X116853459Y-82552757D01*
X116858418Y-82538897D01*
X116864712Y-82525590D01*
X116872280Y-82512964D01*
X116881048Y-82501141D01*
X116890934Y-82490234D01*
X116901841Y-82480348D01*
X116913664Y-82471580D01*
X116926290Y-82464012D01*
X116939597Y-82457718D01*
X116953457Y-82452759D01*
X116967736Y-82449182D01*
X116982297Y-82447022D01*
X116997000Y-82446300D01*
X118647000Y-82446300D01*
X118661703Y-82447022D01*
G37*
G36*
X115712703Y-98080722D02*
G01*
X115727264Y-98082882D01*
X115741543Y-98086459D01*
X115755403Y-98091418D01*
X115768710Y-98097712D01*
X115781336Y-98105280D01*
X115793159Y-98114048D01*
X115804066Y-98123934D01*
X115813952Y-98134841D01*
X115822720Y-98146664D01*
X115830288Y-98159290D01*
X115836582Y-98172597D01*
X115841541Y-98186457D01*
X115845118Y-98200736D01*
X115847278Y-98215297D01*
X115848000Y-98230000D01*
X115848000Y-98530000D01*
X115847278Y-98544703D01*
X115845118Y-98559264D01*
X115841541Y-98573543D01*
X115836582Y-98587403D01*
X115830288Y-98600710D01*
X115822720Y-98613336D01*
X115813952Y-98625159D01*
X115804066Y-98636066D01*
X115793159Y-98645952D01*
X115781336Y-98654720D01*
X115768710Y-98662288D01*
X115755403Y-98668582D01*
X115741543Y-98673541D01*
X115727264Y-98677118D01*
X115712703Y-98679278D01*
X115698000Y-98680000D01*
X114048000Y-98680000D01*
X114033297Y-98679278D01*
X114018736Y-98677118D01*
X114004457Y-98673541D01*
X113990597Y-98668582D01*
X113977290Y-98662288D01*
X113964664Y-98654720D01*
X113952841Y-98645952D01*
X113941934Y-98636066D01*
X113932048Y-98625159D01*
X113923280Y-98613336D01*
X113915712Y-98600710D01*
X113909418Y-98587403D01*
X113904459Y-98573543D01*
X113900882Y-98559264D01*
X113898722Y-98544703D01*
X113898000Y-98530000D01*
X113898000Y-98230000D01*
X113898722Y-98215297D01*
X113900882Y-98200736D01*
X113904459Y-98186457D01*
X113909418Y-98172597D01*
X113915712Y-98159290D01*
X113923280Y-98146664D01*
X113932048Y-98134841D01*
X113941934Y-98123934D01*
X113952841Y-98114048D01*
X113964664Y-98105280D01*
X113977290Y-98097712D01*
X113990597Y-98091418D01*
X114004457Y-98086459D01*
X114018736Y-98082882D01*
X114033297Y-98080722D01*
X114048000Y-98080000D01*
X115698000Y-98080000D01*
X115712703Y-98080722D01*
G37*
G36*
X115712703Y-96810722D02*
G01*
X115727264Y-96812882D01*
X115741543Y-96816459D01*
X115755403Y-96821418D01*
X115768710Y-96827712D01*
X115781336Y-96835280D01*
X115793159Y-96844048D01*
X115804066Y-96853934D01*
X115813952Y-96864841D01*
X115822720Y-96876664D01*
X115830288Y-96889290D01*
X115836582Y-96902597D01*
X115841541Y-96916457D01*
X115845118Y-96930736D01*
X115847278Y-96945297D01*
X115848000Y-96960000D01*
X115848000Y-97260000D01*
X115847278Y-97274703D01*
X115845118Y-97289264D01*
X115841541Y-97303543D01*
X115836582Y-97317403D01*
X115830288Y-97330710D01*
X115822720Y-97343336D01*
X115813952Y-97355159D01*
X115804066Y-97366066D01*
X115793159Y-97375952D01*
X115781336Y-97384720D01*
X115768710Y-97392288D01*
X115755403Y-97398582D01*
X115741543Y-97403541D01*
X115727264Y-97407118D01*
X115712703Y-97409278D01*
X115698000Y-97410000D01*
X114048000Y-97410000D01*
X114033297Y-97409278D01*
X114018736Y-97407118D01*
X114004457Y-97403541D01*
X113990597Y-97398582D01*
X113977290Y-97392288D01*
X113964664Y-97384720D01*
X113952841Y-97375952D01*
X113941934Y-97366066D01*
X113932048Y-97355159D01*
X113923280Y-97343336D01*
X113915712Y-97330710D01*
X113909418Y-97317403D01*
X113904459Y-97303543D01*
X113900882Y-97289264D01*
X113898722Y-97274703D01*
X113898000Y-97260000D01*
X113898000Y-96960000D01*
X113898722Y-96945297D01*
X113900882Y-96930736D01*
X113904459Y-96916457D01*
X113909418Y-96902597D01*
X113915712Y-96889290D01*
X113923280Y-96876664D01*
X113932048Y-96864841D01*
X113941934Y-96853934D01*
X113952841Y-96844048D01*
X113964664Y-96835280D01*
X113977290Y-96827712D01*
X113990597Y-96821418D01*
X114004457Y-96816459D01*
X114018736Y-96812882D01*
X114033297Y-96810722D01*
X114048000Y-96810000D01*
X115698000Y-96810000D01*
X115712703Y-96810722D01*
G37*
G36*
X115712703Y-95540722D02*
G01*
X115727264Y-95542882D01*
X115741543Y-95546459D01*
X115755403Y-95551418D01*
X115768710Y-95557712D01*
X115781336Y-95565280D01*
X115793159Y-95574048D01*
X115804066Y-95583934D01*
X115813952Y-95594841D01*
X115822720Y-95606664D01*
X115830288Y-95619290D01*
X115836582Y-95632597D01*
X115841541Y-95646457D01*
X115845118Y-95660736D01*
X115847278Y-95675297D01*
X115848000Y-95690000D01*
X115848000Y-95990000D01*
X115847278Y-96004703D01*
X115845118Y-96019264D01*
X115841541Y-96033543D01*
X115836582Y-96047403D01*
X115830288Y-96060710D01*
X115822720Y-96073336D01*
X115813952Y-96085159D01*
X115804066Y-96096066D01*
X115793159Y-96105952D01*
X115781336Y-96114720D01*
X115768710Y-96122288D01*
X115755403Y-96128582D01*
X115741543Y-96133541D01*
X115727264Y-96137118D01*
X115712703Y-96139278D01*
X115698000Y-96140000D01*
X114048000Y-96140000D01*
X114033297Y-96139278D01*
X114018736Y-96137118D01*
X114004457Y-96133541D01*
X113990597Y-96128582D01*
X113977290Y-96122288D01*
X113964664Y-96114720D01*
X113952841Y-96105952D01*
X113941934Y-96096066D01*
X113932048Y-96085159D01*
X113923280Y-96073336D01*
X113915712Y-96060710D01*
X113909418Y-96047403D01*
X113904459Y-96033543D01*
X113900882Y-96019264D01*
X113898722Y-96004703D01*
X113898000Y-95990000D01*
X113898000Y-95690000D01*
X113898722Y-95675297D01*
X113900882Y-95660736D01*
X113904459Y-95646457D01*
X113909418Y-95632597D01*
X113915712Y-95619290D01*
X113923280Y-95606664D01*
X113932048Y-95594841D01*
X113941934Y-95583934D01*
X113952841Y-95574048D01*
X113964664Y-95565280D01*
X113977290Y-95557712D01*
X113990597Y-95551418D01*
X114004457Y-95546459D01*
X114018736Y-95542882D01*
X114033297Y-95540722D01*
X114048000Y-95540000D01*
X115698000Y-95540000D01*
X115712703Y-95540722D01*
G37*
G36*
X115712703Y-94270722D02*
G01*
X115727264Y-94272882D01*
X115741543Y-94276459D01*
X115755403Y-94281418D01*
X115768710Y-94287712D01*
X115781336Y-94295280D01*
X115793159Y-94304048D01*
X115804066Y-94313934D01*
X115813952Y-94324841D01*
X115822720Y-94336664D01*
X115830288Y-94349290D01*
X115836582Y-94362597D01*
X115841541Y-94376457D01*
X115845118Y-94390736D01*
X115847278Y-94405297D01*
X115848000Y-94420000D01*
X115848000Y-94720000D01*
X115847278Y-94734703D01*
X115845118Y-94749264D01*
X115841541Y-94763543D01*
X115836582Y-94777403D01*
X115830288Y-94790710D01*
X115822720Y-94803336D01*
X115813952Y-94815159D01*
X115804066Y-94826066D01*
X115793159Y-94835952D01*
X115781336Y-94844720D01*
X115768710Y-94852288D01*
X115755403Y-94858582D01*
X115741543Y-94863541D01*
X115727264Y-94867118D01*
X115712703Y-94869278D01*
X115698000Y-94870000D01*
X114048000Y-94870000D01*
X114033297Y-94869278D01*
X114018736Y-94867118D01*
X114004457Y-94863541D01*
X113990597Y-94858582D01*
X113977290Y-94852288D01*
X113964664Y-94844720D01*
X113952841Y-94835952D01*
X113941934Y-94826066D01*
X113932048Y-94815159D01*
X113923280Y-94803336D01*
X113915712Y-94790710D01*
X113909418Y-94777403D01*
X113904459Y-94763543D01*
X113900882Y-94749264D01*
X113898722Y-94734703D01*
X113898000Y-94720000D01*
X113898000Y-94420000D01*
X113898722Y-94405297D01*
X113900882Y-94390736D01*
X113904459Y-94376457D01*
X113909418Y-94362597D01*
X113915712Y-94349290D01*
X113923280Y-94336664D01*
X113932048Y-94324841D01*
X113941934Y-94313934D01*
X113952841Y-94304048D01*
X113964664Y-94295280D01*
X113977290Y-94287712D01*
X113990597Y-94281418D01*
X114004457Y-94276459D01*
X114018736Y-94272882D01*
X114033297Y-94270722D01*
X114048000Y-94270000D01*
X115698000Y-94270000D01*
X115712703Y-94270722D01*
G37*
G36*
X115712703Y-93000722D02*
G01*
X115727264Y-93002882D01*
X115741543Y-93006459D01*
X115755403Y-93011418D01*
X115768710Y-93017712D01*
X115781336Y-93025280D01*
X115793159Y-93034048D01*
X115804066Y-93043934D01*
X115813952Y-93054841D01*
X115822720Y-93066664D01*
X115830288Y-93079290D01*
X115836582Y-93092597D01*
X115841541Y-93106457D01*
X115845118Y-93120736D01*
X115847278Y-93135297D01*
X115848000Y-93150000D01*
X115848000Y-93450000D01*
X115847278Y-93464703D01*
X115845118Y-93479264D01*
X115841541Y-93493543D01*
X115836582Y-93507403D01*
X115830288Y-93520710D01*
X115822720Y-93533336D01*
X115813952Y-93545159D01*
X115804066Y-93556066D01*
X115793159Y-93565952D01*
X115781336Y-93574720D01*
X115768710Y-93582288D01*
X115755403Y-93588582D01*
X115741543Y-93593541D01*
X115727264Y-93597118D01*
X115712703Y-93599278D01*
X115698000Y-93600000D01*
X114048000Y-93600000D01*
X114033297Y-93599278D01*
X114018736Y-93597118D01*
X114004457Y-93593541D01*
X113990597Y-93588582D01*
X113977290Y-93582288D01*
X113964664Y-93574720D01*
X113952841Y-93565952D01*
X113941934Y-93556066D01*
X113932048Y-93545159D01*
X113923280Y-93533336D01*
X113915712Y-93520710D01*
X113909418Y-93507403D01*
X113904459Y-93493543D01*
X113900882Y-93479264D01*
X113898722Y-93464703D01*
X113898000Y-93450000D01*
X113898000Y-93150000D01*
X113898722Y-93135297D01*
X113900882Y-93120736D01*
X113904459Y-93106457D01*
X113909418Y-93092597D01*
X113915712Y-93079290D01*
X113923280Y-93066664D01*
X113932048Y-93054841D01*
X113941934Y-93043934D01*
X113952841Y-93034048D01*
X113964664Y-93025280D01*
X113977290Y-93017712D01*
X113990597Y-93011418D01*
X114004457Y-93006459D01*
X114018736Y-93002882D01*
X114033297Y-93000722D01*
X114048000Y-93000000D01*
X115698000Y-93000000D01*
X115712703Y-93000722D01*
G37*
G36*
X115712703Y-91730722D02*
G01*
X115727264Y-91732882D01*
X115741543Y-91736459D01*
X115755403Y-91741418D01*
X115768710Y-91747712D01*
X115781336Y-91755280D01*
X115793159Y-91764048D01*
X115804066Y-91773934D01*
X115813952Y-91784841D01*
X115822720Y-91796664D01*
X115830288Y-91809290D01*
X115836582Y-91822597D01*
X115841541Y-91836457D01*
X115845118Y-91850736D01*
X115847278Y-91865297D01*
X115848000Y-91880000D01*
X115848000Y-92180000D01*
X115847278Y-92194703D01*
X115845118Y-92209264D01*
X115841541Y-92223543D01*
X115836582Y-92237403D01*
X115830288Y-92250710D01*
X115822720Y-92263336D01*
X115813952Y-92275159D01*
X115804066Y-92286066D01*
X115793159Y-92295952D01*
X115781336Y-92304720D01*
X115768710Y-92312288D01*
X115755403Y-92318582D01*
X115741543Y-92323541D01*
X115727264Y-92327118D01*
X115712703Y-92329278D01*
X115698000Y-92330000D01*
X114048000Y-92330000D01*
X114033297Y-92329278D01*
X114018736Y-92327118D01*
X114004457Y-92323541D01*
X113990597Y-92318582D01*
X113977290Y-92312288D01*
X113964664Y-92304720D01*
X113952841Y-92295952D01*
X113941934Y-92286066D01*
X113932048Y-92275159D01*
X113923280Y-92263336D01*
X113915712Y-92250710D01*
X113909418Y-92237403D01*
X113904459Y-92223543D01*
X113900882Y-92209264D01*
X113898722Y-92194703D01*
X113898000Y-92180000D01*
X113898000Y-91880000D01*
X113898722Y-91865297D01*
X113900882Y-91850736D01*
X113904459Y-91836457D01*
X113909418Y-91822597D01*
X113915712Y-91809290D01*
X113923280Y-91796664D01*
X113932048Y-91784841D01*
X113941934Y-91773934D01*
X113952841Y-91764048D01*
X113964664Y-91755280D01*
X113977290Y-91747712D01*
X113990597Y-91741418D01*
X114004457Y-91736459D01*
X114018736Y-91732882D01*
X114033297Y-91730722D01*
X114048000Y-91730000D01*
X115698000Y-91730000D01*
X115712703Y-91730722D01*
G37*
G36*
X115712703Y-90460722D02*
G01*
X115727264Y-90462882D01*
X115741543Y-90466459D01*
X115755403Y-90471418D01*
X115768710Y-90477712D01*
X115781336Y-90485280D01*
X115793159Y-90494048D01*
X115804066Y-90503934D01*
X115813952Y-90514841D01*
X115822720Y-90526664D01*
X115830288Y-90539290D01*
X115836582Y-90552597D01*
X115841541Y-90566457D01*
X115845118Y-90580736D01*
X115847278Y-90595297D01*
X115848000Y-90610000D01*
X115848000Y-90910000D01*
X115847278Y-90924703D01*
X115845118Y-90939264D01*
X115841541Y-90953543D01*
X115836582Y-90967403D01*
X115830288Y-90980710D01*
X115822720Y-90993336D01*
X115813952Y-91005159D01*
X115804066Y-91016066D01*
X115793159Y-91025952D01*
X115781336Y-91034720D01*
X115768710Y-91042288D01*
X115755403Y-91048582D01*
X115741543Y-91053541D01*
X115727264Y-91057118D01*
X115712703Y-91059278D01*
X115698000Y-91060000D01*
X114048000Y-91060000D01*
X114033297Y-91059278D01*
X114018736Y-91057118D01*
X114004457Y-91053541D01*
X113990597Y-91048582D01*
X113977290Y-91042288D01*
X113964664Y-91034720D01*
X113952841Y-91025952D01*
X113941934Y-91016066D01*
X113932048Y-91005159D01*
X113923280Y-90993336D01*
X113915712Y-90980710D01*
X113909418Y-90967403D01*
X113904459Y-90953543D01*
X113900882Y-90939264D01*
X113898722Y-90924703D01*
X113898000Y-90910000D01*
X113898000Y-90610000D01*
X113898722Y-90595297D01*
X113900882Y-90580736D01*
X113904459Y-90566457D01*
X113909418Y-90552597D01*
X113915712Y-90539290D01*
X113923280Y-90526664D01*
X113932048Y-90514841D01*
X113941934Y-90503934D01*
X113952841Y-90494048D01*
X113964664Y-90485280D01*
X113977290Y-90477712D01*
X113990597Y-90471418D01*
X114004457Y-90466459D01*
X114018736Y-90462882D01*
X114033297Y-90460722D01*
X114048000Y-90460000D01*
X115698000Y-90460000D01*
X115712703Y-90460722D01*
G37*
G36*
X110762703Y-90460722D02*
G01*
X110777264Y-90462882D01*
X110791543Y-90466459D01*
X110805403Y-90471418D01*
X110818710Y-90477712D01*
X110831336Y-90485280D01*
X110843159Y-90494048D01*
X110854066Y-90503934D01*
X110863952Y-90514841D01*
X110872720Y-90526664D01*
X110880288Y-90539290D01*
X110886582Y-90552597D01*
X110891541Y-90566457D01*
X110895118Y-90580736D01*
X110897278Y-90595297D01*
X110898000Y-90610000D01*
X110898000Y-90910000D01*
X110897278Y-90924703D01*
X110895118Y-90939264D01*
X110891541Y-90953543D01*
X110886582Y-90967403D01*
X110880288Y-90980710D01*
X110872720Y-90993336D01*
X110863952Y-91005159D01*
X110854066Y-91016066D01*
X110843159Y-91025952D01*
X110831336Y-91034720D01*
X110818710Y-91042288D01*
X110805403Y-91048582D01*
X110791543Y-91053541D01*
X110777264Y-91057118D01*
X110762703Y-91059278D01*
X110748000Y-91060000D01*
X109098000Y-91060000D01*
X109083297Y-91059278D01*
X109068736Y-91057118D01*
X109054457Y-91053541D01*
X109040597Y-91048582D01*
X109027290Y-91042288D01*
X109014664Y-91034720D01*
X109002841Y-91025952D01*
X108991934Y-91016066D01*
X108982048Y-91005159D01*
X108973280Y-90993336D01*
X108965712Y-90980710D01*
X108959418Y-90967403D01*
X108954459Y-90953543D01*
X108950882Y-90939264D01*
X108948722Y-90924703D01*
X108948000Y-90910000D01*
X108948000Y-90610000D01*
X108948722Y-90595297D01*
X108950882Y-90580736D01*
X108954459Y-90566457D01*
X108959418Y-90552597D01*
X108965712Y-90539290D01*
X108973280Y-90526664D01*
X108982048Y-90514841D01*
X108991934Y-90503934D01*
X109002841Y-90494048D01*
X109014664Y-90485280D01*
X109027290Y-90477712D01*
X109040597Y-90471418D01*
X109054457Y-90466459D01*
X109068736Y-90462882D01*
X109083297Y-90460722D01*
X109098000Y-90460000D01*
X110748000Y-90460000D01*
X110762703Y-90460722D01*
G37*
G36*
X110762703Y-91730722D02*
G01*
X110777264Y-91732882D01*
X110791543Y-91736459D01*
X110805403Y-91741418D01*
X110818710Y-91747712D01*
X110831336Y-91755280D01*
X110843159Y-91764048D01*
X110854066Y-91773934D01*
X110863952Y-91784841D01*
X110872720Y-91796664D01*
X110880288Y-91809290D01*
X110886582Y-91822597D01*
X110891541Y-91836457D01*
X110895118Y-91850736D01*
X110897278Y-91865297D01*
X110898000Y-91880000D01*
X110898000Y-92180000D01*
X110897278Y-92194703D01*
X110895118Y-92209264D01*
X110891541Y-92223543D01*
X110886582Y-92237403D01*
X110880288Y-92250710D01*
X110872720Y-92263336D01*
X110863952Y-92275159D01*
X110854066Y-92286066D01*
X110843159Y-92295952D01*
X110831336Y-92304720D01*
X110818710Y-92312288D01*
X110805403Y-92318582D01*
X110791543Y-92323541D01*
X110777264Y-92327118D01*
X110762703Y-92329278D01*
X110748000Y-92330000D01*
X109098000Y-92330000D01*
X109083297Y-92329278D01*
X109068736Y-92327118D01*
X109054457Y-92323541D01*
X109040597Y-92318582D01*
X109027290Y-92312288D01*
X109014664Y-92304720D01*
X109002841Y-92295952D01*
X108991934Y-92286066D01*
X108982048Y-92275159D01*
X108973280Y-92263336D01*
X108965712Y-92250710D01*
X108959418Y-92237403D01*
X108954459Y-92223543D01*
X108950882Y-92209264D01*
X108948722Y-92194703D01*
X108948000Y-92180000D01*
X108948000Y-91880000D01*
X108948722Y-91865297D01*
X108950882Y-91850736D01*
X108954459Y-91836457D01*
X108959418Y-91822597D01*
X108965712Y-91809290D01*
X108973280Y-91796664D01*
X108982048Y-91784841D01*
X108991934Y-91773934D01*
X109002841Y-91764048D01*
X109014664Y-91755280D01*
X109027290Y-91747712D01*
X109040597Y-91741418D01*
X109054457Y-91736459D01*
X109068736Y-91732882D01*
X109083297Y-91730722D01*
X109098000Y-91730000D01*
X110748000Y-91730000D01*
X110762703Y-91730722D01*
G37*
G36*
X110762703Y-93000722D02*
G01*
X110777264Y-93002882D01*
X110791543Y-93006459D01*
X110805403Y-93011418D01*
X110818710Y-93017712D01*
X110831336Y-93025280D01*
X110843159Y-93034048D01*
X110854066Y-93043934D01*
X110863952Y-93054841D01*
X110872720Y-93066664D01*
X110880288Y-93079290D01*
X110886582Y-93092597D01*
X110891541Y-93106457D01*
X110895118Y-93120736D01*
X110897278Y-93135297D01*
X110898000Y-93150000D01*
X110898000Y-93450000D01*
X110897278Y-93464703D01*
X110895118Y-93479264D01*
X110891541Y-93493543D01*
X110886582Y-93507403D01*
X110880288Y-93520710D01*
X110872720Y-93533336D01*
X110863952Y-93545159D01*
X110854066Y-93556066D01*
X110843159Y-93565952D01*
X110831336Y-93574720D01*
X110818710Y-93582288D01*
X110805403Y-93588582D01*
X110791543Y-93593541D01*
X110777264Y-93597118D01*
X110762703Y-93599278D01*
X110748000Y-93600000D01*
X109098000Y-93600000D01*
X109083297Y-93599278D01*
X109068736Y-93597118D01*
X109054457Y-93593541D01*
X109040597Y-93588582D01*
X109027290Y-93582288D01*
X109014664Y-93574720D01*
X109002841Y-93565952D01*
X108991934Y-93556066D01*
X108982048Y-93545159D01*
X108973280Y-93533336D01*
X108965712Y-93520710D01*
X108959418Y-93507403D01*
X108954459Y-93493543D01*
X108950882Y-93479264D01*
X108948722Y-93464703D01*
X108948000Y-93450000D01*
X108948000Y-93150000D01*
X108948722Y-93135297D01*
X108950882Y-93120736D01*
X108954459Y-93106457D01*
X108959418Y-93092597D01*
X108965712Y-93079290D01*
X108973280Y-93066664D01*
X108982048Y-93054841D01*
X108991934Y-93043934D01*
X109002841Y-93034048D01*
X109014664Y-93025280D01*
X109027290Y-93017712D01*
X109040597Y-93011418D01*
X109054457Y-93006459D01*
X109068736Y-93002882D01*
X109083297Y-93000722D01*
X109098000Y-93000000D01*
X110748000Y-93000000D01*
X110762703Y-93000722D01*
G37*
G36*
X110762703Y-94270722D02*
G01*
X110777264Y-94272882D01*
X110791543Y-94276459D01*
X110805403Y-94281418D01*
X110818710Y-94287712D01*
X110831336Y-94295280D01*
X110843159Y-94304048D01*
X110854066Y-94313934D01*
X110863952Y-94324841D01*
X110872720Y-94336664D01*
X110880288Y-94349290D01*
X110886582Y-94362597D01*
X110891541Y-94376457D01*
X110895118Y-94390736D01*
X110897278Y-94405297D01*
X110898000Y-94420000D01*
X110898000Y-94720000D01*
X110897278Y-94734703D01*
X110895118Y-94749264D01*
X110891541Y-94763543D01*
X110886582Y-94777403D01*
X110880288Y-94790710D01*
X110872720Y-94803336D01*
X110863952Y-94815159D01*
X110854066Y-94826066D01*
X110843159Y-94835952D01*
X110831336Y-94844720D01*
X110818710Y-94852288D01*
X110805403Y-94858582D01*
X110791543Y-94863541D01*
X110777264Y-94867118D01*
X110762703Y-94869278D01*
X110748000Y-94870000D01*
X109098000Y-94870000D01*
X109083297Y-94869278D01*
X109068736Y-94867118D01*
X109054457Y-94863541D01*
X109040597Y-94858582D01*
X109027290Y-94852288D01*
X109014664Y-94844720D01*
X109002841Y-94835952D01*
X108991934Y-94826066D01*
X108982048Y-94815159D01*
X108973280Y-94803336D01*
X108965712Y-94790710D01*
X108959418Y-94777403D01*
X108954459Y-94763543D01*
X108950882Y-94749264D01*
X108948722Y-94734703D01*
X108948000Y-94720000D01*
X108948000Y-94420000D01*
X108948722Y-94405297D01*
X108950882Y-94390736D01*
X108954459Y-94376457D01*
X108959418Y-94362597D01*
X108965712Y-94349290D01*
X108973280Y-94336664D01*
X108982048Y-94324841D01*
X108991934Y-94313934D01*
X109002841Y-94304048D01*
X109014664Y-94295280D01*
X109027290Y-94287712D01*
X109040597Y-94281418D01*
X109054457Y-94276459D01*
X109068736Y-94272882D01*
X109083297Y-94270722D01*
X109098000Y-94270000D01*
X110748000Y-94270000D01*
X110762703Y-94270722D01*
G37*
G36*
X110762703Y-95540722D02*
G01*
X110777264Y-95542882D01*
X110791543Y-95546459D01*
X110805403Y-95551418D01*
X110818710Y-95557712D01*
X110831336Y-95565280D01*
X110843159Y-95574048D01*
X110854066Y-95583934D01*
X110863952Y-95594841D01*
X110872720Y-95606664D01*
X110880288Y-95619290D01*
X110886582Y-95632597D01*
X110891541Y-95646457D01*
X110895118Y-95660736D01*
X110897278Y-95675297D01*
X110898000Y-95690000D01*
X110898000Y-95990000D01*
X110897278Y-96004703D01*
X110895118Y-96019264D01*
X110891541Y-96033543D01*
X110886582Y-96047403D01*
X110880288Y-96060710D01*
X110872720Y-96073336D01*
X110863952Y-96085159D01*
X110854066Y-96096066D01*
X110843159Y-96105952D01*
X110831336Y-96114720D01*
X110818710Y-96122288D01*
X110805403Y-96128582D01*
X110791543Y-96133541D01*
X110777264Y-96137118D01*
X110762703Y-96139278D01*
X110748000Y-96140000D01*
X109098000Y-96140000D01*
X109083297Y-96139278D01*
X109068736Y-96137118D01*
X109054457Y-96133541D01*
X109040597Y-96128582D01*
X109027290Y-96122288D01*
X109014664Y-96114720D01*
X109002841Y-96105952D01*
X108991934Y-96096066D01*
X108982048Y-96085159D01*
X108973280Y-96073336D01*
X108965712Y-96060710D01*
X108959418Y-96047403D01*
X108954459Y-96033543D01*
X108950882Y-96019264D01*
X108948722Y-96004703D01*
X108948000Y-95990000D01*
X108948000Y-95690000D01*
X108948722Y-95675297D01*
X108950882Y-95660736D01*
X108954459Y-95646457D01*
X108959418Y-95632597D01*
X108965712Y-95619290D01*
X108973280Y-95606664D01*
X108982048Y-95594841D01*
X108991934Y-95583934D01*
X109002841Y-95574048D01*
X109014664Y-95565280D01*
X109027290Y-95557712D01*
X109040597Y-95551418D01*
X109054457Y-95546459D01*
X109068736Y-95542882D01*
X109083297Y-95540722D01*
X109098000Y-95540000D01*
X110748000Y-95540000D01*
X110762703Y-95540722D01*
G37*
G36*
X110762703Y-96810722D02*
G01*
X110777264Y-96812882D01*
X110791543Y-96816459D01*
X110805403Y-96821418D01*
X110818710Y-96827712D01*
X110831336Y-96835280D01*
X110843159Y-96844048D01*
X110854066Y-96853934D01*
X110863952Y-96864841D01*
X110872720Y-96876664D01*
X110880288Y-96889290D01*
X110886582Y-96902597D01*
X110891541Y-96916457D01*
X110895118Y-96930736D01*
X110897278Y-96945297D01*
X110898000Y-96960000D01*
X110898000Y-97260000D01*
X110897278Y-97274703D01*
X110895118Y-97289264D01*
X110891541Y-97303543D01*
X110886582Y-97317403D01*
X110880288Y-97330710D01*
X110872720Y-97343336D01*
X110863952Y-97355159D01*
X110854066Y-97366066D01*
X110843159Y-97375952D01*
X110831336Y-97384720D01*
X110818710Y-97392288D01*
X110805403Y-97398582D01*
X110791543Y-97403541D01*
X110777264Y-97407118D01*
X110762703Y-97409278D01*
X110748000Y-97410000D01*
X109098000Y-97410000D01*
X109083297Y-97409278D01*
X109068736Y-97407118D01*
X109054457Y-97403541D01*
X109040597Y-97398582D01*
X109027290Y-97392288D01*
X109014664Y-97384720D01*
X109002841Y-97375952D01*
X108991934Y-97366066D01*
X108982048Y-97355159D01*
X108973280Y-97343336D01*
X108965712Y-97330710D01*
X108959418Y-97317403D01*
X108954459Y-97303543D01*
X108950882Y-97289264D01*
X108948722Y-97274703D01*
X108948000Y-97260000D01*
X108948000Y-96960000D01*
X108948722Y-96945297D01*
X108950882Y-96930736D01*
X108954459Y-96916457D01*
X108959418Y-96902597D01*
X108965712Y-96889290D01*
X108973280Y-96876664D01*
X108982048Y-96864841D01*
X108991934Y-96853934D01*
X109002841Y-96844048D01*
X109014664Y-96835280D01*
X109027290Y-96827712D01*
X109040597Y-96821418D01*
X109054457Y-96816459D01*
X109068736Y-96812882D01*
X109083297Y-96810722D01*
X109098000Y-96810000D01*
X110748000Y-96810000D01*
X110762703Y-96810722D01*
G37*
G36*
X110762703Y-98080722D02*
G01*
X110777264Y-98082882D01*
X110791543Y-98086459D01*
X110805403Y-98091418D01*
X110818710Y-98097712D01*
X110831336Y-98105280D01*
X110843159Y-98114048D01*
X110854066Y-98123934D01*
X110863952Y-98134841D01*
X110872720Y-98146664D01*
X110880288Y-98159290D01*
X110886582Y-98172597D01*
X110891541Y-98186457D01*
X110895118Y-98200736D01*
X110897278Y-98215297D01*
X110898000Y-98230000D01*
X110898000Y-98530000D01*
X110897278Y-98544703D01*
X110895118Y-98559264D01*
X110891541Y-98573543D01*
X110886582Y-98587403D01*
X110880288Y-98600710D01*
X110872720Y-98613336D01*
X110863952Y-98625159D01*
X110854066Y-98636066D01*
X110843159Y-98645952D01*
X110831336Y-98654720D01*
X110818710Y-98662288D01*
X110805403Y-98668582D01*
X110791543Y-98673541D01*
X110777264Y-98677118D01*
X110762703Y-98679278D01*
X110748000Y-98680000D01*
X109098000Y-98680000D01*
X109083297Y-98679278D01*
X109068736Y-98677118D01*
X109054457Y-98673541D01*
X109040597Y-98668582D01*
X109027290Y-98662288D01*
X109014664Y-98654720D01*
X109002841Y-98645952D01*
X108991934Y-98636066D01*
X108982048Y-98625159D01*
X108973280Y-98613336D01*
X108965712Y-98600710D01*
X108959418Y-98587403D01*
X108954459Y-98573543D01*
X108950882Y-98559264D01*
X108948722Y-98544703D01*
X108948000Y-98530000D01*
X108948000Y-98230000D01*
X108948722Y-98215297D01*
X108950882Y-98200736D01*
X108954459Y-98186457D01*
X108959418Y-98172597D01*
X108965712Y-98159290D01*
X108973280Y-98146664D01*
X108982048Y-98134841D01*
X108991934Y-98123934D01*
X109002841Y-98114048D01*
X109014664Y-98105280D01*
X109027290Y-98097712D01*
X109040597Y-98091418D01*
X109054457Y-98086459D01*
X109068736Y-98082882D01*
X109083297Y-98080722D01*
X109098000Y-98080000D01*
X110748000Y-98080000D01*
X110762703Y-98080722D01*
G37*
G36*
X115269703Y-118400722D02*
G01*
X115284264Y-118402882D01*
X115298543Y-118406459D01*
X115312403Y-118411418D01*
X115325710Y-118417712D01*
X115338336Y-118425280D01*
X115350159Y-118434048D01*
X115361066Y-118443934D01*
X115370952Y-118454841D01*
X115379720Y-118466664D01*
X115387288Y-118479290D01*
X115393582Y-118492597D01*
X115398541Y-118506457D01*
X115402118Y-118520736D01*
X115404278Y-118535297D01*
X115405000Y-118550000D01*
X115405000Y-118850000D01*
X115404278Y-118864703D01*
X115402118Y-118879264D01*
X115398541Y-118893543D01*
X115393582Y-118907403D01*
X115387288Y-118920710D01*
X115379720Y-118933336D01*
X115370952Y-118945159D01*
X115361066Y-118956066D01*
X115350159Y-118965952D01*
X115338336Y-118974720D01*
X115325710Y-118982288D01*
X115312403Y-118988582D01*
X115298543Y-118993541D01*
X115284264Y-118997118D01*
X115269703Y-118999278D01*
X115255000Y-119000000D01*
X113605000Y-119000000D01*
X113590297Y-118999278D01*
X113575736Y-118997118D01*
X113561457Y-118993541D01*
X113547597Y-118988582D01*
X113534290Y-118982288D01*
X113521664Y-118974720D01*
X113509841Y-118965952D01*
X113498934Y-118956066D01*
X113489048Y-118945159D01*
X113480280Y-118933336D01*
X113472712Y-118920710D01*
X113466418Y-118907403D01*
X113461459Y-118893543D01*
X113457882Y-118879264D01*
X113455722Y-118864703D01*
X113455000Y-118850000D01*
X113455000Y-118550000D01*
X113455722Y-118535297D01*
X113457882Y-118520736D01*
X113461459Y-118506457D01*
X113466418Y-118492597D01*
X113472712Y-118479290D01*
X113480280Y-118466664D01*
X113489048Y-118454841D01*
X113498934Y-118443934D01*
X113509841Y-118434048D01*
X113521664Y-118425280D01*
X113534290Y-118417712D01*
X113547597Y-118411418D01*
X113561457Y-118406459D01*
X113575736Y-118402882D01*
X113590297Y-118400722D01*
X113605000Y-118400000D01*
X115255000Y-118400000D01*
X115269703Y-118400722D01*
G37*
G36*
X115269703Y-117130722D02*
G01*
X115284264Y-117132882D01*
X115298543Y-117136459D01*
X115312403Y-117141418D01*
X115325710Y-117147712D01*
X115338336Y-117155280D01*
X115350159Y-117164048D01*
X115361066Y-117173934D01*
X115370952Y-117184841D01*
X115379720Y-117196664D01*
X115387288Y-117209290D01*
X115393582Y-117222597D01*
X115398541Y-117236457D01*
X115402118Y-117250736D01*
X115404278Y-117265297D01*
X115405000Y-117280000D01*
X115405000Y-117580000D01*
X115404278Y-117594703D01*
X115402118Y-117609264D01*
X115398541Y-117623543D01*
X115393582Y-117637403D01*
X115387288Y-117650710D01*
X115379720Y-117663336D01*
X115370952Y-117675159D01*
X115361066Y-117686066D01*
X115350159Y-117695952D01*
X115338336Y-117704720D01*
X115325710Y-117712288D01*
X115312403Y-117718582D01*
X115298543Y-117723541D01*
X115284264Y-117727118D01*
X115269703Y-117729278D01*
X115255000Y-117730000D01*
X113605000Y-117730000D01*
X113590297Y-117729278D01*
X113575736Y-117727118D01*
X113561457Y-117723541D01*
X113547597Y-117718582D01*
X113534290Y-117712288D01*
X113521664Y-117704720D01*
X113509841Y-117695952D01*
X113498934Y-117686066D01*
X113489048Y-117675159D01*
X113480280Y-117663336D01*
X113472712Y-117650710D01*
X113466418Y-117637403D01*
X113461459Y-117623543D01*
X113457882Y-117609264D01*
X113455722Y-117594703D01*
X113455000Y-117580000D01*
X113455000Y-117280000D01*
X113455722Y-117265297D01*
X113457882Y-117250736D01*
X113461459Y-117236457D01*
X113466418Y-117222597D01*
X113472712Y-117209290D01*
X113480280Y-117196664D01*
X113489048Y-117184841D01*
X113498934Y-117173934D01*
X113509841Y-117164048D01*
X113521664Y-117155280D01*
X113534290Y-117147712D01*
X113547597Y-117141418D01*
X113561457Y-117136459D01*
X113575736Y-117132882D01*
X113590297Y-117130722D01*
X113605000Y-117130000D01*
X115255000Y-117130000D01*
X115269703Y-117130722D01*
G37*
G36*
X115269703Y-115860722D02*
G01*
X115284264Y-115862882D01*
X115298543Y-115866459D01*
X115312403Y-115871418D01*
X115325710Y-115877712D01*
X115338336Y-115885280D01*
X115350159Y-115894048D01*
X115361066Y-115903934D01*
X115370952Y-115914841D01*
X115379720Y-115926664D01*
X115387288Y-115939290D01*
X115393582Y-115952597D01*
X115398541Y-115966457D01*
X115402118Y-115980736D01*
X115404278Y-115995297D01*
X115405000Y-116010000D01*
X115405000Y-116310000D01*
X115404278Y-116324703D01*
X115402118Y-116339264D01*
X115398541Y-116353543D01*
X115393582Y-116367403D01*
X115387288Y-116380710D01*
X115379720Y-116393336D01*
X115370952Y-116405159D01*
X115361066Y-116416066D01*
X115350159Y-116425952D01*
X115338336Y-116434720D01*
X115325710Y-116442288D01*
X115312403Y-116448582D01*
X115298543Y-116453541D01*
X115284264Y-116457118D01*
X115269703Y-116459278D01*
X115255000Y-116460000D01*
X113605000Y-116460000D01*
X113590297Y-116459278D01*
X113575736Y-116457118D01*
X113561457Y-116453541D01*
X113547597Y-116448582D01*
X113534290Y-116442288D01*
X113521664Y-116434720D01*
X113509841Y-116425952D01*
X113498934Y-116416066D01*
X113489048Y-116405159D01*
X113480280Y-116393336D01*
X113472712Y-116380710D01*
X113466418Y-116367403D01*
X113461459Y-116353543D01*
X113457882Y-116339264D01*
X113455722Y-116324703D01*
X113455000Y-116310000D01*
X113455000Y-116010000D01*
X113455722Y-115995297D01*
X113457882Y-115980736D01*
X113461459Y-115966457D01*
X113466418Y-115952597D01*
X113472712Y-115939290D01*
X113480280Y-115926664D01*
X113489048Y-115914841D01*
X113498934Y-115903934D01*
X113509841Y-115894048D01*
X113521664Y-115885280D01*
X113534290Y-115877712D01*
X113547597Y-115871418D01*
X113561457Y-115866459D01*
X113575736Y-115862882D01*
X113590297Y-115860722D01*
X113605000Y-115860000D01*
X115255000Y-115860000D01*
X115269703Y-115860722D01*
G37*
G36*
X115269703Y-114590722D02*
G01*
X115284264Y-114592882D01*
X115298543Y-114596459D01*
X115312403Y-114601418D01*
X115325710Y-114607712D01*
X115338336Y-114615280D01*
X115350159Y-114624048D01*
X115361066Y-114633934D01*
X115370952Y-114644841D01*
X115379720Y-114656664D01*
X115387288Y-114669290D01*
X115393582Y-114682597D01*
X115398541Y-114696457D01*
X115402118Y-114710736D01*
X115404278Y-114725297D01*
X115405000Y-114740000D01*
X115405000Y-115040000D01*
X115404278Y-115054703D01*
X115402118Y-115069264D01*
X115398541Y-115083543D01*
X115393582Y-115097403D01*
X115387288Y-115110710D01*
X115379720Y-115123336D01*
X115370952Y-115135159D01*
X115361066Y-115146066D01*
X115350159Y-115155952D01*
X115338336Y-115164720D01*
X115325710Y-115172288D01*
X115312403Y-115178582D01*
X115298543Y-115183541D01*
X115284264Y-115187118D01*
X115269703Y-115189278D01*
X115255000Y-115190000D01*
X113605000Y-115190000D01*
X113590297Y-115189278D01*
X113575736Y-115187118D01*
X113561457Y-115183541D01*
X113547597Y-115178582D01*
X113534290Y-115172288D01*
X113521664Y-115164720D01*
X113509841Y-115155952D01*
X113498934Y-115146066D01*
X113489048Y-115135159D01*
X113480280Y-115123336D01*
X113472712Y-115110710D01*
X113466418Y-115097403D01*
X113461459Y-115083543D01*
X113457882Y-115069264D01*
X113455722Y-115054703D01*
X113455000Y-115040000D01*
X113455000Y-114740000D01*
X113455722Y-114725297D01*
X113457882Y-114710736D01*
X113461459Y-114696457D01*
X113466418Y-114682597D01*
X113472712Y-114669290D01*
X113480280Y-114656664D01*
X113489048Y-114644841D01*
X113498934Y-114633934D01*
X113509841Y-114624048D01*
X113521664Y-114615280D01*
X113534290Y-114607712D01*
X113547597Y-114601418D01*
X113561457Y-114596459D01*
X113575736Y-114592882D01*
X113590297Y-114590722D01*
X113605000Y-114590000D01*
X115255000Y-114590000D01*
X115269703Y-114590722D01*
G37*
G36*
X115269703Y-113320722D02*
G01*
X115284264Y-113322882D01*
X115298543Y-113326459D01*
X115312403Y-113331418D01*
X115325710Y-113337712D01*
X115338336Y-113345280D01*
X115350159Y-113354048D01*
X115361066Y-113363934D01*
X115370952Y-113374841D01*
X115379720Y-113386664D01*
X115387288Y-113399290D01*
X115393582Y-113412597D01*
X115398541Y-113426457D01*
X115402118Y-113440736D01*
X115404278Y-113455297D01*
X115405000Y-113470000D01*
X115405000Y-113770000D01*
X115404278Y-113784703D01*
X115402118Y-113799264D01*
X115398541Y-113813543D01*
X115393582Y-113827403D01*
X115387288Y-113840710D01*
X115379720Y-113853336D01*
X115370952Y-113865159D01*
X115361066Y-113876066D01*
X115350159Y-113885952D01*
X115338336Y-113894720D01*
X115325710Y-113902288D01*
X115312403Y-113908582D01*
X115298543Y-113913541D01*
X115284264Y-113917118D01*
X115269703Y-113919278D01*
X115255000Y-113920000D01*
X113605000Y-113920000D01*
X113590297Y-113919278D01*
X113575736Y-113917118D01*
X113561457Y-113913541D01*
X113547597Y-113908582D01*
X113534290Y-113902288D01*
X113521664Y-113894720D01*
X113509841Y-113885952D01*
X113498934Y-113876066D01*
X113489048Y-113865159D01*
X113480280Y-113853336D01*
X113472712Y-113840710D01*
X113466418Y-113827403D01*
X113461459Y-113813543D01*
X113457882Y-113799264D01*
X113455722Y-113784703D01*
X113455000Y-113770000D01*
X113455000Y-113470000D01*
X113455722Y-113455297D01*
X113457882Y-113440736D01*
X113461459Y-113426457D01*
X113466418Y-113412597D01*
X113472712Y-113399290D01*
X113480280Y-113386664D01*
X113489048Y-113374841D01*
X113498934Y-113363934D01*
X113509841Y-113354048D01*
X113521664Y-113345280D01*
X113534290Y-113337712D01*
X113547597Y-113331418D01*
X113561457Y-113326459D01*
X113575736Y-113322882D01*
X113590297Y-113320722D01*
X113605000Y-113320000D01*
X115255000Y-113320000D01*
X115269703Y-113320722D01*
G37*
G36*
X115269703Y-112050722D02*
G01*
X115284264Y-112052882D01*
X115298543Y-112056459D01*
X115312403Y-112061418D01*
X115325710Y-112067712D01*
X115338336Y-112075280D01*
X115350159Y-112084048D01*
X115361066Y-112093934D01*
X115370952Y-112104841D01*
X115379720Y-112116664D01*
X115387288Y-112129290D01*
X115393582Y-112142597D01*
X115398541Y-112156457D01*
X115402118Y-112170736D01*
X115404278Y-112185297D01*
X115405000Y-112200000D01*
X115405000Y-112500000D01*
X115404278Y-112514703D01*
X115402118Y-112529264D01*
X115398541Y-112543543D01*
X115393582Y-112557403D01*
X115387288Y-112570710D01*
X115379720Y-112583336D01*
X115370952Y-112595159D01*
X115361066Y-112606066D01*
X115350159Y-112615952D01*
X115338336Y-112624720D01*
X115325710Y-112632288D01*
X115312403Y-112638582D01*
X115298543Y-112643541D01*
X115284264Y-112647118D01*
X115269703Y-112649278D01*
X115255000Y-112650000D01*
X113605000Y-112650000D01*
X113590297Y-112649278D01*
X113575736Y-112647118D01*
X113561457Y-112643541D01*
X113547597Y-112638582D01*
X113534290Y-112632288D01*
X113521664Y-112624720D01*
X113509841Y-112615952D01*
X113498934Y-112606066D01*
X113489048Y-112595159D01*
X113480280Y-112583336D01*
X113472712Y-112570710D01*
X113466418Y-112557403D01*
X113461459Y-112543543D01*
X113457882Y-112529264D01*
X113455722Y-112514703D01*
X113455000Y-112500000D01*
X113455000Y-112200000D01*
X113455722Y-112185297D01*
X113457882Y-112170736D01*
X113461459Y-112156457D01*
X113466418Y-112142597D01*
X113472712Y-112129290D01*
X113480280Y-112116664D01*
X113489048Y-112104841D01*
X113498934Y-112093934D01*
X113509841Y-112084048D01*
X113521664Y-112075280D01*
X113534290Y-112067712D01*
X113547597Y-112061418D01*
X113561457Y-112056459D01*
X113575736Y-112052882D01*
X113590297Y-112050722D01*
X113605000Y-112050000D01*
X115255000Y-112050000D01*
X115269703Y-112050722D01*
G37*
G36*
X115269703Y-110780722D02*
G01*
X115284264Y-110782882D01*
X115298543Y-110786459D01*
X115312403Y-110791418D01*
X115325710Y-110797712D01*
X115338336Y-110805280D01*
X115350159Y-110814048D01*
X115361066Y-110823934D01*
X115370952Y-110834841D01*
X115379720Y-110846664D01*
X115387288Y-110859290D01*
X115393582Y-110872597D01*
X115398541Y-110886457D01*
X115402118Y-110900736D01*
X115404278Y-110915297D01*
X115405000Y-110930000D01*
X115405000Y-111230000D01*
X115404278Y-111244703D01*
X115402118Y-111259264D01*
X115398541Y-111273543D01*
X115393582Y-111287403D01*
X115387288Y-111300710D01*
X115379720Y-111313336D01*
X115370952Y-111325159D01*
X115361066Y-111336066D01*
X115350159Y-111345952D01*
X115338336Y-111354720D01*
X115325710Y-111362288D01*
X115312403Y-111368582D01*
X115298543Y-111373541D01*
X115284264Y-111377118D01*
X115269703Y-111379278D01*
X115255000Y-111380000D01*
X113605000Y-111380000D01*
X113590297Y-111379278D01*
X113575736Y-111377118D01*
X113561457Y-111373541D01*
X113547597Y-111368582D01*
X113534290Y-111362288D01*
X113521664Y-111354720D01*
X113509841Y-111345952D01*
X113498934Y-111336066D01*
X113489048Y-111325159D01*
X113480280Y-111313336D01*
X113472712Y-111300710D01*
X113466418Y-111287403D01*
X113461459Y-111273543D01*
X113457882Y-111259264D01*
X113455722Y-111244703D01*
X113455000Y-111230000D01*
X113455000Y-110930000D01*
X113455722Y-110915297D01*
X113457882Y-110900736D01*
X113461459Y-110886457D01*
X113466418Y-110872597D01*
X113472712Y-110859290D01*
X113480280Y-110846664D01*
X113489048Y-110834841D01*
X113498934Y-110823934D01*
X113509841Y-110814048D01*
X113521664Y-110805280D01*
X113534290Y-110797712D01*
X113547597Y-110791418D01*
X113561457Y-110786459D01*
X113575736Y-110782882D01*
X113590297Y-110780722D01*
X113605000Y-110780000D01*
X115255000Y-110780000D01*
X115269703Y-110780722D01*
G37*
G36*
X110319703Y-110780722D02*
G01*
X110334264Y-110782882D01*
X110348543Y-110786459D01*
X110362403Y-110791418D01*
X110375710Y-110797712D01*
X110388336Y-110805280D01*
X110400159Y-110814048D01*
X110411066Y-110823934D01*
X110420952Y-110834841D01*
X110429720Y-110846664D01*
X110437288Y-110859290D01*
X110443582Y-110872597D01*
X110448541Y-110886457D01*
X110452118Y-110900736D01*
X110454278Y-110915297D01*
X110455000Y-110930000D01*
X110455000Y-111230000D01*
X110454278Y-111244703D01*
X110452118Y-111259264D01*
X110448541Y-111273543D01*
X110443582Y-111287403D01*
X110437288Y-111300710D01*
X110429720Y-111313336D01*
X110420952Y-111325159D01*
X110411066Y-111336066D01*
X110400159Y-111345952D01*
X110388336Y-111354720D01*
X110375710Y-111362288D01*
X110362403Y-111368582D01*
X110348543Y-111373541D01*
X110334264Y-111377118D01*
X110319703Y-111379278D01*
X110305000Y-111380000D01*
X108655000Y-111380000D01*
X108640297Y-111379278D01*
X108625736Y-111377118D01*
X108611457Y-111373541D01*
X108597597Y-111368582D01*
X108584290Y-111362288D01*
X108571664Y-111354720D01*
X108559841Y-111345952D01*
X108548934Y-111336066D01*
X108539048Y-111325159D01*
X108530280Y-111313336D01*
X108522712Y-111300710D01*
X108516418Y-111287403D01*
X108511459Y-111273543D01*
X108507882Y-111259264D01*
X108505722Y-111244703D01*
X108505000Y-111230000D01*
X108505000Y-110930000D01*
X108505722Y-110915297D01*
X108507882Y-110900736D01*
X108511459Y-110886457D01*
X108516418Y-110872597D01*
X108522712Y-110859290D01*
X108530280Y-110846664D01*
X108539048Y-110834841D01*
X108548934Y-110823934D01*
X108559841Y-110814048D01*
X108571664Y-110805280D01*
X108584290Y-110797712D01*
X108597597Y-110791418D01*
X108611457Y-110786459D01*
X108625736Y-110782882D01*
X108640297Y-110780722D01*
X108655000Y-110780000D01*
X110305000Y-110780000D01*
X110319703Y-110780722D01*
G37*
G36*
X110319703Y-112050722D02*
G01*
X110334264Y-112052882D01*
X110348543Y-112056459D01*
X110362403Y-112061418D01*
X110375710Y-112067712D01*
X110388336Y-112075280D01*
X110400159Y-112084048D01*
X110411066Y-112093934D01*
X110420952Y-112104841D01*
X110429720Y-112116664D01*
X110437288Y-112129290D01*
X110443582Y-112142597D01*
X110448541Y-112156457D01*
X110452118Y-112170736D01*
X110454278Y-112185297D01*
X110455000Y-112200000D01*
X110455000Y-112500000D01*
X110454278Y-112514703D01*
X110452118Y-112529264D01*
X110448541Y-112543543D01*
X110443582Y-112557403D01*
X110437288Y-112570710D01*
X110429720Y-112583336D01*
X110420952Y-112595159D01*
X110411066Y-112606066D01*
X110400159Y-112615952D01*
X110388336Y-112624720D01*
X110375710Y-112632288D01*
X110362403Y-112638582D01*
X110348543Y-112643541D01*
X110334264Y-112647118D01*
X110319703Y-112649278D01*
X110305000Y-112650000D01*
X108655000Y-112650000D01*
X108640297Y-112649278D01*
X108625736Y-112647118D01*
X108611457Y-112643541D01*
X108597597Y-112638582D01*
X108584290Y-112632288D01*
X108571664Y-112624720D01*
X108559841Y-112615952D01*
X108548934Y-112606066D01*
X108539048Y-112595159D01*
X108530280Y-112583336D01*
X108522712Y-112570710D01*
X108516418Y-112557403D01*
X108511459Y-112543543D01*
X108507882Y-112529264D01*
X108505722Y-112514703D01*
X108505000Y-112500000D01*
X108505000Y-112200000D01*
X108505722Y-112185297D01*
X108507882Y-112170736D01*
X108511459Y-112156457D01*
X108516418Y-112142597D01*
X108522712Y-112129290D01*
X108530280Y-112116664D01*
X108539048Y-112104841D01*
X108548934Y-112093934D01*
X108559841Y-112084048D01*
X108571664Y-112075280D01*
X108584290Y-112067712D01*
X108597597Y-112061418D01*
X108611457Y-112056459D01*
X108625736Y-112052882D01*
X108640297Y-112050722D01*
X108655000Y-112050000D01*
X110305000Y-112050000D01*
X110319703Y-112050722D01*
G37*
G36*
X110319703Y-113320722D02*
G01*
X110334264Y-113322882D01*
X110348543Y-113326459D01*
X110362403Y-113331418D01*
X110375710Y-113337712D01*
X110388336Y-113345280D01*
X110400159Y-113354048D01*
X110411066Y-113363934D01*
X110420952Y-113374841D01*
X110429720Y-113386664D01*
X110437288Y-113399290D01*
X110443582Y-113412597D01*
X110448541Y-113426457D01*
X110452118Y-113440736D01*
X110454278Y-113455297D01*
X110455000Y-113470000D01*
X110455000Y-113770000D01*
X110454278Y-113784703D01*
X110452118Y-113799264D01*
X110448541Y-113813543D01*
X110443582Y-113827403D01*
X110437288Y-113840710D01*
X110429720Y-113853336D01*
X110420952Y-113865159D01*
X110411066Y-113876066D01*
X110400159Y-113885952D01*
X110388336Y-113894720D01*
X110375710Y-113902288D01*
X110362403Y-113908582D01*
X110348543Y-113913541D01*
X110334264Y-113917118D01*
X110319703Y-113919278D01*
X110305000Y-113920000D01*
X108655000Y-113920000D01*
X108640297Y-113919278D01*
X108625736Y-113917118D01*
X108611457Y-113913541D01*
X108597597Y-113908582D01*
X108584290Y-113902288D01*
X108571664Y-113894720D01*
X108559841Y-113885952D01*
X108548934Y-113876066D01*
X108539048Y-113865159D01*
X108530280Y-113853336D01*
X108522712Y-113840710D01*
X108516418Y-113827403D01*
X108511459Y-113813543D01*
X108507882Y-113799264D01*
X108505722Y-113784703D01*
X108505000Y-113770000D01*
X108505000Y-113470000D01*
X108505722Y-113455297D01*
X108507882Y-113440736D01*
X108511459Y-113426457D01*
X108516418Y-113412597D01*
X108522712Y-113399290D01*
X108530280Y-113386664D01*
X108539048Y-113374841D01*
X108548934Y-113363934D01*
X108559841Y-113354048D01*
X108571664Y-113345280D01*
X108584290Y-113337712D01*
X108597597Y-113331418D01*
X108611457Y-113326459D01*
X108625736Y-113322882D01*
X108640297Y-113320722D01*
X108655000Y-113320000D01*
X110305000Y-113320000D01*
X110319703Y-113320722D01*
G37*
G36*
X110319703Y-114590722D02*
G01*
X110334264Y-114592882D01*
X110348543Y-114596459D01*
X110362403Y-114601418D01*
X110375710Y-114607712D01*
X110388336Y-114615280D01*
X110400159Y-114624048D01*
X110411066Y-114633934D01*
X110420952Y-114644841D01*
X110429720Y-114656664D01*
X110437288Y-114669290D01*
X110443582Y-114682597D01*
X110448541Y-114696457D01*
X110452118Y-114710736D01*
X110454278Y-114725297D01*
X110455000Y-114740000D01*
X110455000Y-115040000D01*
X110454278Y-115054703D01*
X110452118Y-115069264D01*
X110448541Y-115083543D01*
X110443582Y-115097403D01*
X110437288Y-115110710D01*
X110429720Y-115123336D01*
X110420952Y-115135159D01*
X110411066Y-115146066D01*
X110400159Y-115155952D01*
X110388336Y-115164720D01*
X110375710Y-115172288D01*
X110362403Y-115178582D01*
X110348543Y-115183541D01*
X110334264Y-115187118D01*
X110319703Y-115189278D01*
X110305000Y-115190000D01*
X108655000Y-115190000D01*
X108640297Y-115189278D01*
X108625736Y-115187118D01*
X108611457Y-115183541D01*
X108597597Y-115178582D01*
X108584290Y-115172288D01*
X108571664Y-115164720D01*
X108559841Y-115155952D01*
X108548934Y-115146066D01*
X108539048Y-115135159D01*
X108530280Y-115123336D01*
X108522712Y-115110710D01*
X108516418Y-115097403D01*
X108511459Y-115083543D01*
X108507882Y-115069264D01*
X108505722Y-115054703D01*
X108505000Y-115040000D01*
X108505000Y-114740000D01*
X108505722Y-114725297D01*
X108507882Y-114710736D01*
X108511459Y-114696457D01*
X108516418Y-114682597D01*
X108522712Y-114669290D01*
X108530280Y-114656664D01*
X108539048Y-114644841D01*
X108548934Y-114633934D01*
X108559841Y-114624048D01*
X108571664Y-114615280D01*
X108584290Y-114607712D01*
X108597597Y-114601418D01*
X108611457Y-114596459D01*
X108625736Y-114592882D01*
X108640297Y-114590722D01*
X108655000Y-114590000D01*
X110305000Y-114590000D01*
X110319703Y-114590722D01*
G37*
G36*
X110319703Y-115860722D02*
G01*
X110334264Y-115862882D01*
X110348543Y-115866459D01*
X110362403Y-115871418D01*
X110375710Y-115877712D01*
X110388336Y-115885280D01*
X110400159Y-115894048D01*
X110411066Y-115903934D01*
X110420952Y-115914841D01*
X110429720Y-115926664D01*
X110437288Y-115939290D01*
X110443582Y-115952597D01*
X110448541Y-115966457D01*
X110452118Y-115980736D01*
X110454278Y-115995297D01*
X110455000Y-116010000D01*
X110455000Y-116310000D01*
X110454278Y-116324703D01*
X110452118Y-116339264D01*
X110448541Y-116353543D01*
X110443582Y-116367403D01*
X110437288Y-116380710D01*
X110429720Y-116393336D01*
X110420952Y-116405159D01*
X110411066Y-116416066D01*
X110400159Y-116425952D01*
X110388336Y-116434720D01*
X110375710Y-116442288D01*
X110362403Y-116448582D01*
X110348543Y-116453541D01*
X110334264Y-116457118D01*
X110319703Y-116459278D01*
X110305000Y-116460000D01*
X108655000Y-116460000D01*
X108640297Y-116459278D01*
X108625736Y-116457118D01*
X108611457Y-116453541D01*
X108597597Y-116448582D01*
X108584290Y-116442288D01*
X108571664Y-116434720D01*
X108559841Y-116425952D01*
X108548934Y-116416066D01*
X108539048Y-116405159D01*
X108530280Y-116393336D01*
X108522712Y-116380710D01*
X108516418Y-116367403D01*
X108511459Y-116353543D01*
X108507882Y-116339264D01*
X108505722Y-116324703D01*
X108505000Y-116310000D01*
X108505000Y-116010000D01*
X108505722Y-115995297D01*
X108507882Y-115980736D01*
X108511459Y-115966457D01*
X108516418Y-115952597D01*
X108522712Y-115939290D01*
X108530280Y-115926664D01*
X108539048Y-115914841D01*
X108548934Y-115903934D01*
X108559841Y-115894048D01*
X108571664Y-115885280D01*
X108584290Y-115877712D01*
X108597597Y-115871418D01*
X108611457Y-115866459D01*
X108625736Y-115862882D01*
X108640297Y-115860722D01*
X108655000Y-115860000D01*
X110305000Y-115860000D01*
X110319703Y-115860722D01*
G37*
G36*
X110319703Y-117130722D02*
G01*
X110334264Y-117132882D01*
X110348543Y-117136459D01*
X110362403Y-117141418D01*
X110375710Y-117147712D01*
X110388336Y-117155280D01*
X110400159Y-117164048D01*
X110411066Y-117173934D01*
X110420952Y-117184841D01*
X110429720Y-117196664D01*
X110437288Y-117209290D01*
X110443582Y-117222597D01*
X110448541Y-117236457D01*
X110452118Y-117250736D01*
X110454278Y-117265297D01*
X110455000Y-117280000D01*
X110455000Y-117580000D01*
X110454278Y-117594703D01*
X110452118Y-117609264D01*
X110448541Y-117623543D01*
X110443582Y-117637403D01*
X110437288Y-117650710D01*
X110429720Y-117663336D01*
X110420952Y-117675159D01*
X110411066Y-117686066D01*
X110400159Y-117695952D01*
X110388336Y-117704720D01*
X110375710Y-117712288D01*
X110362403Y-117718582D01*
X110348543Y-117723541D01*
X110334264Y-117727118D01*
X110319703Y-117729278D01*
X110305000Y-117730000D01*
X108655000Y-117730000D01*
X108640297Y-117729278D01*
X108625736Y-117727118D01*
X108611457Y-117723541D01*
X108597597Y-117718582D01*
X108584290Y-117712288D01*
X108571664Y-117704720D01*
X108559841Y-117695952D01*
X108548934Y-117686066D01*
X108539048Y-117675159D01*
X108530280Y-117663336D01*
X108522712Y-117650710D01*
X108516418Y-117637403D01*
X108511459Y-117623543D01*
X108507882Y-117609264D01*
X108505722Y-117594703D01*
X108505000Y-117580000D01*
X108505000Y-117280000D01*
X108505722Y-117265297D01*
X108507882Y-117250736D01*
X108511459Y-117236457D01*
X108516418Y-117222597D01*
X108522712Y-117209290D01*
X108530280Y-117196664D01*
X108539048Y-117184841D01*
X108548934Y-117173934D01*
X108559841Y-117164048D01*
X108571664Y-117155280D01*
X108584290Y-117147712D01*
X108597597Y-117141418D01*
X108611457Y-117136459D01*
X108625736Y-117132882D01*
X108640297Y-117130722D01*
X108655000Y-117130000D01*
X110305000Y-117130000D01*
X110319703Y-117130722D01*
G37*
G36*
X110319703Y-118400722D02*
G01*
X110334264Y-118402882D01*
X110348543Y-118406459D01*
X110362403Y-118411418D01*
X110375710Y-118417712D01*
X110388336Y-118425280D01*
X110400159Y-118434048D01*
X110411066Y-118443934D01*
X110420952Y-118454841D01*
X110429720Y-118466664D01*
X110437288Y-118479290D01*
X110443582Y-118492597D01*
X110448541Y-118506457D01*
X110452118Y-118520736D01*
X110454278Y-118535297D01*
X110455000Y-118550000D01*
X110455000Y-118850000D01*
X110454278Y-118864703D01*
X110452118Y-118879264D01*
X110448541Y-118893543D01*
X110443582Y-118907403D01*
X110437288Y-118920710D01*
X110429720Y-118933336D01*
X110420952Y-118945159D01*
X110411066Y-118956066D01*
X110400159Y-118965952D01*
X110388336Y-118974720D01*
X110375710Y-118982288D01*
X110362403Y-118988582D01*
X110348543Y-118993541D01*
X110334264Y-118997118D01*
X110319703Y-118999278D01*
X110305000Y-119000000D01*
X108655000Y-119000000D01*
X108640297Y-118999278D01*
X108625736Y-118997118D01*
X108611457Y-118993541D01*
X108597597Y-118988582D01*
X108584290Y-118982288D01*
X108571664Y-118974720D01*
X108559841Y-118965952D01*
X108548934Y-118956066D01*
X108539048Y-118945159D01*
X108530280Y-118933336D01*
X108522712Y-118920710D01*
X108516418Y-118907403D01*
X108511459Y-118893543D01*
X108507882Y-118879264D01*
X108505722Y-118864703D01*
X108505000Y-118850000D01*
X108505000Y-118550000D01*
X108505722Y-118535297D01*
X108507882Y-118520736D01*
X108511459Y-118506457D01*
X108516418Y-118492597D01*
X108522712Y-118479290D01*
X108530280Y-118466664D01*
X108539048Y-118454841D01*
X108548934Y-118443934D01*
X108559841Y-118434048D01*
X108571664Y-118425280D01*
X108584290Y-118417712D01*
X108597597Y-118411418D01*
X108611457Y-118406459D01*
X108625736Y-118402882D01*
X108640297Y-118400722D01*
X108655000Y-118400000D01*
X110305000Y-118400000D01*
X110319703Y-118400722D01*
G37*
D16*
X48898000Y-94570000D03*
X46358000Y-94570000D03*
X48898000Y-92030000D03*
X46358000Y-92030000D03*
X48898000Y-89490000D03*
X46358000Y-89490000D03*
X48898000Y-86950000D03*
X46358000Y-86950000D03*
X48898000Y-84410000D03*
X46358000Y-84410000D03*
X48898000Y-81870000D03*
X46358000Y-81870000D03*
X48898000Y-79330000D03*
X46358000Y-79330000D03*
X48898000Y-76790000D03*
X46358000Y-76790000D03*
X48898000Y-74250000D03*
X46358000Y-74250000D03*
X48898000Y-71710000D03*
X46358000Y-71710000D03*
X48898000Y-69170000D03*
X46358000Y-69170000D03*
X48898000Y-66630000D03*
X46358000Y-66630000D03*
X48898000Y-64090000D03*
X46358000Y-64090000D03*
X48898000Y-61550000D03*
X46358000Y-61550000D03*
X48898000Y-59010000D03*
X46358000Y-59010000D03*
X48898000Y-56470000D03*
X46358000Y-56470000D03*
X48898000Y-53930000D03*
D17*
X46358000Y-53930000D03*
D18*
X61598000Y-117618000D03*
X61598000Y-115118000D03*
X61598000Y-112618000D03*
X61598000Y-110118000D03*
X61598000Y-107618000D03*
X61598000Y-105118000D03*
X61598000Y-102618000D03*
X61598000Y-100118000D03*
X61598000Y-97618000D03*
X61598000Y-95118000D03*
X61598000Y-92618000D03*
X61598000Y-90118000D03*
X76598000Y-90118000D03*
X76598000Y-92618000D03*
X76598000Y-95118000D03*
X76598000Y-97618000D03*
X76598000Y-100118000D03*
X76598000Y-102618000D03*
X76598000Y-105118000D03*
X76598000Y-107618000D03*
X76598000Y-110118000D03*
X76598000Y-112618000D03*
X76598000Y-115118000D03*
X76598000Y-117618000D03*
X62740000Y-67018000D03*
X65240000Y-67018000D03*
X67740000Y-67018000D03*
X70240000Y-67018000D03*
X72740000Y-67018000D03*
X75240000Y-67018000D03*
X77740000Y-67018000D03*
X80240000Y-67018000D03*
X82740000Y-67018000D03*
X85240000Y-67018000D03*
X87740000Y-67018000D03*
X90240000Y-67018000D03*
X92740000Y-67018000D03*
X95240000Y-67018000D03*
X97740000Y-67018000D03*
X100240000Y-67018000D03*
X102740000Y-67018000D03*
X105240000Y-67018000D03*
X107740000Y-67018000D03*
X110240000Y-67018000D03*
X110240000Y-52018000D03*
X107740000Y-52018000D03*
X105240000Y-52018000D03*
X102740000Y-52018000D03*
X100240000Y-52018000D03*
X97740000Y-52018000D03*
X95240000Y-52018000D03*
X92740000Y-52018000D03*
X90240000Y-52018000D03*
X87740000Y-52018000D03*
X85240000Y-52018000D03*
X82740000Y-52018000D03*
X80240000Y-52018000D03*
X77740000Y-52018000D03*
X75240000Y-52018000D03*
X72740000Y-52018000D03*
X70240000Y-52018000D03*
X67740000Y-52018000D03*
X65240000Y-52018000D03*
X62740000Y-52018000D03*
M02*
