M48
; DRILL file {KiCad (5.1.5)-3} date 9/13/2020 7:18:57 PM
; FORMAT={-:-/ absolute / inch / decimal}
; #@! TF.CreationDate,2020-09-13T19:18:57-07:00
; #@! TF.GenerationSoftware,Kicad,Pcbnew,(5.1.5)-3
; #@! TF.FileFunction,Plated,1,2,PTH
FMAT,2
INCH
T1C0.0197
T2C0.0300
T3C0.0315
T4C0.0354
T5C0.0400
%
G90
G05
T1
X2.0138Y-2.372
X2.0138Y-2.4744
X2.0138Y-2.7657
X2.1622Y-2.9641
X2.1949Y-2.5846
X2.2106Y-4.561
X2.2259Y-2.7145
X2.25Y-3.0335
X2.291Y-3.1762
X2.3016Y-4.8987
X2.4214Y-4.8874
X2.4361Y-2.8332
X2.4941Y-4.7421
X2.621Y-3.1512
X2.6931Y-4.8373
X2.6958Y-2.8836
X2.6963Y-2.7816
X2.7Y-2.8341
X2.7618Y-4.5689
X2.7933Y-2.3327
X2.7933Y-4.1673
X2.8012Y-2.4823
X2.8386Y-3.6258
X2.8476Y-3.5717
X2.8764Y-3.0239
X2.8773Y-3.114
X2.9046Y-2.7587
X2.9508Y-2.1358
X2.997Y-3.0675
X2.997Y-3.3504
X3.0059Y-2.7815
X3.0325Y-2.7315
X3.1282Y-2.8298
X3.1439Y-3.3345
X3.1699Y-2.9753
X3.2702Y-2.3851
X3.3061Y-2.8299
X3.4055Y-3.1678
X3.4417Y-4.0762
X3.4529Y-3.849
X3.4662Y-3.1764
X3.4918Y-3.9236
X3.4922Y-4.0931
X3.5145Y-3.6464
X3.5212Y-3.5053
X3.5235Y-3.1319
X3.5326Y-4.1292
X3.5496Y-2.9735
X3.5819Y-4.1769
X3.5953Y-2.825
X3.6266Y-3.5689
X3.6346Y-2.8885
X3.6349Y-3.2769
X3.6426Y-2.8412
X3.6729Y-4.3842
X3.6932Y-3.506
X3.7083Y-4.5736
X3.7196Y-3.2581
X3.7277Y-4.8969
X3.7395Y-3.3837
X3.8424Y-4.6774
X3.849Y-3.2369
X3.8641Y-3.2945
X3.8808Y-4.7159
X3.8874Y-3.2
X3.9175Y-2.8249
X3.9262Y-3.1632
X3.9723Y-2.8417
X4.0451Y-4.7923
X4.0718Y-2.8141
X4.0783Y-4.657
X4.1137Y-2.7577
X4.1554Y-2.9288
X4.1865Y-3.9707
X4.1965Y-4.7094
X4.2028Y-2.2461
X4.2241Y-4.4823
X4.2241Y-4.5732
X4.2826Y-4.3247
X4.3005Y-4.1222
X4.33Y-3.0634
X4.3602Y-2.3169
X4.3638Y-2.9981
X4.3889Y-3.4123
X4.4094Y-3.3661
X4.4224Y-3.1398
X4.4569Y-3.0136
X4.4708Y-3.9198
X4.5147Y-4.8765
X4.5479Y-2.9015
X4.5502Y-3.1835
X4.5692Y-3.973
X4.5712Y-3.0995
X4.5719Y-2.9729
X4.5965Y-3.372
X4.5981Y-4.5462
X4.6046Y-4.3902
X4.6201Y-2.0256
X4.6483Y-4.4946
X4.6765Y-4.3732
X4.7168Y-2.795
X4.7325Y-4.7589
X4.7401Y-3.2437
X4.7507Y-3.5105
X4.7507Y-4.3268
X4.7542Y-2.588
X4.7958Y-3.3004
X4.8071Y-3.5466
X4.8169Y-3.7232
X4.8169Y-4.4196
X4.8177Y-4.5673
X4.8401Y-3.6732
X4.8418Y-3.3717
X4.8428Y-4.6098
X4.8674Y-2.7547
X4.8761Y-2.243
X4.9074Y-3.4753
X4.9372Y-2.5986
X4.9372Y-2.7955
X4.9948Y-1.9593
X5.0097Y-4.4721
X5.0293Y-4.4232
X5.0531Y-2.065
T2
X2.4251Y-3.548
X2.4251Y-3.6464
X2.4251Y-3.7448
X2.4251Y-3.8432
X2.4251Y-3.9417
X2.4251Y-4.0401
X2.4251Y-4.1385
X2.4251Y-4.2369
X2.4251Y-4.3354
X2.4251Y-4.4338
X2.4251Y-4.5322
X2.4251Y-4.6306
X3.0157Y-3.548
X3.0157Y-3.6464
X3.0157Y-3.7448
X3.0157Y-3.8432
X3.0157Y-3.9417
X3.0157Y-4.0401
X3.0157Y-4.1385
X3.0157Y-4.2369
X3.0157Y-4.3354
X3.0157Y-4.4338
X3.0157Y-4.5322
X3.0157Y-4.6306
X2.4701Y-2.048
X2.4701Y-2.6385
X2.5685Y-2.048
X2.5685Y-2.6385
X2.6669Y-2.048
X2.6669Y-2.6385
X2.7654Y-2.048
X2.7654Y-2.6385
X2.8638Y-2.048
X2.8638Y-2.6385
X2.9622Y-2.048
X2.9622Y-2.6385
X3.0606Y-2.048
X3.0606Y-2.6385
X3.1591Y-2.048
X3.1591Y-2.6385
X3.2575Y-2.048
X3.2575Y-2.6385
X3.3559Y-2.048
X3.3559Y-2.6385
X3.4543Y-2.048
X3.4543Y-2.6385
X3.5528Y-2.048
X3.5528Y-2.6385
X3.6512Y-2.048
X3.6512Y-2.6385
X3.7496Y-2.048
X3.7496Y-2.6385
X3.848Y-2.048
X3.848Y-2.6385
X3.9465Y-2.048
X3.9465Y-2.6385
X4.0449Y-2.048
X4.0449Y-2.6385
X4.1433Y-2.048
X4.1433Y-2.6385
X4.2417Y-2.048
X4.2417Y-2.6385
X4.3402Y-2.048
X4.3402Y-2.6385
T3
X3.3272Y-3.4736
X3.3272Y-3.5736
X3.3272Y-3.6736
X3.3272Y-3.7736
X3.3272Y-3.8736
X3.3272Y-3.9736
X3.3272Y-4.0736
X3.3272Y-4.1736
X3.3272Y-4.2736
X3.3272Y-4.3736
X3.3272Y-4.4736
X3.3272Y-4.5736
X3.3272Y-4.6736
X3.3272Y-4.7736
X3.9272Y-3.4736
X3.9272Y-3.5736
X3.9272Y-3.6736
X3.9272Y-3.7736
X3.9272Y-3.8736
X3.9272Y-3.9736
X3.9272Y-4.0736
X3.9272Y-4.1736
X3.9272Y-4.2736
X3.9272Y-4.3736
X3.9272Y-4.4736
X3.9272Y-4.5736
X3.9272Y-4.6736
X3.9272Y-4.7736
T4
X1.9606Y-4.1142
X1.9606Y-4.2126
X1.9606Y-4.311
X1.9606Y-4.4094
T5
X1.8251Y-2.1232
X1.8251Y-2.2232
X1.8251Y-2.3232
X1.8251Y-2.4232
X1.8251Y-2.5232
X1.8251Y-2.6232
X1.8251Y-2.7232
X1.8251Y-2.8232
X1.8251Y-2.9232
X1.8251Y-3.0232
X1.8251Y-3.1232
X1.8251Y-3.2232
X1.8251Y-3.3232
X1.8251Y-3.4232
X1.8251Y-3.5232
X1.8251Y-3.6232
X1.8251Y-3.7232
X1.9251Y-2.1232
X1.9251Y-2.2232
X1.9251Y-2.3232
X1.9251Y-2.4232
X1.9251Y-2.5232
X1.9251Y-2.6232
X1.9251Y-2.7232
X1.9251Y-2.8232
X1.9251Y-2.9232
X1.9251Y-3.0232
X1.9251Y-3.1232
X1.9251Y-3.2232
X1.9251Y-3.3232
X1.9251Y-3.4232
X1.9251Y-3.5232
X1.9251Y-3.6232
X1.9251Y-3.7232
T0
M30
