G04 #@! TF.GenerationSoftware,KiCad,Pcbnew,(5.1.5)-3*
G04 #@! TF.CreationDate,2020-08-01T21:28:59-07:00*
G04 #@! TF.ProjectId,rk86kngmd,726b3836-6b6e-4676-9d64-2e6b69636164,rev?*
G04 #@! TF.SameCoordinates,Original*
G04 #@! TF.FileFunction,Legend,Top*
G04 #@! TF.FilePolarity,Positive*
%FSLAX46Y46*%
G04 Gerber Fmt 4.6, Leading zero omitted, Abs format (unit mm)*
G04 Created by KiCad (PCBNEW (5.1.5)-3) date 2020-08-01 21:28:59*
%MOMM*%
%LPD*%
G04 APERTURE LIST*
%ADD10C,0.150000*%
%ADD11C,0.127000*%
%ADD12C,0.120000*%
%ADD13C,1.000000*%
%ADD14C,0.200000*%
%ADD15C,0.010000*%
G04 APERTURE END LIST*
D10*
X91250000Y-118250000D02*
G75*
G02X93250000Y-118250000I1000000J0D01*
G01*
X98750000Y-118250000D02*
X85750000Y-118250000D01*
X55946500Y-116769600D02*
X55946500Y-120630400D01*
X55146400Y-119169900D02*
X56835500Y-119157200D01*
X55959200Y-119093700D02*
X55146400Y-117811000D01*
X56835500Y-117811000D02*
X55959200Y-119093700D01*
X55222600Y-117811000D02*
X56835500Y-117811000D01*
X52750000Y-108928857D02*
X52702380Y-109024095D01*
X52702380Y-109166952D01*
X52750000Y-109309809D01*
X52845238Y-109405047D01*
X52940476Y-109452666D01*
X53130952Y-109500285D01*
X53273809Y-109500285D01*
X53464285Y-109452666D01*
X53559523Y-109405047D01*
X53654761Y-109309809D01*
X53702380Y-109166952D01*
X53702380Y-109071714D01*
X53654761Y-108928857D01*
X53607142Y-108881238D01*
X53273809Y-108881238D01*
X53273809Y-109071714D01*
X53035714Y-108452666D02*
X53702380Y-108452666D01*
X53130952Y-108452666D02*
X53083333Y-108405047D01*
X53035714Y-108309809D01*
X53035714Y-108166952D01*
X53083333Y-108071714D01*
X53178571Y-108024095D01*
X53702380Y-108024095D01*
X53702380Y-107119333D02*
X52702380Y-107119333D01*
X53654761Y-107119333D02*
X53702380Y-107214571D01*
X53702380Y-107405047D01*
X53654761Y-107500285D01*
X53607142Y-107547904D01*
X53511904Y-107595523D01*
X53226190Y-107595523D01*
X53130952Y-107547904D01*
X53083333Y-107500285D01*
X53035714Y-107405047D01*
X53035714Y-107214571D01*
X53083333Y-107119333D01*
X53321428Y-113107142D02*
X53321428Y-112345238D01*
X53702380Y-112726190D02*
X52940476Y-112726190D01*
X52702380Y-111392857D02*
X52702380Y-111869047D01*
X53178571Y-111916666D01*
X53130952Y-111869047D01*
X53083333Y-111773809D01*
X53083333Y-111535714D01*
X53130952Y-111440476D01*
X53178571Y-111392857D01*
X53273809Y-111345238D01*
X53511904Y-111345238D01*
X53607142Y-111392857D01*
X53654761Y-111440476D01*
X53702380Y-111535714D01*
X53702380Y-111773809D01*
X53654761Y-111869047D01*
X53607142Y-111916666D01*
X53321428Y-106083333D02*
X53321428Y-105321428D01*
X53702380Y-105702380D02*
X52940476Y-105702380D01*
X53702380Y-104321428D02*
X53702380Y-104892857D01*
X53702380Y-104607142D02*
X52702380Y-104607142D01*
X52845238Y-104702380D01*
X52940476Y-104797619D01*
X52988095Y-104892857D01*
X52797619Y-103940476D02*
X52750000Y-103892857D01*
X52702380Y-103797619D01*
X52702380Y-103559523D01*
X52750000Y-103464285D01*
X52797619Y-103416666D01*
X52892857Y-103369047D01*
X52988095Y-103369047D01*
X53130952Y-103416666D01*
X53702380Y-103988095D01*
X53702380Y-103369047D01*
D11*
X47400000Y-103250000D02*
X47400000Y-113250000D01*
X46000000Y-103250000D02*
X46000000Y-113250000D01*
X47400000Y-103250000D02*
X52000000Y-103250000D01*
X46000000Y-103250000D02*
X47400000Y-103250000D01*
X38500000Y-103250000D02*
X46000000Y-103250000D01*
X38500000Y-113250000D02*
X38500000Y-103250000D01*
X46000000Y-113250000D02*
X38500000Y-113250000D01*
X47400000Y-113250000D02*
X46000000Y-113250000D01*
X52000000Y-113250000D02*
X47400000Y-113250000D01*
X52000000Y-103250000D02*
X52000000Y-113250000D01*
D12*
X97675000Y-75130000D02*
X98120000Y-75130000D01*
X95380000Y-75130000D02*
X95825000Y-75130000D01*
X97675000Y-81370000D02*
X98120000Y-81370000D01*
X95380000Y-81370000D02*
X95825000Y-81370000D01*
X98120000Y-81370000D02*
X98120000Y-75130000D01*
X95380000Y-81370000D02*
X95380000Y-75130000D01*
X56675000Y-106630000D02*
X57120000Y-106630000D01*
X54380000Y-106630000D02*
X54825000Y-106630000D01*
X56675000Y-112870000D02*
X57120000Y-112870000D01*
X54380000Y-112870000D02*
X54825000Y-112870000D01*
X57120000Y-112870000D02*
X57120000Y-106630000D01*
X54380000Y-112870000D02*
X54380000Y-106630000D01*
X83180000Y-122640000D02*
X101080000Y-122640000D01*
X83180000Y-86840000D02*
X83180000Y-122640000D01*
X101080000Y-86840000D02*
X83180000Y-86840000D01*
X101080000Y-122640000D02*
X101080000Y-86840000D01*
X85670000Y-122580000D02*
X91130000Y-122580000D01*
X85670000Y-86900000D02*
X85670000Y-122580000D01*
X98590000Y-86900000D02*
X85670000Y-86900000D01*
X98590000Y-122580000D02*
X98590000Y-86900000D01*
X93130000Y-122580000D02*
X98590000Y-122580000D01*
X91130000Y-122580000D02*
G75*
G02X93130000Y-122580000I1000000J0D01*
G01*
X45850000Y-118800000D02*
X45850000Y-118870000D01*
X47220000Y-117430000D02*
G75*
G03X47220000Y-117430000I-1370000J0D01*
G01*
X55148000Y-91014000D02*
X55078000Y-91014000D01*
X57888000Y-91014000D02*
G75*
G03X57888000Y-91014000I-1370000J0D01*
G01*
X55188600Y-86950000D02*
X55118600Y-86950000D01*
X57928600Y-86950000D02*
G75*
G03X57928600Y-86950000I-1370000J0D01*
G01*
X55148000Y-95078000D02*
X55078000Y-95078000D01*
X57888000Y-95078000D02*
G75*
G03X57888000Y-95078000I-1370000J0D01*
G01*
X55188600Y-82886000D02*
X55118600Y-82886000D01*
X57928600Y-82886000D02*
G75*
G03X57928600Y-82886000I-1370000J0D01*
G01*
X55122600Y-61524600D02*
X55052600Y-61524600D01*
X57862600Y-61524600D02*
G75*
G03X57862600Y-61524600I-1370000J0D01*
G01*
X55148000Y-101555000D02*
X55078000Y-101555000D01*
X57888000Y-101555000D02*
G75*
G03X57888000Y-101555000I-1370000J0D01*
G01*
X110620000Y-104705000D02*
X110690000Y-104705000D01*
X110620000Y-104705000D02*
G75*
G03X110620000Y-104705000I-1370000J0D01*
G01*
D13*
X122706000Y-146412000D02*
X122706000Y-152662000D01*
X120206000Y-146412000D02*
X120206000Y-152662000D01*
X117706000Y-146412000D02*
X117706000Y-152662000D01*
X115206000Y-146412000D02*
X115206000Y-152662000D01*
X112706000Y-146412000D02*
X112706000Y-152662000D01*
X110206000Y-146412000D02*
X110206000Y-152662000D01*
X107706000Y-146412000D02*
X107706000Y-152662000D01*
X105206000Y-146412000D02*
X105206000Y-152662000D01*
X102706000Y-146412000D02*
X102706000Y-152662000D01*
X100206000Y-146412000D02*
X100206000Y-152662000D01*
X97706000Y-146412000D02*
X97706000Y-152662000D01*
X95206000Y-146412000D02*
X95206000Y-152662000D01*
X92706000Y-146412000D02*
X92706000Y-152662000D01*
X90206000Y-146412000D02*
X90206000Y-152662000D01*
X87706000Y-146412000D02*
X87706000Y-152662000D01*
X85206000Y-146412000D02*
X85206000Y-152662000D01*
X82706000Y-146412000D02*
X82706000Y-152662000D01*
X80206000Y-146412000D02*
X80206000Y-152662000D01*
X77706000Y-146412000D02*
X77706000Y-152662000D01*
X75206000Y-146412000D02*
X75206000Y-152662000D01*
X72706000Y-146412000D02*
X72706000Y-152662000D01*
X70206000Y-146412000D02*
X70206000Y-152662000D01*
X67706000Y-146412000D02*
X67706000Y-152662000D01*
X65206000Y-146412000D02*
X65206000Y-152662000D01*
X62706000Y-146412000D02*
X62706000Y-152662000D01*
X60206000Y-146412000D02*
X60206000Y-152662000D01*
X57706000Y-146412000D02*
X57706000Y-152662000D01*
X55206000Y-146412000D02*
X55206000Y-152662000D01*
X52706000Y-146412000D02*
X52706000Y-152662000D01*
X50206000Y-146412000D02*
X50206000Y-152662000D01*
D14*
X43956000Y-139662000D02*
X128956000Y-139662000D01*
X128956000Y-139662000D02*
X128956000Y-142162000D01*
X128956000Y-142162000D02*
X123956000Y-142162000D01*
X123956000Y-142162000D02*
X123956000Y-145912000D01*
X123956000Y-145912000D02*
X48956000Y-145912000D01*
X48956000Y-145912000D02*
X48956000Y-142162000D01*
X48956000Y-142162000D02*
X43956000Y-142162000D01*
X43956000Y-142162000D02*
X43956000Y-139662000D01*
X123956000Y-145912000D02*
X123956000Y-153412000D01*
X123956000Y-153412000D02*
X48956000Y-153412000D01*
X48956000Y-153412000D02*
X48956000Y-145912000D01*
X50206000Y-140912000D02*
X50206000Y-144662000D01*
X50206000Y-144662000D02*
X122706000Y-144662000D01*
X122706000Y-144662000D02*
X122706000Y-140912000D01*
X122706000Y-140912000D02*
X50206000Y-140912000D01*
D12*
X124550000Y-105655000D02*
X124550000Y-106100000D01*
X124550000Y-103360000D02*
X124550000Y-103805000D01*
X118310000Y-105655000D02*
X118310000Y-106100000D01*
X118310000Y-103360000D02*
X118310000Y-103805000D01*
X118310000Y-106100000D02*
X124550000Y-106100000D01*
X118310000Y-103360000D02*
X124550000Y-103360000D01*
X123001000Y-73117000D02*
X119551000Y-73117000D01*
X123001000Y-73117000D02*
X124951000Y-73117000D01*
X123001000Y-81987000D02*
X121051000Y-81987000D01*
X123001000Y-81987000D02*
X124951000Y-81987000D01*
X107761000Y-110455000D02*
X104311000Y-110455000D01*
X107761000Y-110455000D02*
X109711000Y-110455000D01*
X107761000Y-119325000D02*
X105811000Y-119325000D01*
X107761000Y-119325000D02*
X109711000Y-119325000D01*
X123066000Y-110455000D02*
X119616000Y-110455000D01*
X123066000Y-110455000D02*
X125016000Y-110455000D01*
X123066000Y-119325000D02*
X121116000Y-119325000D01*
X123066000Y-119325000D02*
X125016000Y-119325000D01*
X105794000Y-73371000D02*
X102344000Y-73371000D01*
X105794000Y-73371000D02*
X107744000Y-73371000D01*
X105794000Y-82241000D02*
X103844000Y-82241000D01*
X105794000Y-82241000D02*
X107744000Y-82241000D01*
X108334000Y-90135000D02*
X104884000Y-90135000D01*
X108334000Y-90135000D02*
X110284000Y-90135000D01*
X108334000Y-99005000D02*
X106384000Y-99005000D01*
X108334000Y-99005000D02*
X110284000Y-99005000D01*
X123066000Y-55591000D02*
X119616000Y-55591000D01*
X123066000Y-55591000D02*
X125016000Y-55591000D01*
X123066000Y-64461000D02*
X121116000Y-64461000D01*
X123066000Y-64461000D02*
X125016000Y-64461000D01*
X123066000Y-90135000D02*
X119616000Y-90135000D01*
X123066000Y-90135000D02*
X125016000Y-90135000D01*
X123066000Y-99005000D02*
X121116000Y-99005000D01*
X123066000Y-99005000D02*
X125016000Y-99005000D01*
X62818000Y-72547000D02*
X61003000Y-72547000D01*
X62818000Y-72312000D02*
X62818000Y-72547000D01*
X66678000Y-72312000D02*
X62818000Y-72312000D01*
X70538000Y-72312000D02*
X70538000Y-72547000D01*
X66678000Y-72312000D02*
X70538000Y-72312000D01*
X62818000Y-85332000D02*
X62818000Y-85097000D01*
X66678000Y-85332000D02*
X62818000Y-85332000D01*
X70538000Y-85332000D02*
X70538000Y-85097000D01*
X66678000Y-85332000D02*
X70538000Y-85332000D01*
X79199000Y-82174000D02*
X79199000Y-83989000D01*
X78964000Y-82174000D02*
X79199000Y-82174000D01*
X78964000Y-78314000D02*
X78964000Y-82174000D01*
X78964000Y-74454000D02*
X79199000Y-74454000D01*
X78964000Y-78314000D02*
X78964000Y-74454000D01*
X91984000Y-82174000D02*
X91749000Y-82174000D01*
X91984000Y-78314000D02*
X91984000Y-82174000D01*
X91984000Y-74454000D02*
X91749000Y-74454000D01*
X91984000Y-78314000D02*
X91984000Y-74454000D01*
X54438866Y-118916150D02*
G75*
G02X52570000Y-118856761I-968866J-1053850D01*
G01*
X50882866Y-118916150D02*
G75*
G02X49014000Y-118856761I-968866J-1053850D01*
G01*
X42703000Y-48330000D02*
X45243000Y-48330000D01*
X42703000Y-48330000D02*
X42703000Y-50870000D01*
X42953000Y-48580000D02*
X52303000Y-48580000D01*
X42953000Y-99920000D02*
X42953000Y-48580000D01*
X52303000Y-99920000D02*
X42953000Y-99920000D01*
X52303000Y-48580000D02*
X52303000Y-99920000D01*
D15*
X79098000Y-87618000D02*
X79098000Y-120118000D01*
X59098000Y-87618000D02*
X79098000Y-87618000D01*
X59098000Y-120118000D02*
X59098000Y-87618000D01*
X79098000Y-120118000D02*
X59098000Y-120118000D01*
X71598000Y-120118000D02*
G75*
G03X69098000Y-117618000I-2500000J0D01*
G01*
X69098000Y-117618000D02*
G75*
G03X66598000Y-120118000I0J-2500000D01*
G01*
X62740000Y-59518000D02*
G75*
G03X60240000Y-57018000I-2500000J0D01*
G01*
X60240000Y-62018000D02*
G75*
G03X62740000Y-59518000I0J2500000D01*
G01*
X60240000Y-69518000D02*
X60240000Y-49518000D01*
X60240000Y-49518000D02*
X112740000Y-49518000D01*
X112740000Y-49518000D02*
X112740000Y-69518000D01*
X112740000Y-69518000D02*
X60240000Y-69518000D01*
D10*
X49416666Y-101702380D02*
X49416666Y-102416666D01*
X49369047Y-102559523D01*
X49273809Y-102654761D01*
X49130952Y-102702380D01*
X49035714Y-102702380D01*
X49845238Y-101797619D02*
X49892857Y-101750000D01*
X49988095Y-101702380D01*
X50226190Y-101702380D01*
X50321428Y-101750000D01*
X50369047Y-101797619D01*
X50416666Y-101892857D01*
X50416666Y-101988095D01*
X50369047Y-102130952D01*
X49797619Y-102702380D01*
X50416666Y-102702380D01*
X96583333Y-74107142D02*
X96535714Y-74154761D01*
X96392857Y-74202380D01*
X96297619Y-74202380D01*
X96154761Y-74154761D01*
X96059523Y-74059523D01*
X96011904Y-73964285D01*
X95964285Y-73773809D01*
X95964285Y-73630952D01*
X96011904Y-73440476D01*
X96059523Y-73345238D01*
X96154761Y-73250000D01*
X96297619Y-73202380D01*
X96392857Y-73202380D01*
X96535714Y-73250000D01*
X96583333Y-73297619D01*
X96916666Y-73202380D02*
X97535714Y-73202380D01*
X97202380Y-73583333D01*
X97345238Y-73583333D01*
X97440476Y-73630952D01*
X97488095Y-73678571D01*
X97535714Y-73773809D01*
X97535714Y-74011904D01*
X97488095Y-74107142D01*
X97440476Y-74154761D01*
X97345238Y-74202380D01*
X97059523Y-74202380D01*
X96964285Y-74154761D01*
X96916666Y-74107142D01*
X95988095Y-82202380D02*
X96083333Y-82202380D01*
X96178571Y-82250000D01*
X96226190Y-82297619D01*
X96273809Y-82392857D01*
X96321428Y-82583333D01*
X96321428Y-82821428D01*
X96273809Y-83011904D01*
X96226190Y-83107142D01*
X96178571Y-83154761D01*
X96083333Y-83202380D01*
X95988095Y-83202380D01*
X95892857Y-83154761D01*
X95845238Y-83107142D01*
X95797619Y-83011904D01*
X95750000Y-82821428D01*
X95750000Y-82583333D01*
X95797619Y-82392857D01*
X95845238Y-82297619D01*
X95892857Y-82250000D01*
X95988095Y-82202380D01*
X96750000Y-83107142D02*
X96797619Y-83154761D01*
X96750000Y-83202380D01*
X96702380Y-83154761D01*
X96750000Y-83107142D01*
X96750000Y-83202380D01*
X97750000Y-83202380D02*
X97178571Y-83202380D01*
X97464285Y-83202380D02*
X97464285Y-82202380D01*
X97369047Y-82345238D01*
X97273809Y-82440476D01*
X97178571Y-82488095D01*
X57583333Y-114107142D02*
X57535714Y-114154761D01*
X57392857Y-114202380D01*
X57297619Y-114202380D01*
X57154761Y-114154761D01*
X57059523Y-114059523D01*
X57011904Y-113964285D01*
X56964285Y-113773809D01*
X56964285Y-113630952D01*
X57011904Y-113440476D01*
X57059523Y-113345238D01*
X57154761Y-113250000D01*
X57297619Y-113202380D01*
X57392857Y-113202380D01*
X57535714Y-113250000D01*
X57583333Y-113297619D01*
X57964285Y-113297619D02*
X58011904Y-113250000D01*
X58107142Y-113202380D01*
X58345238Y-113202380D01*
X58440476Y-113250000D01*
X58488095Y-113297619D01*
X58535714Y-113392857D01*
X58535714Y-113488095D01*
X58488095Y-113630952D01*
X57916666Y-114202380D01*
X58535714Y-114202380D01*
X56988095Y-114702380D02*
X57083333Y-114702380D01*
X57178571Y-114750000D01*
X57226190Y-114797619D01*
X57273809Y-114892857D01*
X57321428Y-115083333D01*
X57321428Y-115321428D01*
X57273809Y-115511904D01*
X57226190Y-115607142D01*
X57178571Y-115654761D01*
X57083333Y-115702380D01*
X56988095Y-115702380D01*
X56892857Y-115654761D01*
X56845238Y-115607142D01*
X56797619Y-115511904D01*
X56750000Y-115321428D01*
X56750000Y-115083333D01*
X56797619Y-114892857D01*
X56845238Y-114797619D01*
X56892857Y-114750000D01*
X56988095Y-114702380D01*
X57750000Y-115607142D02*
X57797619Y-115654761D01*
X57750000Y-115702380D01*
X57702380Y-115654761D01*
X57750000Y-115607142D01*
X57750000Y-115702380D01*
X58750000Y-115702380D02*
X58178571Y-115702380D01*
X58464285Y-115702380D02*
X58464285Y-114702380D01*
X58369047Y-114845238D01*
X58273809Y-114940476D01*
X58178571Y-114988095D01*
X90392857Y-90928571D02*
X90392857Y-89428571D01*
X90750000Y-89428571D01*
X90964285Y-89500000D01*
X91107142Y-89642857D01*
X91178571Y-89785714D01*
X91250000Y-90071428D01*
X91250000Y-90285714D01*
X91178571Y-90571428D01*
X91107142Y-90714285D01*
X90964285Y-90857142D01*
X90750000Y-90928571D01*
X90392857Y-90928571D01*
X91892857Y-90928571D02*
X91892857Y-89428571D01*
X92250000Y-89428571D01*
X92464285Y-89500000D01*
X92607142Y-89642857D01*
X92678571Y-89785714D01*
X92750000Y-90071428D01*
X92750000Y-90285714D01*
X92678571Y-90571428D01*
X92607142Y-90714285D01*
X92464285Y-90857142D01*
X92250000Y-90928571D01*
X91892857Y-90928571D01*
X94035714Y-89928571D02*
X94035714Y-90928571D01*
X93678571Y-89357142D02*
X93321428Y-90428571D01*
X94250000Y-90428571D01*
X88428571Y-119571428D02*
X88500000Y-119500000D01*
X88642857Y-119428571D01*
X89000000Y-119428571D01*
X89142857Y-119500000D01*
X89214285Y-119571428D01*
X89285714Y-119714285D01*
X89285714Y-119857142D01*
X89214285Y-120071428D01*
X88357142Y-120928571D01*
X89285714Y-120928571D01*
X89785714Y-119428571D02*
X90785714Y-119428571D01*
X90142857Y-120928571D01*
X92214285Y-120785714D02*
X92142857Y-120857142D01*
X91928571Y-120928571D01*
X91785714Y-120928571D01*
X91571428Y-120857142D01*
X91428571Y-120714285D01*
X91357142Y-120571428D01*
X91285714Y-120285714D01*
X91285714Y-120071428D01*
X91357142Y-119785714D01*
X91428571Y-119642857D01*
X91571428Y-119500000D01*
X91785714Y-119428571D01*
X91928571Y-119428571D01*
X92142857Y-119500000D01*
X92214285Y-119571428D01*
X93500000Y-119428571D02*
X93214285Y-119428571D01*
X93071428Y-119500000D01*
X93000000Y-119571428D01*
X92857142Y-119785714D01*
X92785714Y-120071428D01*
X92785714Y-120642857D01*
X92857142Y-120785714D01*
X92928571Y-120857142D01*
X93071428Y-120928571D01*
X93357142Y-120928571D01*
X93500000Y-120857142D01*
X93571428Y-120785714D01*
X93642857Y-120642857D01*
X93642857Y-120285714D01*
X93571428Y-120142857D01*
X93500000Y-120071428D01*
X93357142Y-120000000D01*
X93071428Y-120000000D01*
X92928571Y-120071428D01*
X92857142Y-120142857D01*
X92785714Y-120285714D01*
X94928571Y-119928571D02*
X94928571Y-120928571D01*
X94571428Y-119357142D02*
X94214285Y-120428571D01*
X95142857Y-120428571D01*
X88808571Y-114071428D02*
X88880000Y-114000000D01*
X89022857Y-113928571D01*
X89380000Y-113928571D01*
X89522857Y-114000000D01*
X89594285Y-114071428D01*
X89665714Y-114214285D01*
X89665714Y-114357142D01*
X89594285Y-114571428D01*
X88737142Y-115428571D01*
X89665714Y-115428571D01*
X90165714Y-113928571D02*
X91165714Y-113928571D01*
X90522857Y-115428571D01*
X92594285Y-115285714D02*
X92522857Y-115357142D01*
X92308571Y-115428571D01*
X92165714Y-115428571D01*
X91951428Y-115357142D01*
X91808571Y-115214285D01*
X91737142Y-115071428D01*
X91665714Y-114785714D01*
X91665714Y-114571428D01*
X91737142Y-114285714D01*
X91808571Y-114142857D01*
X91951428Y-114000000D01*
X92165714Y-113928571D01*
X92308571Y-113928571D01*
X92522857Y-114000000D01*
X92594285Y-114071428D01*
X93094285Y-113928571D02*
X94022857Y-113928571D01*
X93522857Y-114500000D01*
X93737142Y-114500000D01*
X93880000Y-114571428D01*
X93951428Y-114642857D01*
X94022857Y-114785714D01*
X94022857Y-115142857D01*
X93951428Y-115285714D01*
X93880000Y-115357142D01*
X93737142Y-115428571D01*
X93308571Y-115428571D01*
X93165714Y-115357142D01*
X93094285Y-115285714D01*
X94594285Y-114071428D02*
X94665714Y-114000000D01*
X94808571Y-113928571D01*
X95165714Y-113928571D01*
X95308571Y-114000000D01*
X95380000Y-114071428D01*
X95451428Y-114214285D01*
X95451428Y-114357142D01*
X95380000Y-114571428D01*
X94522857Y-115428571D01*
X95451428Y-115428571D01*
X45683333Y-115342380D02*
X45350000Y-114866190D01*
X45111904Y-115342380D02*
X45111904Y-114342380D01*
X45492857Y-114342380D01*
X45588095Y-114390000D01*
X45635714Y-114437619D01*
X45683333Y-114532857D01*
X45683333Y-114675714D01*
X45635714Y-114770952D01*
X45588095Y-114818571D01*
X45492857Y-114866190D01*
X45111904Y-114866190D01*
X46254761Y-114770952D02*
X46159523Y-114723333D01*
X46111904Y-114675714D01*
X46064285Y-114580476D01*
X46064285Y-114532857D01*
X46111904Y-114437619D01*
X46159523Y-114390000D01*
X46254761Y-114342380D01*
X46445238Y-114342380D01*
X46540476Y-114390000D01*
X46588095Y-114437619D01*
X46635714Y-114532857D01*
X46635714Y-114580476D01*
X46588095Y-114675714D01*
X46540476Y-114723333D01*
X46445238Y-114770952D01*
X46254761Y-114770952D01*
X46159523Y-114818571D01*
X46111904Y-114866190D01*
X46064285Y-114961428D01*
X46064285Y-115151904D01*
X46111904Y-115247142D01*
X46159523Y-115294761D01*
X46254761Y-115342380D01*
X46445238Y-115342380D01*
X46540476Y-115294761D01*
X46588095Y-115247142D01*
X46635714Y-115151904D01*
X46635714Y-114961428D01*
X46588095Y-114866190D01*
X46540476Y-114818571D01*
X46445238Y-114770952D01*
X45508714Y-122581380D02*
X44937285Y-122581380D01*
X45223000Y-122581380D02*
X45223000Y-121581380D01*
X45127761Y-121724238D01*
X45032523Y-121819476D01*
X44937285Y-121867095D01*
X45937285Y-122581380D02*
X45937285Y-121581380D01*
X46508714Y-122581380D02*
X46080142Y-122009952D01*
X46508714Y-121581380D02*
X45937285Y-122152809D01*
X53811333Y-89510580D02*
X53478000Y-89034390D01*
X53239904Y-89510580D02*
X53239904Y-88510580D01*
X53620857Y-88510580D01*
X53716095Y-88558200D01*
X53763714Y-88605819D01*
X53811333Y-88701057D01*
X53811333Y-88843914D01*
X53763714Y-88939152D01*
X53716095Y-88986771D01*
X53620857Y-89034390D01*
X53239904Y-89034390D01*
X54144666Y-88510580D02*
X54811333Y-88510580D01*
X54382761Y-89510580D01*
X57751514Y-89510580D02*
X57180085Y-89510580D01*
X57465800Y-89510580D02*
X57465800Y-88510580D01*
X57370561Y-88653438D01*
X57275323Y-88748676D01*
X57180085Y-88796295D01*
X58180085Y-89510580D02*
X58180085Y-88510580D01*
X58751514Y-89510580D02*
X58322942Y-88939152D01*
X58751514Y-88510580D02*
X58180085Y-89082009D01*
X53811293Y-85598980D02*
X53477960Y-85122790D01*
X53239864Y-85598980D02*
X53239864Y-84598980D01*
X53620817Y-84598980D01*
X53716055Y-84646600D01*
X53763674Y-84694219D01*
X53811293Y-84789457D01*
X53811293Y-84932314D01*
X53763674Y-85027552D01*
X53716055Y-85075171D01*
X53620817Y-85122790D01*
X53239864Y-85122790D01*
X54668436Y-84598980D02*
X54477960Y-84598980D01*
X54382721Y-84646600D01*
X54335102Y-84694219D01*
X54239864Y-84837076D01*
X54192245Y-85027552D01*
X54192245Y-85408504D01*
X54239864Y-85503742D01*
X54287483Y-85551361D01*
X54382721Y-85598980D01*
X54573198Y-85598980D01*
X54668436Y-85551361D01*
X54716055Y-85503742D01*
X54763674Y-85408504D01*
X54763674Y-85170409D01*
X54716055Y-85075171D01*
X54668436Y-85027552D01*
X54573198Y-84979933D01*
X54382721Y-84979933D01*
X54287483Y-85027552D01*
X54239864Y-85075171D01*
X54192245Y-85170409D01*
X58132474Y-85497380D02*
X57561045Y-85497380D01*
X57846760Y-85497380D02*
X57846760Y-84497380D01*
X57751521Y-84640238D01*
X57656283Y-84735476D01*
X57561045Y-84783095D01*
X58561045Y-85497380D02*
X58561045Y-84497380D01*
X59132474Y-85497380D02*
X58703902Y-84925952D01*
X59132474Y-84497380D02*
X58561045Y-85068809D01*
X53887533Y-93549180D02*
X53554200Y-93072990D01*
X53316104Y-93549180D02*
X53316104Y-92549180D01*
X53697057Y-92549180D01*
X53792295Y-92596800D01*
X53839914Y-92644419D01*
X53887533Y-92739657D01*
X53887533Y-92882514D01*
X53839914Y-92977752D01*
X53792295Y-93025371D01*
X53697057Y-93072990D01*
X53316104Y-93072990D01*
X54792295Y-92549180D02*
X54316104Y-92549180D01*
X54268485Y-93025371D01*
X54316104Y-92977752D01*
X54411342Y-92930133D01*
X54649438Y-92930133D01*
X54744676Y-92977752D01*
X54792295Y-93025371D01*
X54839914Y-93120609D01*
X54839914Y-93358704D01*
X54792295Y-93453942D01*
X54744676Y-93501561D01*
X54649438Y-93549180D01*
X54411342Y-93549180D01*
X54316104Y-93501561D01*
X54268485Y-93453942D01*
X57853114Y-93701580D02*
X57281685Y-93701580D01*
X57567400Y-93701580D02*
X57567400Y-92701580D01*
X57472161Y-92844438D01*
X57376923Y-92939676D01*
X57281685Y-92987295D01*
X58281685Y-93701580D02*
X58281685Y-92701580D01*
X58853114Y-93701580D02*
X58424542Y-93130152D01*
X58853114Y-92701580D02*
X58281685Y-93273009D01*
X53709693Y-81407980D02*
X53376360Y-80931790D01*
X53138264Y-81407980D02*
X53138264Y-80407980D01*
X53519217Y-80407980D01*
X53614455Y-80455600D01*
X53662074Y-80503219D01*
X53709693Y-80598457D01*
X53709693Y-80741314D01*
X53662074Y-80836552D01*
X53614455Y-80884171D01*
X53519217Y-80931790D01*
X53138264Y-80931790D01*
X54566836Y-80741314D02*
X54566836Y-81407980D01*
X54328740Y-80360361D02*
X54090645Y-81074647D01*
X54709693Y-81074647D01*
X58005474Y-81458780D02*
X57434045Y-81458780D01*
X57719760Y-81458780D02*
X57719760Y-80458780D01*
X57624521Y-80601638D01*
X57529283Y-80696876D01*
X57434045Y-80744495D01*
X58434045Y-81458780D02*
X58434045Y-80458780D01*
X59005474Y-81458780D02*
X58576902Y-80887352D01*
X59005474Y-80458780D02*
X58434045Y-81030209D01*
X54789233Y-59906880D02*
X54455900Y-59430690D01*
X54217804Y-59906880D02*
X54217804Y-58906880D01*
X54598757Y-58906880D01*
X54693995Y-58954500D01*
X54741614Y-59002119D01*
X54789233Y-59097357D01*
X54789233Y-59240214D01*
X54741614Y-59335452D01*
X54693995Y-59383071D01*
X54598757Y-59430690D01*
X54217804Y-59430690D01*
X55122566Y-58906880D02*
X55741614Y-58906880D01*
X55408280Y-59287833D01*
X55551138Y-59287833D01*
X55646376Y-59335452D01*
X55693995Y-59383071D01*
X55741614Y-59478309D01*
X55741614Y-59716404D01*
X55693995Y-59811642D01*
X55646376Y-59859261D01*
X55551138Y-59906880D01*
X55265423Y-59906880D01*
X55170185Y-59859261D01*
X55122566Y-59811642D01*
X54767014Y-64034380D02*
X54195585Y-64034380D01*
X54481300Y-64034380D02*
X54481300Y-63034380D01*
X54386061Y-63177238D01*
X54290823Y-63272476D01*
X54195585Y-63320095D01*
X55195585Y-64034380D02*
X55195585Y-63034380D01*
X55767014Y-64034380D02*
X55338442Y-63462952D01*
X55767014Y-63034380D02*
X55195585Y-63605809D01*
X56427533Y-99797580D02*
X56094200Y-99321390D01*
X55856104Y-99797580D02*
X55856104Y-98797580D01*
X56237057Y-98797580D01*
X56332295Y-98845200D01*
X56379914Y-98892819D01*
X56427533Y-98988057D01*
X56427533Y-99130914D01*
X56379914Y-99226152D01*
X56332295Y-99273771D01*
X56237057Y-99321390D01*
X55856104Y-99321390D01*
X56808485Y-98892819D02*
X56856104Y-98845200D01*
X56951342Y-98797580D01*
X57189438Y-98797580D01*
X57284676Y-98845200D01*
X57332295Y-98892819D01*
X57379914Y-98988057D01*
X57379914Y-99083295D01*
X57332295Y-99226152D01*
X56760866Y-99797580D01*
X57379914Y-99797580D01*
X56456114Y-104496580D02*
X55884685Y-104496580D01*
X56170400Y-104496580D02*
X56170400Y-103496580D01*
X56075161Y-103639438D01*
X55979923Y-103734676D01*
X55884685Y-103782295D01*
X56884685Y-104496580D02*
X56884685Y-103496580D01*
X57456114Y-104496580D02*
X57027542Y-103925152D01*
X57456114Y-103496580D02*
X56884685Y-104068009D01*
X110353333Y-102787380D02*
X110020000Y-102311190D01*
X109781904Y-102787380D02*
X109781904Y-101787380D01*
X110162857Y-101787380D01*
X110258095Y-101835000D01*
X110305714Y-101882619D01*
X110353333Y-101977857D01*
X110353333Y-102120714D01*
X110305714Y-102215952D01*
X110258095Y-102263571D01*
X110162857Y-102311190D01*
X109781904Y-102311190D01*
X111305714Y-102787380D02*
X110734285Y-102787380D01*
X111020000Y-102787380D02*
X111020000Y-101787380D01*
X110924761Y-101930238D01*
X110829523Y-102025476D01*
X110734285Y-102073095D01*
X109281904Y-106622619D02*
X109329523Y-106575000D01*
X109424761Y-106527380D01*
X109662857Y-106527380D01*
X109758095Y-106575000D01*
X109805714Y-106622619D01*
X109853333Y-106717857D01*
X109853333Y-106813095D01*
X109805714Y-106955952D01*
X109234285Y-107527380D01*
X109853333Y-107527380D01*
X110472380Y-106527380D02*
X110567619Y-106527380D01*
X110662857Y-106575000D01*
X110710476Y-106622619D01*
X110758095Y-106717857D01*
X110805714Y-106908333D01*
X110805714Y-107146428D01*
X110758095Y-107336904D01*
X110710476Y-107432142D01*
X110662857Y-107479761D01*
X110567619Y-107527380D01*
X110472380Y-107527380D01*
X110377142Y-107479761D01*
X110329523Y-107432142D01*
X110281904Y-107336904D01*
X110234285Y-107146428D01*
X110234285Y-106908333D01*
X110281904Y-106717857D01*
X110329523Y-106622619D01*
X110377142Y-106575000D01*
X110472380Y-106527380D01*
X111424761Y-106527380D02*
X111520000Y-106527380D01*
X111615238Y-106575000D01*
X111662857Y-106622619D01*
X111710476Y-106717857D01*
X111758095Y-106908333D01*
X111758095Y-107146428D01*
X111710476Y-107336904D01*
X111662857Y-107432142D01*
X111615238Y-107479761D01*
X111520000Y-107527380D01*
X111424761Y-107527380D01*
X111329523Y-107479761D01*
X111281904Y-107432142D01*
X111234285Y-107336904D01*
X111186666Y-107146428D01*
X111186666Y-106908333D01*
X111234285Y-106717857D01*
X111281904Y-106622619D01*
X111329523Y-106575000D01*
X111424761Y-106527380D01*
X117035714Y-122928571D02*
X118035714Y-124428571D01*
X118035714Y-122928571D02*
X117035714Y-124428571D01*
X119392857Y-124428571D02*
X118535714Y-124428571D01*
X118964285Y-124428571D02*
X118964285Y-122928571D01*
X118821428Y-123142857D01*
X118678571Y-123285714D01*
X118535714Y-123357142D01*
X121263333Y-102587142D02*
X121215714Y-102634761D01*
X121072857Y-102682380D01*
X120977619Y-102682380D01*
X120834761Y-102634761D01*
X120739523Y-102539523D01*
X120691904Y-102444285D01*
X120644285Y-102253809D01*
X120644285Y-102110952D01*
X120691904Y-101920476D01*
X120739523Y-101825238D01*
X120834761Y-101730000D01*
X120977619Y-101682380D01*
X121072857Y-101682380D01*
X121215714Y-101730000D01*
X121263333Y-101777619D01*
X122215714Y-102682380D02*
X121644285Y-102682380D01*
X121930000Y-102682380D02*
X121930000Y-101682380D01*
X121834761Y-101825238D01*
X121739523Y-101920476D01*
X121644285Y-101968095D01*
X120763333Y-107682380D02*
X120191904Y-107682380D01*
X120477619Y-107682380D02*
X120477619Y-106682380D01*
X120382380Y-106825238D01*
X120287142Y-106920476D01*
X120191904Y-106968095D01*
X121382380Y-106682380D02*
X121477619Y-106682380D01*
X121572857Y-106730000D01*
X121620476Y-106777619D01*
X121668095Y-106872857D01*
X121715714Y-107063333D01*
X121715714Y-107301428D01*
X121668095Y-107491904D01*
X121620476Y-107587142D01*
X121572857Y-107634761D01*
X121477619Y-107682380D01*
X121382380Y-107682380D01*
X121287142Y-107634761D01*
X121239523Y-107587142D01*
X121191904Y-107491904D01*
X121144285Y-107301428D01*
X121144285Y-107063333D01*
X121191904Y-106872857D01*
X121239523Y-106777619D01*
X121287142Y-106730000D01*
X121382380Y-106682380D01*
X122334761Y-106682380D02*
X122430000Y-106682380D01*
X122525238Y-106730000D01*
X122572857Y-106777619D01*
X122620476Y-106872857D01*
X122668095Y-107063333D01*
X122668095Y-107301428D01*
X122620476Y-107491904D01*
X122572857Y-107587142D01*
X122525238Y-107634761D01*
X122430000Y-107682380D01*
X122334761Y-107682380D01*
X122239523Y-107634761D01*
X122191904Y-107587142D01*
X122144285Y-107491904D01*
X122096666Y-107301428D01*
X122096666Y-107063333D01*
X122144285Y-106872857D01*
X122191904Y-106777619D01*
X122239523Y-106730000D01*
X122334761Y-106682380D01*
X121286714Y-72724380D02*
X121286714Y-71724380D01*
X121524809Y-71724380D01*
X121667666Y-71772000D01*
X121762904Y-71867238D01*
X121810523Y-71962476D01*
X121858142Y-72152952D01*
X121858142Y-72295809D01*
X121810523Y-72486285D01*
X121762904Y-72581523D01*
X121667666Y-72676761D01*
X121524809Y-72724380D01*
X121286714Y-72724380D01*
X122286714Y-72724380D02*
X122286714Y-71724380D01*
X122524809Y-71724380D01*
X122667666Y-71772000D01*
X122762904Y-71867238D01*
X122810523Y-71962476D01*
X122858142Y-72152952D01*
X122858142Y-72295809D01*
X122810523Y-72486285D01*
X122762904Y-72581523D01*
X122667666Y-72676761D01*
X122524809Y-72724380D01*
X122286714Y-72724380D01*
X123810523Y-72724380D02*
X123239095Y-72724380D01*
X123524809Y-72724380D02*
X123524809Y-71724380D01*
X123429571Y-71867238D01*
X123334333Y-71962476D01*
X123239095Y-72010095D01*
X124143857Y-71724380D02*
X124810523Y-71724380D01*
X124381952Y-72724380D01*
X122518380Y-79940857D02*
X122518380Y-79274190D01*
X123518380Y-79702761D01*
X122851714Y-78464666D02*
X123518380Y-78464666D01*
X122470761Y-78702761D02*
X123185047Y-78940857D01*
X123185047Y-78321809D01*
X123518380Y-77464666D02*
X123518380Y-77940857D01*
X122518380Y-77940857D01*
X123470761Y-77178952D02*
X123518380Y-77036095D01*
X123518380Y-76798000D01*
X123470761Y-76702761D01*
X123423142Y-76655142D01*
X123327904Y-76607523D01*
X123232666Y-76607523D01*
X123137428Y-76655142D01*
X123089809Y-76702761D01*
X123042190Y-76798000D01*
X122994571Y-76988476D01*
X122946952Y-77083714D01*
X122899333Y-77131333D01*
X122804095Y-77178952D01*
X122708857Y-77178952D01*
X122613619Y-77131333D01*
X122566000Y-77083714D01*
X122518380Y-76988476D01*
X122518380Y-76750380D01*
X122566000Y-76607523D01*
X122518380Y-75988476D02*
X122518380Y-75893238D01*
X122566000Y-75798000D01*
X122613619Y-75750380D01*
X122708857Y-75702761D01*
X122899333Y-75655142D01*
X123137428Y-75655142D01*
X123327904Y-75702761D01*
X123423142Y-75750380D01*
X123470761Y-75798000D01*
X123518380Y-75893238D01*
X123518380Y-75988476D01*
X123470761Y-76083714D01*
X123423142Y-76131333D01*
X123327904Y-76178952D01*
X123137428Y-76226571D01*
X122899333Y-76226571D01*
X122708857Y-76178952D01*
X122613619Y-76131333D01*
X122566000Y-76083714D01*
X122518380Y-75988476D01*
X122613619Y-75274190D02*
X122566000Y-75226571D01*
X122518380Y-75131333D01*
X122518380Y-74893238D01*
X122566000Y-74798000D01*
X122613619Y-74750380D01*
X122708857Y-74702761D01*
X122804095Y-74702761D01*
X122946952Y-74750380D01*
X123518380Y-75321809D01*
X123518380Y-74702761D01*
X106046714Y-110062380D02*
X106046714Y-109062380D01*
X106284809Y-109062380D01*
X106427666Y-109110000D01*
X106522904Y-109205238D01*
X106570523Y-109300476D01*
X106618142Y-109490952D01*
X106618142Y-109633809D01*
X106570523Y-109824285D01*
X106522904Y-109919523D01*
X106427666Y-110014761D01*
X106284809Y-110062380D01*
X106046714Y-110062380D01*
X107046714Y-110062380D02*
X107046714Y-109062380D01*
X107284809Y-109062380D01*
X107427666Y-109110000D01*
X107522904Y-109205238D01*
X107570523Y-109300476D01*
X107618142Y-109490952D01*
X107618142Y-109633809D01*
X107570523Y-109824285D01*
X107522904Y-109919523D01*
X107427666Y-110014761D01*
X107284809Y-110062380D01*
X107046714Y-110062380D01*
X108570523Y-110062380D02*
X107999095Y-110062380D01*
X108284809Y-110062380D02*
X108284809Y-109062380D01*
X108189571Y-109205238D01*
X108094333Y-109300476D01*
X107999095Y-109348095D01*
X109427666Y-109062380D02*
X109237190Y-109062380D01*
X109141952Y-109110000D01*
X109094333Y-109157619D01*
X108999095Y-109300476D01*
X108951476Y-109490952D01*
X108951476Y-109871904D01*
X108999095Y-109967142D01*
X109046714Y-110014761D01*
X109141952Y-110062380D01*
X109332428Y-110062380D01*
X109427666Y-110014761D01*
X109475285Y-109967142D01*
X109522904Y-109871904D01*
X109522904Y-109633809D01*
X109475285Y-109538571D01*
X109427666Y-109490952D01*
X109332428Y-109443333D01*
X109141952Y-109443333D01*
X109046714Y-109490952D01*
X108999095Y-109538571D01*
X108951476Y-109633809D01*
X107213380Y-117532857D02*
X107213380Y-116866190D01*
X108213380Y-117294761D01*
X107546714Y-116056666D02*
X108213380Y-116056666D01*
X107165761Y-116294761D02*
X107880047Y-116532857D01*
X107880047Y-115913809D01*
X108213380Y-115056666D02*
X108213380Y-115532857D01*
X107213380Y-115532857D01*
X108165761Y-114770952D02*
X108213380Y-114628095D01*
X108213380Y-114390000D01*
X108165761Y-114294761D01*
X108118142Y-114247142D01*
X108022904Y-114199523D01*
X107927666Y-114199523D01*
X107832428Y-114247142D01*
X107784809Y-114294761D01*
X107737190Y-114390000D01*
X107689571Y-114580476D01*
X107641952Y-114675714D01*
X107594333Y-114723333D01*
X107499095Y-114770952D01*
X107403857Y-114770952D01*
X107308619Y-114723333D01*
X107261000Y-114675714D01*
X107213380Y-114580476D01*
X107213380Y-114342380D01*
X107261000Y-114199523D01*
X107213380Y-113866190D02*
X107213380Y-113247142D01*
X107594333Y-113580476D01*
X107594333Y-113437619D01*
X107641952Y-113342380D01*
X107689571Y-113294761D01*
X107784809Y-113247142D01*
X108022904Y-113247142D01*
X108118142Y-113294761D01*
X108165761Y-113342380D01*
X108213380Y-113437619D01*
X108213380Y-113723333D01*
X108165761Y-113818571D01*
X108118142Y-113866190D01*
X107308619Y-112866190D02*
X107261000Y-112818571D01*
X107213380Y-112723333D01*
X107213380Y-112485238D01*
X107261000Y-112390000D01*
X107308619Y-112342380D01*
X107403857Y-112294761D01*
X107499095Y-112294761D01*
X107641952Y-112342380D01*
X108213380Y-112913809D01*
X108213380Y-112294761D01*
X121351714Y-110062380D02*
X121351714Y-109062380D01*
X121589809Y-109062380D01*
X121732666Y-109110000D01*
X121827904Y-109205238D01*
X121875523Y-109300476D01*
X121923142Y-109490952D01*
X121923142Y-109633809D01*
X121875523Y-109824285D01*
X121827904Y-109919523D01*
X121732666Y-110014761D01*
X121589809Y-110062380D01*
X121351714Y-110062380D01*
X122351714Y-110062380D02*
X122351714Y-109062380D01*
X122589809Y-109062380D01*
X122732666Y-109110000D01*
X122827904Y-109205238D01*
X122875523Y-109300476D01*
X122923142Y-109490952D01*
X122923142Y-109633809D01*
X122875523Y-109824285D01*
X122827904Y-109919523D01*
X122732666Y-110014761D01*
X122589809Y-110062380D01*
X122351714Y-110062380D01*
X123875523Y-110062380D02*
X123304095Y-110062380D01*
X123589809Y-110062380D02*
X123589809Y-109062380D01*
X123494571Y-109205238D01*
X123399333Y-109300476D01*
X123304095Y-109348095D01*
X124780285Y-109062380D02*
X124304095Y-109062380D01*
X124256476Y-109538571D01*
X124304095Y-109490952D01*
X124399333Y-109443333D01*
X124637428Y-109443333D01*
X124732666Y-109490952D01*
X124780285Y-109538571D01*
X124827904Y-109633809D01*
X124827904Y-109871904D01*
X124780285Y-109967142D01*
X124732666Y-110014761D01*
X124637428Y-110062380D01*
X124399333Y-110062380D01*
X124304095Y-110014761D01*
X124256476Y-109967142D01*
X122518380Y-117532857D02*
X122518380Y-116866190D01*
X123518380Y-117294761D01*
X122851714Y-116056666D02*
X123518380Y-116056666D01*
X122470761Y-116294761D02*
X123185047Y-116532857D01*
X123185047Y-115913809D01*
X123518380Y-115056666D02*
X123518380Y-115532857D01*
X122518380Y-115532857D01*
X123470761Y-114770952D02*
X123518380Y-114628095D01*
X123518380Y-114390000D01*
X123470761Y-114294761D01*
X123423142Y-114247142D01*
X123327904Y-114199523D01*
X123232666Y-114199523D01*
X123137428Y-114247142D01*
X123089809Y-114294761D01*
X123042190Y-114390000D01*
X122994571Y-114580476D01*
X122946952Y-114675714D01*
X122899333Y-114723333D01*
X122804095Y-114770952D01*
X122708857Y-114770952D01*
X122613619Y-114723333D01*
X122566000Y-114675714D01*
X122518380Y-114580476D01*
X122518380Y-114342380D01*
X122566000Y-114199523D01*
X122518380Y-113580476D02*
X122518380Y-113485238D01*
X122566000Y-113390000D01*
X122613619Y-113342380D01*
X122708857Y-113294761D01*
X122899333Y-113247142D01*
X123137428Y-113247142D01*
X123327904Y-113294761D01*
X123423142Y-113342380D01*
X123470761Y-113390000D01*
X123518380Y-113485238D01*
X123518380Y-113580476D01*
X123470761Y-113675714D01*
X123423142Y-113723333D01*
X123327904Y-113770952D01*
X123137428Y-113818571D01*
X122899333Y-113818571D01*
X122708857Y-113770952D01*
X122613619Y-113723333D01*
X122566000Y-113675714D01*
X122518380Y-113580476D01*
X122946952Y-112675714D02*
X122899333Y-112770952D01*
X122851714Y-112818571D01*
X122756476Y-112866190D01*
X122708857Y-112866190D01*
X122613619Y-112818571D01*
X122566000Y-112770952D01*
X122518380Y-112675714D01*
X122518380Y-112485238D01*
X122566000Y-112390000D01*
X122613619Y-112342380D01*
X122708857Y-112294761D01*
X122756476Y-112294761D01*
X122851714Y-112342380D01*
X122899333Y-112390000D01*
X122946952Y-112485238D01*
X122946952Y-112675714D01*
X122994571Y-112770952D01*
X123042190Y-112818571D01*
X123137428Y-112866190D01*
X123327904Y-112866190D01*
X123423142Y-112818571D01*
X123470761Y-112770952D01*
X123518380Y-112675714D01*
X123518380Y-112485238D01*
X123470761Y-112390000D01*
X123423142Y-112342380D01*
X123327904Y-112294761D01*
X123137428Y-112294761D01*
X123042190Y-112342380D01*
X122994571Y-112390000D01*
X122946952Y-112485238D01*
X104079714Y-72978380D02*
X104079714Y-71978380D01*
X104317809Y-71978380D01*
X104460666Y-72026000D01*
X104555904Y-72121238D01*
X104603523Y-72216476D01*
X104651142Y-72406952D01*
X104651142Y-72549809D01*
X104603523Y-72740285D01*
X104555904Y-72835523D01*
X104460666Y-72930761D01*
X104317809Y-72978380D01*
X104079714Y-72978380D01*
X105079714Y-72978380D02*
X105079714Y-71978380D01*
X105317809Y-71978380D01*
X105460666Y-72026000D01*
X105555904Y-72121238D01*
X105603523Y-72216476D01*
X105651142Y-72406952D01*
X105651142Y-72549809D01*
X105603523Y-72740285D01*
X105555904Y-72835523D01*
X105460666Y-72930761D01*
X105317809Y-72978380D01*
X105079714Y-72978380D01*
X106603523Y-72978380D02*
X106032095Y-72978380D01*
X106317809Y-72978380D02*
X106317809Y-71978380D01*
X106222571Y-72121238D01*
X106127333Y-72216476D01*
X106032095Y-72264095D01*
X107460666Y-72311714D02*
X107460666Y-72978380D01*
X107222571Y-71930761D02*
X106984476Y-72645047D01*
X107603523Y-72645047D01*
X105246380Y-80448857D02*
X105246380Y-79782190D01*
X106246380Y-80210761D01*
X105579714Y-78972666D02*
X106246380Y-78972666D01*
X105198761Y-79210761D02*
X105913047Y-79448857D01*
X105913047Y-78829809D01*
X106246380Y-77972666D02*
X106246380Y-78448857D01*
X105246380Y-78448857D01*
X106198761Y-77686952D02*
X106246380Y-77544095D01*
X106246380Y-77306000D01*
X106198761Y-77210761D01*
X106151142Y-77163142D01*
X106055904Y-77115523D01*
X105960666Y-77115523D01*
X105865428Y-77163142D01*
X105817809Y-77210761D01*
X105770190Y-77306000D01*
X105722571Y-77496476D01*
X105674952Y-77591714D01*
X105627333Y-77639333D01*
X105532095Y-77686952D01*
X105436857Y-77686952D01*
X105341619Y-77639333D01*
X105294000Y-77591714D01*
X105246380Y-77496476D01*
X105246380Y-77258380D01*
X105294000Y-77115523D01*
X105246380Y-76496476D02*
X105246380Y-76401238D01*
X105294000Y-76306000D01*
X105341619Y-76258380D01*
X105436857Y-76210761D01*
X105627333Y-76163142D01*
X105865428Y-76163142D01*
X106055904Y-76210761D01*
X106151142Y-76258380D01*
X106198761Y-76306000D01*
X106246380Y-76401238D01*
X106246380Y-76496476D01*
X106198761Y-76591714D01*
X106151142Y-76639333D01*
X106055904Y-76686952D01*
X105865428Y-76734571D01*
X105627333Y-76734571D01*
X105436857Y-76686952D01*
X105341619Y-76639333D01*
X105294000Y-76591714D01*
X105246380Y-76496476D01*
X105579714Y-75306000D02*
X106246380Y-75306000D01*
X105198761Y-75544095D02*
X105913047Y-75782190D01*
X105913047Y-75163142D01*
X106619714Y-89742380D02*
X106619714Y-88742380D01*
X106857809Y-88742380D01*
X107000666Y-88790000D01*
X107095904Y-88885238D01*
X107143523Y-88980476D01*
X107191142Y-89170952D01*
X107191142Y-89313809D01*
X107143523Y-89504285D01*
X107095904Y-89599523D01*
X107000666Y-89694761D01*
X106857809Y-89742380D01*
X106619714Y-89742380D01*
X107619714Y-89742380D02*
X107619714Y-88742380D01*
X107857809Y-88742380D01*
X108000666Y-88790000D01*
X108095904Y-88885238D01*
X108143523Y-88980476D01*
X108191142Y-89170952D01*
X108191142Y-89313809D01*
X108143523Y-89504285D01*
X108095904Y-89599523D01*
X108000666Y-89694761D01*
X107857809Y-89742380D01*
X107619714Y-89742380D01*
X109143523Y-89742380D02*
X108572095Y-89742380D01*
X108857809Y-89742380D02*
X108857809Y-88742380D01*
X108762571Y-88885238D01*
X108667333Y-88980476D01*
X108572095Y-89028095D01*
X109476857Y-88742380D02*
X110095904Y-88742380D01*
X109762571Y-89123333D01*
X109905428Y-89123333D01*
X110000666Y-89170952D01*
X110048285Y-89218571D01*
X110095904Y-89313809D01*
X110095904Y-89551904D01*
X110048285Y-89647142D01*
X110000666Y-89694761D01*
X109905428Y-89742380D01*
X109619714Y-89742380D01*
X109524476Y-89694761D01*
X109476857Y-89647142D01*
X107786380Y-97212857D02*
X107786380Y-96546190D01*
X108786380Y-96974761D01*
X108119714Y-95736666D02*
X108786380Y-95736666D01*
X107738761Y-95974761D02*
X108453047Y-96212857D01*
X108453047Y-95593809D01*
X108786380Y-94736666D02*
X108786380Y-95212857D01*
X107786380Y-95212857D01*
X108738761Y-94450952D02*
X108786380Y-94308095D01*
X108786380Y-94070000D01*
X108738761Y-93974761D01*
X108691142Y-93927142D01*
X108595904Y-93879523D01*
X108500666Y-93879523D01*
X108405428Y-93927142D01*
X108357809Y-93974761D01*
X108310190Y-94070000D01*
X108262571Y-94260476D01*
X108214952Y-94355714D01*
X108167333Y-94403333D01*
X108072095Y-94450952D01*
X107976857Y-94450952D01*
X107881619Y-94403333D01*
X107834000Y-94355714D01*
X107786380Y-94260476D01*
X107786380Y-94022380D01*
X107834000Y-93879523D01*
X107786380Y-93260476D02*
X107786380Y-93165238D01*
X107834000Y-93070000D01*
X107881619Y-93022380D01*
X107976857Y-92974761D01*
X108167333Y-92927142D01*
X108405428Y-92927142D01*
X108595904Y-92974761D01*
X108691142Y-93022380D01*
X108738761Y-93070000D01*
X108786380Y-93165238D01*
X108786380Y-93260476D01*
X108738761Y-93355714D01*
X108691142Y-93403333D01*
X108595904Y-93450952D01*
X108405428Y-93498571D01*
X108167333Y-93498571D01*
X107976857Y-93450952D01*
X107881619Y-93403333D01*
X107834000Y-93355714D01*
X107786380Y-93260476D01*
X107786380Y-92308095D02*
X107786380Y-92212857D01*
X107834000Y-92117619D01*
X107881619Y-92070000D01*
X107976857Y-92022380D01*
X108167333Y-91974761D01*
X108405428Y-91974761D01*
X108595904Y-92022380D01*
X108691142Y-92070000D01*
X108738761Y-92117619D01*
X108786380Y-92212857D01*
X108786380Y-92308095D01*
X108738761Y-92403333D01*
X108691142Y-92450952D01*
X108595904Y-92498571D01*
X108405428Y-92546190D01*
X108167333Y-92546190D01*
X107976857Y-92498571D01*
X107881619Y-92450952D01*
X107834000Y-92403333D01*
X107786380Y-92308095D01*
X121351714Y-55198380D02*
X121351714Y-54198380D01*
X121589809Y-54198380D01*
X121732666Y-54246000D01*
X121827904Y-54341238D01*
X121875523Y-54436476D01*
X121923142Y-54626952D01*
X121923142Y-54769809D01*
X121875523Y-54960285D01*
X121827904Y-55055523D01*
X121732666Y-55150761D01*
X121589809Y-55198380D01*
X121351714Y-55198380D01*
X122351714Y-55198380D02*
X122351714Y-54198380D01*
X122589809Y-54198380D01*
X122732666Y-54246000D01*
X122827904Y-54341238D01*
X122875523Y-54436476D01*
X122923142Y-54626952D01*
X122923142Y-54769809D01*
X122875523Y-54960285D01*
X122827904Y-55055523D01*
X122732666Y-55150761D01*
X122589809Y-55198380D01*
X122351714Y-55198380D01*
X123875523Y-55198380D02*
X123304095Y-55198380D01*
X123589809Y-55198380D02*
X123589809Y-54198380D01*
X123494571Y-54341238D01*
X123399333Y-54436476D01*
X123304095Y-54484095D01*
X124256476Y-54293619D02*
X124304095Y-54246000D01*
X124399333Y-54198380D01*
X124637428Y-54198380D01*
X124732666Y-54246000D01*
X124780285Y-54293619D01*
X124827904Y-54388857D01*
X124827904Y-54484095D01*
X124780285Y-54626952D01*
X124208857Y-55198380D01*
X124827904Y-55198380D01*
X122518380Y-62668857D02*
X122518380Y-62002190D01*
X123518380Y-62430761D01*
X122851714Y-61192666D02*
X123518380Y-61192666D01*
X122470761Y-61430761D02*
X123185047Y-61668857D01*
X123185047Y-61049809D01*
X123518380Y-60192666D02*
X123518380Y-60668857D01*
X122518380Y-60668857D01*
X123470761Y-59906952D02*
X123518380Y-59764095D01*
X123518380Y-59526000D01*
X123470761Y-59430761D01*
X123423142Y-59383142D01*
X123327904Y-59335523D01*
X123232666Y-59335523D01*
X123137428Y-59383142D01*
X123089809Y-59430761D01*
X123042190Y-59526000D01*
X122994571Y-59716476D01*
X122946952Y-59811714D01*
X122899333Y-59859333D01*
X122804095Y-59906952D01*
X122708857Y-59906952D01*
X122613619Y-59859333D01*
X122566000Y-59811714D01*
X122518380Y-59716476D01*
X122518380Y-59478380D01*
X122566000Y-59335523D01*
X122518380Y-59002190D02*
X122518380Y-58335523D01*
X123518380Y-58764095D01*
X122851714Y-57526000D02*
X123518380Y-57526000D01*
X122470761Y-57764095D02*
X123185047Y-58002190D01*
X123185047Y-57383142D01*
X121351714Y-89742380D02*
X121351714Y-88742380D01*
X121589809Y-88742380D01*
X121732666Y-88790000D01*
X121827904Y-88885238D01*
X121875523Y-88980476D01*
X121923142Y-89170952D01*
X121923142Y-89313809D01*
X121875523Y-89504285D01*
X121827904Y-89599523D01*
X121732666Y-89694761D01*
X121589809Y-89742380D01*
X121351714Y-89742380D01*
X122351714Y-89742380D02*
X122351714Y-88742380D01*
X122589809Y-88742380D01*
X122732666Y-88790000D01*
X122827904Y-88885238D01*
X122875523Y-88980476D01*
X122923142Y-89170952D01*
X122923142Y-89313809D01*
X122875523Y-89504285D01*
X122827904Y-89599523D01*
X122732666Y-89694761D01*
X122589809Y-89742380D01*
X122351714Y-89742380D01*
X123875523Y-89742380D02*
X123304095Y-89742380D01*
X123589809Y-89742380D02*
X123589809Y-88742380D01*
X123494571Y-88885238D01*
X123399333Y-88980476D01*
X123304095Y-89028095D01*
X124827904Y-89742380D02*
X124256476Y-89742380D01*
X124542190Y-89742380D02*
X124542190Y-88742380D01*
X124446952Y-88885238D01*
X124351714Y-88980476D01*
X124256476Y-89028095D01*
X122518380Y-97720857D02*
X122518380Y-97054190D01*
X123518380Y-97482761D01*
X122851714Y-96244666D02*
X123518380Y-96244666D01*
X122470761Y-96482761D02*
X123185047Y-96720857D01*
X123185047Y-96101809D01*
X123518380Y-95244666D02*
X123518380Y-95720857D01*
X122518380Y-95720857D01*
X123470761Y-94958952D02*
X123518380Y-94816095D01*
X123518380Y-94578000D01*
X123470761Y-94482761D01*
X123423142Y-94435142D01*
X123327904Y-94387523D01*
X123232666Y-94387523D01*
X123137428Y-94435142D01*
X123089809Y-94482761D01*
X123042190Y-94578000D01*
X122994571Y-94768476D01*
X122946952Y-94863714D01*
X122899333Y-94911333D01*
X122804095Y-94958952D01*
X122708857Y-94958952D01*
X122613619Y-94911333D01*
X122566000Y-94863714D01*
X122518380Y-94768476D01*
X122518380Y-94530380D01*
X122566000Y-94387523D01*
X122518380Y-94054190D02*
X122518380Y-93387523D01*
X123518380Y-93816095D01*
X122851714Y-92578000D02*
X123518380Y-92578000D01*
X122470761Y-92816095D02*
X123185047Y-93054190D01*
X123185047Y-92435142D01*
X65439904Y-71924380D02*
X65439904Y-70924380D01*
X65678000Y-70924380D01*
X65820857Y-70972000D01*
X65916095Y-71067238D01*
X65963714Y-71162476D01*
X66011333Y-71352952D01*
X66011333Y-71495809D01*
X65963714Y-71686285D01*
X65916095Y-71781523D01*
X65820857Y-71876761D01*
X65678000Y-71924380D01*
X65439904Y-71924380D01*
X66439904Y-71924380D02*
X66439904Y-70924380D01*
X66678000Y-70924380D01*
X66820857Y-70972000D01*
X66916095Y-71067238D01*
X66963714Y-71162476D01*
X67011333Y-71352952D01*
X67011333Y-71495809D01*
X66963714Y-71686285D01*
X66916095Y-71781523D01*
X66820857Y-71876761D01*
X66678000Y-71924380D01*
X66439904Y-71924380D01*
X67868476Y-70924380D02*
X67678000Y-70924380D01*
X67582761Y-70972000D01*
X67535142Y-71019619D01*
X67439904Y-71162476D01*
X67392285Y-71352952D01*
X67392285Y-71733904D01*
X67439904Y-71829142D01*
X67487523Y-71876761D01*
X67582761Y-71924380D01*
X67773238Y-71924380D01*
X67868476Y-71876761D01*
X67916095Y-71829142D01*
X67963714Y-71733904D01*
X67963714Y-71495809D01*
X67916095Y-71400571D01*
X67868476Y-71352952D01*
X67773238Y-71305333D01*
X67582761Y-71305333D01*
X67487523Y-71352952D01*
X67439904Y-71400571D01*
X67392285Y-71495809D01*
X66130380Y-81941047D02*
X66130380Y-81274380D01*
X67130380Y-81702952D01*
X66463714Y-80464857D02*
X67130380Y-80464857D01*
X66082761Y-80702952D02*
X66797047Y-80941047D01*
X66797047Y-80322000D01*
X67130380Y-79464857D02*
X67130380Y-79941047D01*
X66130380Y-79941047D01*
X67082761Y-79179142D02*
X67130380Y-79036285D01*
X67130380Y-78798190D01*
X67082761Y-78702952D01*
X67035142Y-78655333D01*
X66939904Y-78607714D01*
X66844666Y-78607714D01*
X66749428Y-78655333D01*
X66701809Y-78702952D01*
X66654190Y-78798190D01*
X66606571Y-78988666D01*
X66558952Y-79083904D01*
X66511333Y-79131523D01*
X66416095Y-79179142D01*
X66320857Y-79179142D01*
X66225619Y-79131523D01*
X66178000Y-79083904D01*
X66130380Y-78988666D01*
X66130380Y-78750571D01*
X66178000Y-78607714D01*
X66130380Y-78274380D02*
X66130380Y-77655333D01*
X66511333Y-77988666D01*
X66511333Y-77845809D01*
X66558952Y-77750571D01*
X66606571Y-77702952D01*
X66701809Y-77655333D01*
X66939904Y-77655333D01*
X67035142Y-77702952D01*
X67082761Y-77750571D01*
X67130380Y-77845809D01*
X67130380Y-78131523D01*
X67082761Y-78226761D01*
X67035142Y-78274380D01*
X66130380Y-77322000D02*
X66130380Y-76655333D01*
X67130380Y-77083904D01*
X66130380Y-76369619D02*
X66130380Y-75750571D01*
X66511333Y-76083904D01*
X66511333Y-75941047D01*
X66558952Y-75845809D01*
X66606571Y-75798190D01*
X66701809Y-75750571D01*
X66939904Y-75750571D01*
X67035142Y-75798190D01*
X67082761Y-75845809D01*
X67130380Y-75941047D01*
X67130380Y-76226761D01*
X67082761Y-76322000D01*
X67035142Y-76369619D01*
X78576380Y-79552095D02*
X77576380Y-79552095D01*
X77576380Y-79314000D01*
X77624000Y-79171142D01*
X77719238Y-79075904D01*
X77814476Y-79028285D01*
X78004952Y-78980666D01*
X78147809Y-78980666D01*
X78338285Y-79028285D01*
X78433523Y-79075904D01*
X78528761Y-79171142D01*
X78576380Y-79314000D01*
X78576380Y-79552095D01*
X78576380Y-78552095D02*
X77576380Y-78552095D01*
X77576380Y-78314000D01*
X77624000Y-78171142D01*
X77719238Y-78075904D01*
X77814476Y-78028285D01*
X78004952Y-77980666D01*
X78147809Y-77980666D01*
X78338285Y-78028285D01*
X78433523Y-78075904D01*
X78528761Y-78171142D01*
X78576380Y-78314000D01*
X78576380Y-78552095D01*
X77576380Y-77647333D02*
X77576380Y-77028285D01*
X77957333Y-77361619D01*
X77957333Y-77218761D01*
X78004952Y-77123523D01*
X78052571Y-77075904D01*
X78147809Y-77028285D01*
X78385904Y-77028285D01*
X78481142Y-77075904D01*
X78528761Y-77123523D01*
X78576380Y-77218761D01*
X78576380Y-77504476D01*
X78528761Y-77599714D01*
X78481142Y-77647333D01*
X82354952Y-77766380D02*
X83021619Y-77766380D01*
X82593047Y-78766380D01*
X83831142Y-78099714D02*
X83831142Y-78766380D01*
X83593047Y-77718761D02*
X83354952Y-78433047D01*
X83974000Y-78433047D01*
X84831142Y-78766380D02*
X84354952Y-78766380D01*
X84354952Y-77766380D01*
X85116857Y-78718761D02*
X85259714Y-78766380D01*
X85497809Y-78766380D01*
X85593047Y-78718761D01*
X85640666Y-78671142D01*
X85688285Y-78575904D01*
X85688285Y-78480666D01*
X85640666Y-78385428D01*
X85593047Y-78337809D01*
X85497809Y-78290190D01*
X85307333Y-78242571D01*
X85212095Y-78194952D01*
X85164476Y-78147333D01*
X85116857Y-78052095D01*
X85116857Y-77956857D01*
X85164476Y-77861619D01*
X85212095Y-77814000D01*
X85307333Y-77766380D01*
X85545428Y-77766380D01*
X85688285Y-77814000D01*
X86021619Y-77766380D02*
X86640666Y-77766380D01*
X86307333Y-78147333D01*
X86450190Y-78147333D01*
X86545428Y-78194952D01*
X86593047Y-78242571D01*
X86640666Y-78337809D01*
X86640666Y-78575904D01*
X86593047Y-78671142D01*
X86545428Y-78718761D01*
X86450190Y-78766380D01*
X86164476Y-78766380D01*
X86069238Y-78718761D01*
X86021619Y-78671142D01*
X86974000Y-77766380D02*
X87640666Y-77766380D01*
X87212095Y-78766380D01*
X88450190Y-78099714D02*
X88450190Y-78766380D01*
X88212095Y-77718761D02*
X87974000Y-78433047D01*
X88593047Y-78433047D01*
X52731904Y-115850380D02*
X52731904Y-114850380D01*
X52970000Y-114850380D01*
X53112857Y-114898000D01*
X53208095Y-114993238D01*
X53255714Y-115088476D01*
X53303333Y-115278952D01*
X53303333Y-115421809D01*
X53255714Y-115612285D01*
X53208095Y-115707523D01*
X53112857Y-115802761D01*
X52970000Y-115850380D01*
X52731904Y-115850380D01*
X53684285Y-114945619D02*
X53731904Y-114898000D01*
X53827142Y-114850380D01*
X54065238Y-114850380D01*
X54160476Y-114898000D01*
X54208095Y-114945619D01*
X54255714Y-115040857D01*
X54255714Y-115136095D01*
X54208095Y-115278952D01*
X53636666Y-115850380D01*
X54255714Y-115850380D01*
X49175904Y-115850380D02*
X49175904Y-114850380D01*
X49414000Y-114850380D01*
X49556857Y-114898000D01*
X49652095Y-114993238D01*
X49699714Y-115088476D01*
X49747333Y-115278952D01*
X49747333Y-115421809D01*
X49699714Y-115612285D01*
X49652095Y-115707523D01*
X49556857Y-115802761D01*
X49414000Y-115850380D01*
X49175904Y-115850380D01*
X50699714Y-115850380D02*
X50128285Y-115850380D01*
X50414000Y-115850380D02*
X50414000Y-114850380D01*
X50318761Y-114993238D01*
X50223523Y-115088476D01*
X50128285Y-115136095D01*
X53478000Y-49552571D02*
X53478000Y-50624000D01*
X53406571Y-50838285D01*
X53263714Y-50981142D01*
X53049428Y-51052571D01*
X52906571Y-51052571D01*
X54978000Y-51052571D02*
X54120857Y-51052571D01*
X54549428Y-51052571D02*
X54549428Y-49552571D01*
X54406571Y-49766857D01*
X54263714Y-49909714D01*
X54120857Y-49981142D01*
X67360857Y-91184571D02*
X67360857Y-89684571D01*
X67718000Y-89684571D01*
X67932285Y-89756000D01*
X68075142Y-89898857D01*
X68146571Y-90041714D01*
X68218000Y-90327428D01*
X68218000Y-90541714D01*
X68146571Y-90827428D01*
X68075142Y-90970285D01*
X67932285Y-91113142D01*
X67718000Y-91184571D01*
X67360857Y-91184571D01*
X68860857Y-91184571D02*
X68860857Y-89684571D01*
X69218000Y-89684571D01*
X69432285Y-89756000D01*
X69575142Y-89898857D01*
X69646571Y-90041714D01*
X69718000Y-90327428D01*
X69718000Y-90541714D01*
X69646571Y-90827428D01*
X69575142Y-90970285D01*
X69432285Y-91113142D01*
X69218000Y-91184571D01*
X68860857Y-91184571D01*
X70289428Y-89827428D02*
X70360857Y-89756000D01*
X70503714Y-89684571D01*
X70860857Y-89684571D01*
X71003714Y-89756000D01*
X71075142Y-89827428D01*
X71146571Y-89970285D01*
X71146571Y-90113142D01*
X71075142Y-90327428D01*
X70218000Y-91184571D01*
X71146571Y-91184571D01*
X63718000Y-94232571D02*
X63718000Y-92732571D01*
X64575142Y-94232571D02*
X63932285Y-93375428D01*
X64575142Y-92732571D02*
X63718000Y-93589714D01*
X66003714Y-94232571D02*
X65146571Y-94232571D01*
X65575142Y-94232571D02*
X65575142Y-92732571D01*
X65432285Y-92946857D01*
X65289428Y-93089714D01*
X65146571Y-93161142D01*
X67360857Y-92732571D02*
X66646571Y-92732571D01*
X66575142Y-93446857D01*
X66646571Y-93375428D01*
X66789428Y-93304000D01*
X67146571Y-93304000D01*
X67289428Y-93375428D01*
X67360857Y-93446857D01*
X67432285Y-93589714D01*
X67432285Y-93946857D01*
X67360857Y-94089714D01*
X67289428Y-94161142D01*
X67146571Y-94232571D01*
X66789428Y-94232571D01*
X66646571Y-94161142D01*
X66575142Y-94089714D01*
X68789428Y-92732571D02*
X68075142Y-92732571D01*
X68003714Y-93446857D01*
X68075142Y-93375428D01*
X68218000Y-93304000D01*
X68575142Y-93304000D01*
X68718000Y-93375428D01*
X68789428Y-93446857D01*
X68860857Y-93589714D01*
X68860857Y-93946857D01*
X68789428Y-94089714D01*
X68718000Y-94161142D01*
X68575142Y-94232571D01*
X68218000Y-94232571D01*
X68075142Y-94161142D01*
X68003714Y-94089714D01*
X69503714Y-92732571D02*
X69503714Y-94232571D01*
X70360857Y-92732571D01*
X70360857Y-94232571D01*
X71075142Y-94232571D02*
X71075142Y-92732571D01*
X71646571Y-92732571D01*
X71789428Y-92804000D01*
X71860857Y-92875428D01*
X71932285Y-93018285D01*
X71932285Y-93232571D01*
X71860857Y-93375428D01*
X71789428Y-93446857D01*
X71646571Y-93518285D01*
X71075142Y-93518285D01*
X73360857Y-94232571D02*
X72503714Y-94232571D01*
X72932285Y-94232571D02*
X72932285Y-92732571D01*
X72789428Y-92946857D01*
X72646571Y-93089714D01*
X72503714Y-93161142D01*
X73860857Y-92732571D02*
X74789428Y-92732571D01*
X74289428Y-93304000D01*
X74503714Y-93304000D01*
X74646571Y-93375428D01*
X74718000Y-93446857D01*
X74789428Y-93589714D01*
X74789428Y-93946857D01*
X74718000Y-94089714D01*
X74646571Y-94161142D01*
X74503714Y-94232571D01*
X74075142Y-94232571D01*
X73932285Y-94161142D01*
X73860857Y-94089714D01*
X74980857Y-60196571D02*
X74980857Y-58696571D01*
X75338000Y-58696571D01*
X75552285Y-58768000D01*
X75695142Y-58910857D01*
X75766571Y-59053714D01*
X75838000Y-59339428D01*
X75838000Y-59553714D01*
X75766571Y-59839428D01*
X75695142Y-59982285D01*
X75552285Y-60125142D01*
X75338000Y-60196571D01*
X74980857Y-60196571D01*
X76480857Y-60196571D02*
X76480857Y-58696571D01*
X76838000Y-58696571D01*
X77052285Y-58768000D01*
X77195142Y-58910857D01*
X77266571Y-59053714D01*
X77338000Y-59339428D01*
X77338000Y-59553714D01*
X77266571Y-59839428D01*
X77195142Y-59982285D01*
X77052285Y-60125142D01*
X76838000Y-60196571D01*
X76480857Y-60196571D01*
X78766571Y-60196571D02*
X77909428Y-60196571D01*
X78338000Y-60196571D02*
X78338000Y-58696571D01*
X78195142Y-58910857D01*
X78052285Y-59053714D01*
X77909428Y-59125142D01*
X82275714Y-60196571D02*
X82275714Y-58696571D01*
X83132857Y-60196571D02*
X82490000Y-59339428D01*
X83132857Y-58696571D02*
X82275714Y-59553714D01*
X84490000Y-58696571D02*
X83775714Y-58696571D01*
X83704285Y-59410857D01*
X83775714Y-59339428D01*
X83918571Y-59268000D01*
X84275714Y-59268000D01*
X84418571Y-59339428D01*
X84490000Y-59410857D01*
X84561428Y-59553714D01*
X84561428Y-59910857D01*
X84490000Y-60053714D01*
X84418571Y-60125142D01*
X84275714Y-60196571D01*
X83918571Y-60196571D01*
X83775714Y-60125142D01*
X83704285Y-60053714D01*
X85418571Y-59339428D02*
X85275714Y-59268000D01*
X85204285Y-59196571D01*
X85132857Y-59053714D01*
X85132857Y-58982285D01*
X85204285Y-58839428D01*
X85275714Y-58768000D01*
X85418571Y-58696571D01*
X85704285Y-58696571D01*
X85847142Y-58768000D01*
X85918571Y-58839428D01*
X85990000Y-58982285D01*
X85990000Y-59053714D01*
X85918571Y-59196571D01*
X85847142Y-59268000D01*
X85704285Y-59339428D01*
X85418571Y-59339428D01*
X85275714Y-59410857D01*
X85204285Y-59482285D01*
X85132857Y-59625142D01*
X85132857Y-59910857D01*
X85204285Y-60053714D01*
X85275714Y-60125142D01*
X85418571Y-60196571D01*
X85704285Y-60196571D01*
X85847142Y-60125142D01*
X85918571Y-60053714D01*
X85990000Y-59910857D01*
X85990000Y-59625142D01*
X85918571Y-59482285D01*
X85847142Y-59410857D01*
X85704285Y-59339428D01*
X86918571Y-58696571D02*
X87061428Y-58696571D01*
X87204285Y-58768000D01*
X87275714Y-58839428D01*
X87347142Y-58982285D01*
X87418571Y-59268000D01*
X87418571Y-59625142D01*
X87347142Y-59910857D01*
X87275714Y-60053714D01*
X87204285Y-60125142D01*
X87061428Y-60196571D01*
X86918571Y-60196571D01*
X86775714Y-60125142D01*
X86704285Y-60053714D01*
X86632857Y-59910857D01*
X86561428Y-59625142D01*
X86561428Y-59268000D01*
X86632857Y-58982285D01*
X86704285Y-58839428D01*
X86775714Y-58768000D01*
X86918571Y-58696571D01*
X88561428Y-59410857D02*
X88775714Y-59482285D01*
X88847142Y-59553714D01*
X88918571Y-59696571D01*
X88918571Y-59910857D01*
X88847142Y-60053714D01*
X88775714Y-60125142D01*
X88632857Y-60196571D01*
X88061428Y-60196571D01*
X88061428Y-58696571D01*
X88561428Y-58696571D01*
X88704285Y-58768000D01*
X88775714Y-58839428D01*
X88847142Y-58982285D01*
X88847142Y-59125142D01*
X88775714Y-59268000D01*
X88704285Y-59339428D01*
X88561428Y-59410857D01*
X88061428Y-59410857D01*
X90061428Y-59410857D02*
X90275714Y-59482285D01*
X90347142Y-59553714D01*
X90418571Y-59696571D01*
X90418571Y-59910857D01*
X90347142Y-60053714D01*
X90275714Y-60125142D01*
X90132857Y-60196571D01*
X89561428Y-60196571D01*
X89561428Y-58696571D01*
X90061428Y-58696571D01*
X90204285Y-58768000D01*
X90275714Y-58839428D01*
X90347142Y-58982285D01*
X90347142Y-59125142D01*
X90275714Y-59268000D01*
X90204285Y-59339428D01*
X90061428Y-59410857D01*
X89561428Y-59410857D01*
X91775714Y-58696571D02*
X91061428Y-58696571D01*
X90990000Y-59410857D01*
X91061428Y-59339428D01*
X91204285Y-59268000D01*
X91561428Y-59268000D01*
X91704285Y-59339428D01*
X91775714Y-59410857D01*
X91847142Y-59553714D01*
X91847142Y-59910857D01*
X91775714Y-60053714D01*
X91704285Y-60125142D01*
X91561428Y-60196571D01*
X91204285Y-60196571D01*
X91061428Y-60125142D01*
X90990000Y-60053714D01*
X93204285Y-58696571D02*
X92490000Y-58696571D01*
X92418571Y-59410857D01*
X92490000Y-59339428D01*
X92632857Y-59268000D01*
X92990000Y-59268000D01*
X93132857Y-59339428D01*
X93204285Y-59410857D01*
X93275714Y-59553714D01*
X93275714Y-59910857D01*
X93204285Y-60053714D01*
X93132857Y-60125142D01*
X92990000Y-60196571D01*
X92632857Y-60196571D01*
X92490000Y-60125142D01*
X92418571Y-60053714D01*
M02*
